<svg version="1.1" id="Layer_1" xmlns="http://www.w3.org/2000/svg" xmlns:xlink="http://www.w3.org/1999/xlink" x="0px" y="0px" viewBox="0 0 24 24" width="24" height="24" xml:space="preserve">
	<g>
		<path d="M13.5,4.7c-0.3-0.5-0.9-0.6-1.4-0.4c-0.5,0.3-0.6,0.9-0.4,1.4l-9.9,9.4c-0.3-0.2-0.7-0.2-1,0c-0.5,0.3-0.6,0.9-0.4,1.4
			l0.5,0.7l1.5,2.7l0.4,0.6c0.3,0.5,0.9,0.6,1.4,0.4c0.3-0.2,0.5-0.6,0.5-0.9l0.8-0.2l0.2,0.5c0.2,0.6,0.5,1,1,1.2
			c0.3,0.2,0.6,0.2,1,0.2c0.2,0,0.4,0,0.6-0.1l2.1-0.6c0.6-0.2,1-0.5,1.2-1c0.2-0.5,0.3-1,0.2-1.5L11.3,18l6.2-1.8
			c0.3,0.4,0.9,0.6,1.3,0.2c0.5-0.3,0.6-0.9,0.4-1.4L13.5,4.7z M7.5,19.6l-0.2-0.4l2.1-0.6l0.2,0.4L7.5,19.6z M3.7,18.1L3,16.8
			l9.7-9.3l3.8,6.6L3.7,18.1z"/>
		<path d="M23.6,5.6c-0.3-0.5-0.9-0.6-1.4-0.4L20,6.5c-0.5,0.3-0.6,0.9-0.4,1.4c0.2,0.3,0.6,0.5,0.9,0.5c0.2,0,0.3-0.1,0.5-0.2
			l2.2-1.3C23.7,6.7,23.9,6.1,23.6,5.6z"/>
		<path d="M22.2,10.1l-2.2,0.6c-0.6,0.2-0.9,0.7-0.7,1.3c0.2,0.5,0.6,0.7,1,0.7c0.1,0,0.2,0,0.2,0l2.2-0.6c0.6-0.2,0.9-0.7,0.7-1.3
			C23.3,10.3,22.8,10,22.2,10.1z"/>
		<path d="M16.9,6.1c0.3,0,0.6-0.2,0.8-0.3L19.2,4c0.4-0.4,0.3-1-0.1-1.4s-1-0.3-1.4,0.1l-1.4,1.8c-0.4,0.4-0.3,1,0.1,1.4
			C16.5,6.1,16.7,6.1,16.9,6.1z"/>
	</g>
</svg>
