<svg version="1.1" viewBox="0 0 24 24" width="24" height="24">
  <path d="M10,5.1L7,0.2c-0.2-0.3-0.6-0.3-0.8,0l-3,4.9C3.1,5.2,3,5.3,3,5.4v15.8C3,22.8,4.2,24,5.5,24h2c1.4,0,2.5-1.2,2.5-2.7V5.4
	C10,5.3,10,5.2,10,5.1z M5.1,4.4h2.7l0.7,1V18H7.1V6.9c0-0.3-0.2-0.6-0.5-0.6S6.1,6.5,6.1,6.9V18H4.5V5.4L5.1,4.4z M7.5,22.2h-2
	c-0.8,0-1.1-0.9-1.1-1.8v-0.7h4.1v0.7C8.6,21.3,8.4,22.2,7.5,22.2z"/>
  <path d="M21.5,0h-7C14.3,0,14,0.2,14,0.5v23c0,0.3,0.2,0.5,0.5,0.5h7c0.3,0,0.5-0.2,0.5-0.5v-23C22,0.2,21.8,0,21.5,0z M20.4,22.3
	h-4.8v-1.9h2.1v-1.8h-2.1v-2h2.1v-1.8h-2.1v-2h2.1v-1.8h-2.1V9h2.1V7.3h-2.1V1.8h4.8V22.3z"/>
</svg>
