<svg xmlns="http://www.w3.org/2000/svg" viewBox="0 0 1024 1024"><path d="M1022.249 368.589c-1.28-1.28-3.84-1.28-7.68 0-7.68 1.28-52.48 5.12-72.96 7.68-7.68 1.28-11.52 3.84-15.36 10.24s-103.68 175.36-103.68 175.36 76.8-409.6 78.08-419.84c2.56-14.08 0-17.92-11.52-17.92s-64 5.12-71.68 6.4c-10.24 1.28-14.08 5.12-16.64 17.92-1.28 8.96-113.92 614.4-115.2 625.92-2.56 16.64-2.56 17.92 12.8 15.36 8.96-1.28 53.76-8.96 71.68-11.52 5.12-1.28 8.96-1.28 10.24-10.24s35.84-185.6 35.84-185.6 57.6 162.56 60.16 168.96c2.56 6.4 3.84 8.96 12.8 7.68 20.48-3.84 67.84-11.52 72.96-11.52 7.68-1.28 8.96-3.84 7.68-10.24-2.56-7.68-61.44-175.36-61.44-175.36s108.8-176.64 112.64-184.32c3.84-3.84 3.84-7.68 1.28-8.96zm-352 47.36c-14.08-5.12-42.24-14.08-76.8-10.24-51.2 6.4-87.04 28.16-106.24 64s-15.36 75.52-8.96 96c6.4 20.48 23.04 43.52 44.8 62.72 49.92 43.52 48.64 78.08 40.96 92.16-8.96 17.92-33.28 32-66.56 24.32s-44.8-29.44-44.8-29.44-16.64 57.6-20.48 69.12c-3.84 15.36-2.56 19.2 11.52 25.6 19.2 7.68 55.04 16.64 113.92 5.12 39.68-7.68 76.8-39.68 93.44-72.96 17.92-34.56 29.44-102.4-26.88-153.6-46.08-40.96-51.2-48.64-55.04-57.6-8.96-16.64-1.28-35.84 6.4-46.08 7.68-8.96 17.92-14.08 33.28-12.8 16.64 1.28 44.8 23.04 44.8 23.04s20.48-58.88 21.76-62.72c3.84-7.68 2.56-12.8-5.12-16.64zm-468.48 257.28l97.28-229.12 1.28 213.76-98.56 15.36zm151.04-460.8c-1.28-17.92-16.64-15.36-23.04-1.28-21.76 46.08-323.84 669.44-327.68 677.12-5.12 11.52-1.28 12.8 10.24 11.52 7.68-1.28 74.24-11.52 94.72-15.36 6.4-1.28 8.96-2.56 11.52-7.68 1.28-2.56 48.64-115.2 48.64-115.2l133.12-20.48s1.28 85.76 1.28 101.12c0 6.4 1.28 10.24 11.52 8.96 12.8-2.56 65.28-10.24 71.68-11.52 12.8-2.56 14.08-5.12 14.08-17.92-1.28-8.96-42.24-565.76-46.08-609.28z"/></svg>