<svg xmlns="http://www.w3.org/2000/svg" viewBox="0 0 1024 1024"><path d="M826 396c-28-12-54-36-88-46 32 46 68 96 64 180-4 64-34 110-68 146s-78 62-134 80c-28 8-60 16-92 16-102 0-206-8-306 4 0-10-2-18-4-26 40-10 96-22 100-72 2-26 4-320-2-342-8-30-64-40-96-46 0-8 4-16 2-26 68-8 136-10 206-12 186-8 348 30 418 144zm-390-74c-10 2-6 32-6 40 0 76-2 164-2 238 0 24-6 74 8 86s68 6 92 6c112-8 164-132 126-244-26-72-82-120-172-126-12-2-30-2-40 0h-6zm54 480c8 126 24 222 40 222s30-98 38-230c-26 6-50 6-78 8zM376 920c10 0 20-56 26-120h-52c6 64 16 120 26 120zm284-154c6 98 14 156 26 156s22-74 28-186c-18 10-36 22-54 30zM530 0c-16 0-32 92-40 218 28 2 52 4 78 8C560 96 546 0 530 0zM376 118c-10 0-20 40-26 106h52c-6-66-16-106-26-106zm310 0c-10 2-20 44-26 124 16 4 38 12 54 22-4-90-14-148-28-146z"/></svg>