<svg xmlns="http://www.w3.org/2000/svg" viewBox="0 0 1024 1024"><path d="M306 776c-2 52-2-6-2 8v2c20 56 90 142 176 190 2 0 2 2 4 2 0 0 2 0 2-2 2 0 4-2 4-4V778c-10 6-184-2-184-2zm228-22v218c0 2 0 4 2 4s2 2 4 2c0 0 2 0 2-2 88-48 154-124 174-180 0 0-66 4-152-76-16 28-18 26-30 34zm-48-640L316 48h-4L136 80c-2 0-4 2-4 4 0 4 0 6 2 6 0 0 28 12 60 28 32 18 68 42 80 64 6 10 2 0 6 16l208-2v-78c0-2 0-4-2-4zm404-34L714 48h-4l-174 66c-2 0-2 2-2 4v88l22 26c6-6 22-38 58-38h132c38-54 146-102 146-102 2-2 2-4 2-6 0-4-2-6-4-6zM78 328h284l38 36h4s2 0 4-2l98-110c2-2 2-4 2-6-2-2-4-2-6-2H136c-16 0-30 2-42 12-14 10-20 26-20 54v12c0 2 2 6 4 6zm940-80H610l-72 70c-2 2-2 4-2 6 2 2 4 4 6 4h324l16 22c2 2 4 2 4 2h4l132-94c2-2 4-6 2-8s-4-2-6-2zM884 678c-10 2-22 2-34 2-88 0-172-70-180-172-2-20-2-18-2-34 0-44 4-78 6-96v-4c-2-2-2-2-4-2H526c-2 0-4 0-4 4-8 20-20 60-20 114 0 32 4 46 16 84 28 86 132 168 214 168 126 0 156-44 156-58 0-2 0-4-2-4 0-2 0-4-2-2zM278 374l-4-2H110c-2 0-4 2-6 4 0 2 0 4 2 6 0 0 220 254 226 262v2l-2 2H200c-24 0-42-10-52-18s-14-16-14-16l-4-4c-4 0-4 0-6 2L4 724c-4 4-4 6-4 8 2 2 4 2 6 2h454c26 0 44-28 44-56 0-10-4-20-10-28-16-22-216-274-216-276zm108 48c4 2 6 2 10 2h2c16-2 30-8 42-20l12-14c-8 30-12 64-12 98v6c-18-22-36-48-54-72z"/></svg>