<svg xmlns="http://www.w3.org/2000/svg" viewBox="0 0 1024 1024"><path d="M654.336 1024l308.224-67.584S851.968 203.776 849.92 199.68c-1.024-5.12-5.12-8.192-9.216-8.192-3.072 0-82.944-6.144-82.944-6.144l-60.416-60.416c-1.024-1.024-3.072-2.048-5.12-3.072 1.024 0-37.888 902.144-37.888 902.144zm24.576-902.144c-1.024 0-2.048 0-3.072 1.024-1.024 0-12.288 3.072-30.72 9.216-17.408-53.248-51.2-100.352-107.52-100.352h-5.12C517.12 9.216 497.664 0 480.256 0 348.16 0 284.672 164.864 266.24 248.832c-51.2 15.36-87.04 27.648-92.16 28.672-28.672 9.216-29.696 9.216-32.768 36.864-4.096 21.504-79.872 601.088-79.872 601.088L640 1024l38.912-902.144zm-149.504 39.936v6.144c-31.744 9.216-67.584 21.504-102.4 31.744 20.48-75.776 56.32-112.64 89.088-125.952 8.192 19.456 13.312 49.152 13.312 88.064zM477.184 35.84c6.144 0 12.288 2.048 16.384 6.144-43.008 20.48-87.04 69.632-107.52 169.984-28.672 8.192-55.296 17.408-79.872 24.576C328.704 160.768 381.952 35.84 477.184 35.84zm22.528 447.488s-33.792-17.408-75.776-17.408c-61.44 0-64.512 38.912-64.512 48.128 0 53.248 138.24 73.728 138.24 197.632 0 98.304-62.464 160.768-145.408 160.768-100.352 0-151.552-62.464-151.552-62.464l27.648-89.088s53.248 45.056 97.28 45.056c29.696 0 40.96-22.528 40.96-39.936 0-69.632-113.664-71.68-113.664-186.368 0-95.232 68.608-189.44 207.872-189.44 53.248 0 79.872 15.36 79.872 15.36l-40.96 117.76zM552.96 66.56c29.696 3.072 48.128 36.864 61.44 75.776-14.336 5.12-31.744 9.216-49.152 15.36v-10.24c-1.024-33.792-5.12-60.416-12.288-80.896z"/></svg>