<svg xmlns="http://www.w3.org/2000/svg" viewBox="0 0 1024 1024"><path d="M316 626s2-58 14-76 26-32 44-42c18-8 30-12 44-20l8-4c12-8 34-22 36-36v-22c0-6-4-22-6-26-6-12-14-4-18-20 0-4-2-26 0-28 0-4 4-6 4-6v-18c0-4 0-28 10-42 12-14 16-24 58-24 40 2 46 14 54 24 8 14 10 40 10 58 0 4 4-4 4 8 2 6 0 20 0 28-2 16-12 6-18 22-2 8-2 18 0 30 0 12 0 16 8 26 6 10 16 18 34 26h2c20 8 38 14 54 26s20 16 26 28c4 12 8 42 8 52 2 12 4 26 4 26s4-24 18-34c14-12 16-14 34-22 16-8 14-4 32-14s24-14 28-20 6-16 2-22-4-14-12-18c-10-8-8-22-14-26s-10-6-10-12c-2-8-4-16-2-32 2-14 2-8 4-14s4-22 6-30c4-6 6-16 12-22s20-22 50-26c18-2 30 0 44 4 16 6 34 28 38 40s4 18 4 28v16c0 4 4 8-2 38-4 10-4 14-14 22-6 4-8 14-14 18-8 6-6 16-4 26s8 10 18 16 60 28 74 48c12 20 30 30 34 88 4 20 2 24 2 46s2 26 2 46H696s-6-66-12-56c-8 10-18 58-18 58H340s-10-48-14-58c-4-6-8 58-8 58H0s2-26 4-40c2-22 2-48 8-68 6-22 6-32 18-44 14-10 22-18 32-24 18-8 44-28 26-76-14-32 2-80 20-108 18-26 26-48 64-48s66 42 74 70c6 30 10 66 2 92-10 30 0 46 42 68 16 8 22 34 26 42z"/></svg>