<svg xmlns="http://www.w3.org/2000/svg" viewBox="0 0 1024 1024"><path d="M232.06 155.36c-31.52-42.58-93.44-49.22-133.82-12.72-34.84 32.08-37.6 86.26-9.4 124.42L270.76 510.9 87.74 756.96c-28.2 38.16-25.98 92.34 9.4 124.42 40.36 36.5 102.3 29.86 133.82-12.72l255.46-343.38c6.08-8.3 6.08-19.9 0-28.2L232.06 155.36zm560.68 0c31.52-42.58 93.44-49.22 133.82-12.72 34.84 32.08 37.6 86.26 9.4 124.42L754.04 510.9l183.02 246.06c28.2 38.16 25.98 92.34-9.4 124.42-40.36 36.5-102.3 29.86-133.82-12.72l-254.9-343.94c-6.08-8.3-6.08-19.9 0-28.2l253.8-341.16z"/></svg>