<svg xmlns="http://www.w3.org/2000/svg" viewBox="0 0 1024 1024"><path d="M558.08 103.424c-56.32 26.624-220.16 153.6-308.224 220.16 107.52-35.84 365.568-93.184 497.664-96.256-41.984-29.696-157.696-108.544-189.44-123.904zM43.008 920.576c36.864-16.384 380.928-131.072 698.368-149.504 7.168-26.624 41.984-116.736 48.128-140.288C460.8 653.312 193.536 751.616 86.016 800.768L43.008 920.576zm728.064-675.84S451.584 566.272 401.408 612.352c97.28-34.816 296.96-76.8 422.912-84.992 14.336-45.056 30.72-77.824 30.72-77.824L1024 432.128c0 1.024-129.024-103.424-252.928-187.392zM98.304 766.976C198.656 662.528 562.176 327.68 562.176 327.68c-188.416 44.032-386.048 103.424-455.68 136.192L0 572.416c88.064-18.432 116.736-22.528 181.248-31.744L98.304 766.976z"/></svg>