<svg xmlns="http://www.w3.org/2000/svg" viewBox="0 0 1024 1024"><path d="M160 410v118c0 40-16 56-58 56-40 0-58-16-58-56V406H6c-4 0-6 2-6 4v120c0 66 42 90 102 90s102-24 102-90V406h-38c-4 0-6 0-6 4zm572 30c2 0 4-2 6-4l10-28c2-2 0-4-2-4H588c-14 0-20 4-20 14v184c0 8 4 12 16 12h148c2 0 4 0 6-2l10-30c2-2 0-2-2-2H612v-38c0-12 6-18 26-18h58c4 0 6 0 6-2l12-28c0-2 0-2-2-2H612v-52zm-280 64c18-8 26-24 26-46 0-46-38-52-78-52h-88c-16 0-22 4-22 14v184c0 8 4 12 16 12h110c42 0 72-16 72-58 0-26-12-48-36-54zm-118-64h70c24 0 30 8 30 26s-6 26-30 26h-70zm78 142h-78v-40c0-12 6-18 26-18h52c24 0 32 10 32 28 0 20-8 30-32 30zm612 30l-48-82c24-6 42-22 42-60 0-52-30-64-84-64h-90c-14 0-20 4-20 14v190c0 4 2 6 6 6h38v-62c0-14 8-18 26-18h40l42 76c2 2 4 4 8 4h38c2 0 2-4 2-4zm-82-110h-74v-62h74c26 0 32 10 32 32 0 20-6 30-32 30z"/></svg>