<svg xmlns="http://www.w3.org/2000/svg" viewBox="0 0 1024 1024"><path d="M121.856 509.952c0-23.552 2.048-47.104 5.12-70.656 7.168-54.272 23.552-106.496 49.152-155.648 19.456-36.864 43.008-70.656 70.656-102.4 45.056-51.2 98.304-92.16 155.648-128 27.648-16.384 56.32-31.744 83.968-47.104 3.072-2.048 6.144-4.096 9.216-5.12 5.12-2.048 9.216-2.048 12.288 2.048 3.072 3.072 3.072 8.192 0 12.288-15.36 23.552-28.672 49.152-36.864 76.8-3.072 9.216-5.12 19.456-6.144 28.672 0 3.072 0 4.096 4.096 4.096a348.288 348.288 0 0 1 46.08-3.072c53.248 1.024 104.448 11.264 152.576 32.768C757.76 194.56 823.296 259.072 865.28 347.136c15.36 31.744 25.6 64.512 30.72 99.328 3.072 18.432 4.096 36.864 5.12 55.296 1.024 14.336 0 27.648 0 41.984-1.024 18.432-3.072 36.864-6.144 54.272-6.144 37.888-16.384 75.776-31.744 110.592-18.432 43.008-43.008 82.944-72.704 118.784-47.104 58.368-104.448 103.424-167.936 142.336-28.672 17.408-59.392 32.768-89.088 49.152l-6.144 3.072c-4.096 2.048-9.216 1.024-12.288-2.048s-3.072-7.168 0-11.264c6.144-9.216 11.264-17.408 16.384-27.648 11.264-20.48 20.48-41.984 25.6-64.512 1.024-5.12 2.048-10.24 2.048-14.336 0-3.072 0-4.096-3.072-3.072-9.216 1.024-19.456 2.048-28.672 2.048-9.216 1.024-18.432 1.024-26.624 0-9.216 0-17.408-1.024-26.624-2.048-21.504-2.048-41.984-6.144-62.464-11.264C332.8 866.304 267.264 824.32 215.04 761.856c-37.888-45.056-64.512-97.28-78.848-154.624-5.12-18.432-8.192-37.888-10.24-57.344-3.072-12.288-4.096-25.6-4.096-39.936zM512 659.456c79.872 1.024 146.432-65.536 147.456-145.408 1.024-81.92-66.56-147.456-146.432-148.48-80.896 0-147.456 66.56-147.456 146.432-1.024 80.896 65.536 147.456 146.432 147.456z"/></svg>