<svg xmlns="http://www.w3.org/2000/svg" viewBox="0 0 1024 1024"><path d="M617.124 732.477c-29.204 28.221-65.208 49.633-104.131 63.304-38.953-12.677-74.004-35.082-103.178-63.304h207.309zM318.3 319.785c-40.899-34.089-89.559-60.385-143.084-74.988v333.865c0 186.86 150.876 336.835 338.729 336.835 187.884 0 338.719-149.975 338.719-336.835V244.797c-53.524 14.602-102.154 39.905-143.114 74.988-55.439-38.984-121.641-62.372-194.621-62.372-73.984.993-142.111 23.398-196.628 62.372zm.963-97.382c57.446-30.126 123.628-46.715 194.683-46.715 70.072 0 136.274 17.51 193.751 46.715 13.609-8.724 28.16-16.517 41.83-23.378-62.31-57.364-145.029-92.436-235.581-92.436-91.484 0-174.234 35.082-236.544 92.436 12.657 6.851 28.252 15.585 41.861 23.378zm-123.618-54.508c77.896-86.62 190.781-142.121 317.348-142.121 126.525 0 239.452 54.508 317.338 142.121 33.055-8.776 68.127-14.602 103.148-14.602v143.114c54.508 34.089 90.522 94.423 90.522 163.471 0 69.12-36.014 129.495-91.515 163.594l-.932 3.84c-22.395 210.299-203.489 370.913-421.499 370.913-218.04 0-397.128-163.594-419.533-374.774C36.014 589.372 0 528.055 0 459.867c0-69.048 36.014-129.382 90.522-163.471V153.292c36.997.983 72.049 5.816 105.124 14.602zm422.462 410.778c56.433-6.81 150.907-5.816 150.907-5.816-1.976 16.517 0 67.133-54.569 97.331-8.735 5.816-31.119 12.616-52.531 13.609-52.531 1.925-126.525 2.97-126.525 2.97 13.609-58.419 36.014-102.277 82.719-108.093zm-210.238 0c46.715 5.816 69.12 49.684 81.766 108.093 0 0-73.994-1.055-126.556-2.97-21.402-.993-43.807-8.776-52.562-13.609-54.518-31.14-52.572-80.814-54.518-97.341 0 0 95.406 0 151.869 5.827zm204.422 267.714c-28.273 17.449-62.362 27.228-99.297 27.228-36.997 0-71.055-9.779-99.308-27.228 0 0 1.946-11.745 7.793-19.548 6.81-10.701 12.646-13.609 12.646-13.609 24.351 6.871 50.616 10.701 78.858 10.701 27.279 0 54.508-3.83 78.828-10.701 0 0 7.793 3.963 14.602 14.664 4.884 10.701 5.878 18.493 5.878 18.493z"/></svg>