<svg xmlns="http://www.w3.org/2000/svg" viewBox="0 0 1024 1024"><path d="M768 179.2L512 311.296l-257.024-133.12C169.984 222.208 84.992 267.264 0 310.272v269.312C171.008 667.648 340.992 756.736 512 844.8c171.008-88.064 342.016-177.152 512-265.216V311.296c-84.992-44.032-171.008-88.064-256-132.096zM12.288 325.632l235.52 121.856-235.52 121.856V325.632zm236.544 369.664L24.576 578.56l224.256-116.736v233.472zm0-269.312v7.168L19.456 315.392l229.376-118.784v229.376zM768 432.128V193.536c68.608 44.032 137.216 88.064 206.848 132.096L768 434.176v-2.048zm-505.856-6.144V196.608l235.52 121.856-235.52 122.88h-1.024v-15.36zm0 32.768v-3.072h1.024l231.424 120.832L262.144 696.32V458.752zm243.712 368.64l-235.52-121.856 235.52-121.856v243.712zm2.048-259.072L276.48 448.512 512 326.656l232.448 119.808L507.904 568.32zm247.808-106.496v242.688l-237.568 122.88V577.536l237.568-122.88v7.168zm0-30.72v6.144l-230.4-118.784 229.376-119.808v232.448zM768 698.368V459.776l230.4 119.808L768 698.368zm242.688-128L771.072 446.464l239.616-124.928v248.832z"/></svg>