<svg xmlns="http://www.w3.org/2000/svg" viewBox="0 0 1024 1024"><path d="M112 40c-2-14 4-24 24-24 18 0 212 6 342 6C746 22 812 0 858 0c24 2 30 20 30 32s-12 36-12 68 8 64 8 94c0 28-24 36-38 36-12 0-20-4-20-28-2-46 32-112-296-112-166 0-170 20-170 72v254c0 28 8 36 30 36h238c46 0 94-24 100-90 2-34 10-36 28-36s32 14 30 46c-4 34-10 68-10 114 0 48 10 94 10 128s-46 42-54 4c-8-34-22-96-126-96H394c-24 0-34 14-34 52v270c0 48 14 98 108 98 96 0 268 10 348-52 32-26 44-66 54-130 6-28 70-28 66 40-2 32-32 98-32 142 0 34 8 84-24 84-28 0-16-16-140-16s-550 4-622 4c-26 0-32-8-32-24s10-28 32-28 118 0 118-120V212c0-64-14-130-94-138-32-4-30-16-30-34z"/></svg>