<svg xmlns="http://www.w3.org/2000/svg" viewBox="0 0 1024 1024"><path d="M0 829.44V332.8c1.024-2.048 0-3.072 1.024-5.12 3.072-31.744 16.384-59.392 38.912-81.92 26.624-27.648 59.392-41.984 97.28-41.984h116.736c2.048 0 3.072-1.024 4.096-3.072 7.168-21.504 15.36-43.008 22.528-64.512 6.144-20.48 18.432-35.84 34.816-48.128 18.432-13.312 37.888-21.504 60.416-21.504h273.408c4.096 0 8.192 0 11.264 1.024 18.432 3.072 35.84 10.24 50.176 21.504 16.384 12.288 27.648 27.648 33.792 47.104 7.168 22.528 15.36 45.056 22.528 68.608 1.024 2.048 2.048 3.072 4.096 3.072H885.76c15.36 0 30.72 2.048 45.056 7.168 50.176 18.432 80.896 54.272 91.136 106.496 1.024 5.12 1.024 10.24 2.048 15.36v493.568c-1.024 5.12-1.024 10.24-2.048 15.36-11.264 65.536-69.632 113.664-136.192 113.664H138.24c-18.432 0-36.864-3.072-54.272-10.24-45.056-20.48-72.704-54.272-81.92-103.424C1.024 839.68 1.024 834.56 0 829.44zm268.288-245.76c0 132.096 107.52 240.64 239.616 239.616 133.12-1.024 240.64-106.496 240.64-239.616S642.048 344.064 508.928 344.064c-131.072 0-240.64 108.544-240.64 239.616zm242.688-156.672c26.624 1.024 53.248 8.192 77.824 22.528 35.84 21.504 60.416 52.224 71.68 92.16 17.408 62.464-8.192 129.024-61.44 165.888-28.672 19.456-60.416 28.672-95.232 26.624-70.656-3.072-130.048-56.32-142.336-125.952-15.36-81.92 37.888-161.792 119.808-178.176 9.216-2.048 19.456-3.072 29.696-3.072z"/></svg>