<svg xmlns="http://www.w3.org/2000/svg" viewBox="0 0 1024 1024"><path d="M320 532c42-18 60-92 222-128 0-26-84-304-258-390C104-68 76 232 152 362c6 24 126 186 168 170zm154-350c40 72 56 140 62 144s40 34 42 30c10-34 14-54 16-62C522-76 364 40 364 40s68 68 110 142zm328 102c-6-4-12-6-20-10l2-2 82 22s14 2 16-14c4-14-6-22-6-22s-76-20-84-22c-16-4-44 6-62 14-2-2-4-2-6-2-4-8-20-46-12-50 6-4 104-8 104-8s14-8 12-24c0-14-20-16-20-16s-116 8-122 8c-26 4-14 36-14 36l12 50c-22 0-42 12-56 36-36 58-22 174 48 216s192 54 226-4-30-164-100-208zm40 152c-22 18-68 2-98-36-32-38-40-84-16-104 22-18 68-2 98 36 32 38 40 84 16 104zM242 792s-34 92 22 226c186 24 252-52 252-52s-110-42-160-76c-48-30-114-98-114-98zm98-236s-88 54-90 162c0 10 90 136 324 212 60-26 72-166 72-166s-118-58-172-88c-54-28-134-120-134-120zm230-116c-126 18-170 88-170 88s88 118 234 166c2-2-2-132 4-146 8-12 28-20 28-20s-32-24-52-46c-24-22-12-44-44-42z"/></svg>