<svg xmlns="http://www.w3.org/2000/svg" viewBox="0 0 1024 1024"><path d="M510 4C228 4-2 234-2 516s230 512 512 512c284 0 512-230 512-512S794 4 510 4zm340 236c60 74 98 168 98 272-14-4-158-32-304-14-4-8-6-16-10-22-8-22-18-44-28-64 160-66 234-160 244-172zM510 78c112 0 214 42 290 110-6 12-72 100-228 158-72-130-152-238-164-256 34-8 68-12 102-12zm-184 42c10 16 88 124 162 254-206 54-386 52-406 52 30-136 120-248 244-306zM74 516v-14c18 2 230 4 450-62 12 24 24 50 34 74-6 2-10 4-16 6-226 72-346 272-356 288-70-78-112-180-112-292zm436 438c-100 0-194-36-268-92 8-18 96-188 344-274 0 0 2 0 2-2 62 160 88 294 94 332-52 22-110 36-172 36zm246-76c-6-26-28-154-86-312 138-22 258 14 272 20-18 122-88 226-186 292z"/></svg>