<svg xmlns="http://www.w3.org/2000/svg" viewBox="0 0 1024 1024"><path d="M657.408 456.704c10.24 0 21.504 3.072 28.672 8.192 26.624 13.312 55.296 10.24 78.848-3.072 41.984-21.504 55.296-73.728 31.744-113.664-21.504-41.984-73.728-55.296-113.664-31.744-23.552 13.312-39.936 36.864-41.984 65.536 0 10.24-3.072 21.504-8.192 28.672-15.36 26.624-50.176 36.864-76.8 21.504s-36.864-50.176-21.504-76.8c5.12-8.192 13.312-15.36 21.504-21.504 23.552-15.36 36.864-39.936 36.864-68.608 0-47.104-39.936-83.968-83.968-83.968-47.104 0-83.968 39.936-83.968 83.968 0 26.624 13.312 53.248 36.864 68.608 8.192 5.12 15.36 13.312 21.504 21.504 13.312 26.624 5.12 60.416-21.504 76.8s-60.416 5.12-76.8-21.504c-5.12-8.192-8.192-18.432-8.192-28.672-3.072-26.624-18.432-53.248-41.984-65.536-39.936-21.504-90.112-8.192-113.664 31.744-21.504 39.936-8.192 90.112 31.744 113.664 23.552 13.312 55.296 15.36 78.848 3.072 8.192-5.12 18.432-8.192 28.672-8.192 28.672 0 55.296 23.552 55.296 55.296 0 28.672-23.552 55.296-55.296 55.296-10.24 0-21.504-3.072-28.672-8.192-26.624-13.312-55.296-10.24-78.848 3.072-41.984 21.504-55.296 73.728-31.744 113.664 21.504 41.984 73.728 55.296 113.664 31.744 23.552-13.312 39.936-36.864 41.984-65.536 0-10.24 3.072-21.504 8.192-28.672 15.36-26.624 50.176-36.864 76.8-21.504s36.864 50.176 21.504 76.8c-5.12 8.192-13.312 15.36-21.504 21.504-23.552 15.36-36.864 39.936-36.864 68.608 0 47.104 39.936 83.968 83.968 83.968 47.104 0 83.968-39.936 83.968-83.968 0-26.624-13.312-53.248-36.864-68.608-8.192-5.12-15.36-13.312-21.504-21.504-13.312-26.624-5.12-60.416 21.504-76.8 26.624-15.36 60.416-5.12 76.8 21.504 5.12 8.192 8.192 18.432 8.192 28.672 3.072 26.624 18.432 53.248 41.984 65.536 39.936 21.504 90.112 8.192 113.664-31.744 21.504-39.936 8.192-90.112-31.744-113.664-23.552-13.312-55.296-15.36-78.848-3.072-8.192 5.12-18.432 8.192-28.672 8.192-28.672 0-55.296-26.624-55.296-55.296s23.552-55.296 55.296-55.296zM960.512 512c41.984-78.848 41.984-174.08-5.12-256-45.056-78.848-129.024-129.024-219.136-132.096C689.152 47.104 604.16 0 512 0S334.848 47.104 287.744 123.904C197.632 126.976 113.664 177.152 68.608 256c-47.104 78.848-47.104 177.152-5.12 256-10.24 18.432-15.36 36.864-21.504 55.296C23.552 635.904 34.816 707.584 68.608 768c45.056 78.848 129.024 129.024 219.136 132.096C334.848 976.896 419.84 1024 512 1024s177.152-47.104 224.256-123.904c90.112-3.072 174.08-53.248 219.136-132.096 34.816-60.416 45.056-132.096 26.624-200.704-5.12-18.432-13.312-36.864-21.504-55.296zm-68.608 78.848c13.312 45.056 5.12 90.112-13.312 132.096-31.744 53.248-87.04 87.04-150.528 87.04-13.312 0-28.672 0-45.056-5.12-21.504 73.728-87.04 129.024-168.96 129.024s-150.528-55.296-168.96-129.024a201.877 201.877 0 0 1-45.056 5.12c-60.416 0-118.784-34.816-150.528-87.04-23.552-39.936-31.744-87.04-18.432-132.096 8.192-31.744 23.552-58.368 45.056-78.848-55.296-55.296-68.608-140.288-28.672-210.944 31.744-53.248 87.04-87.04 150.528-87.04 13.312 0 28.672 0 45.056 5.12C364.544 145.408 430.08 90.112 512 90.112s150.528 55.296 168.96 129.024a201.877 201.877 0 0 1 45.056-5.12c60.416 0 118.784 34.816 150.528 87.04 39.936 71.68 26.624 155.648-28.672 210.944 20.48 21.504 35.84 47.104 44.032 78.848z"/></svg>