<svg xmlns="http://www.w3.org/2000/svg" viewBox="0 0 1024 1024"><path d="M512 0C230 0 0 230 0 512s230 512 512 512 512-230 512-512S794 0 512 0zM52 512c0-66 14-130 40-188l220 602C158 852 52 694 52 512zm460 460c-46 0-88-6-130-18l138-402 142 388c0 2 2 4 2 6-46 18-98 26-152 26zm64-676c28-2 52-4 52-4 24-4 22-40-2-38 0 0-76 6-124 6-44 0-120-6-120-6-26-2-28 36-4 38l48 4 72 196-100 302-168-498c28-2 52-4 52-4 26-4 22-40-2-38 0 0-74 6-122 6h-30C210 134 352 52 512 52c120 0 228 46 310 120h-6c-44 0-76 40-76 82 0 38 22 70 44 108 18 30 38 70 38 126 0 40-14 86-34 150l-46 152zm168 614l140-406c26-66 36-118 36-166 0-16-2-32-4-46 36 64 56 140 56 220 0 170-92 318-228 398z"/></svg>