<svg xmlns="http://www.w3.org/2000/svg" viewBox="0 0 1024 1024"><path d="M874 148C778 52 650 0 514 0 234 0 6 228 6 508c0 88 24 176 68 254L2 1024l270-70c74 40 156 62 242 62 280 0 508-228 508-508 0-136-52-264-148-360zM514 930c-76 0-150-20-214-60l-16-8-160 42 42-156-10-16c-42-68-64-144-64-224C92 274 282 86 514 86c112 0 218 44 298 124s124 186 124 298c0 232-190 422-422 422zm232-316c-14-6-76-38-88-42-10-4-20-6-28 6-8 14-32 42-40 50s-14 10-28 4c-12-6-52-20-102-64-36-32-62-74-70-88-8-12 0-18 6-26 6-4 12-14 18-22 8-6 10-12 14-20s2-16-2-22c-2-6-28-70-38-94-12-26-22-22-30-22h-24c-8 0-22 2-34 14-12 14-44 44-44 106 0 64 46 124 52 132s90 136 216 192c30 12 54 20 72 26 32 10 58 8 80 6 26-4 76-32 86-62 12-28 12-54 8-60-4-4-12-8-24-14z"/></svg>