<svg xmlns="http://www.w3.org/2000/svg" viewBox="0 0 1024 1024"><path d="M806.912 808.847c-3.021 0-3.021 0 0 0-47.288-185.211-239.575-166.083-270.766-291.901-21.125-88.576 36.239-156.006 124.805-177.172 52.357-13.066 103.68 0 142.94 34.232 5.028 5.038 13.087 10.066 18.135 18.135 0 3.021 3 3.021 3 5.038l3.031 3.021 3.021 3c8.059 10.066 13.066 18.135 21.125 16.128 5.038-3.021 10.076-16.128 10.076-23.163 5.028-41.277 3.021-83.538-8.069-127.836C806.911 78.08 617.666-36.659 427.427 10.639 237.188 57.968 122.449 247.183 169.748 437.422c62.403 254.659 301.978 296.95 429.814 361.359 28.18 13.087 49.306 39.26 57.375 70.461 13.097 57.375-21.125 114.77-78.5 127.836h-5.038c-10.066 3-13.087 0-13.087 5.028 0 3 8.059 8.038 13.087 10.066 31.212 13.066 67.441 16.097 103.68 5.038 93.604-20.132 149.975-113.746 129.833-208.364z"/></svg>