<svg xmlns="http://www.w3.org/2000/svg" viewBox="0 0 1024 1024"><path d="M865.28 257.024h87.04c7.168-52.224 14.336-104.448 20.48-156.672v-9.216c-1.024-12.288-10.24-22.528-21.504-25.6V32.768c0-5.12-1.024-10.24-3.072-14.336C944.128 7.168 931.84 0 919.552 0h-337.92c-5.12 0-11.264 0-16.384 2.048-11.264 5.12-19.456 16.384-19.456 29.696v33.792c-10.24 4.096-18.432 12.288-20.48 23.552-1.024 5.12-1.024 10.24 0 14.336 7.168 51.2 14.336 102.4 20.48 152.576h120.832v-11.264c12.288 0 24.576 1.024 35.84-4.096 9.216-4.096 16.384-13.312 17.408-22.528s0-20.48-5.12-27.648c-4.096-6.144-12.288-10.24-19.456-11.264-10.24-1.024-21.504 0-29.696 6.144s-13.312 16.384-12.288 26.624H629.76c0-4.096 0-8.192 2.048-12.288 3.072-11.264 9.216-20.48 18.432-26.624 10.24-7.168 22.528-11.264 34.816-12.288 12.288 0 25.6 2.048 35.84 8.192 8.192 5.12 15.36 13.312 19.456 22.528s5.12 19.456 4.096 29.696c-2.048 15.36-14.336 28.672-28.672 34.816 2.048 1.024 4.096 1.024 6.144 2.048s3.072 0 5.12 0h101.376-103.424c6.144 3.072 11.264 7.168 15.36 12.288 7.168 9.216 10.24 20.48 9.216 31.744-1.024 12.288-5.12 23.552-12.288 32.768-8.192 10.24-21.504 15.36-33.792 17.408-13.312 2.048-26.624 1.024-38.912-4.096-10.24-4.096-18.432-10.24-24.576-19.456-5.12-8.192-8.192-18.432-8.192-27.648h22.528c0 4.096 1.024 7.168 2.048 11.264 2.048 8.192 9.216 15.36 16.384 18.432 10.24 4.096 21.504 5.12 32.768 1.024 8.192-2.048 16.384-9.216 19.456-17.408 3.072-9.216 4.096-19.456 1.024-28.672-3.072-8.192-9.216-15.36-17.408-18.432-12.288-5.12-25.6-3.072-37.888-4.096V256H550.912c-3.072 48.128-6.144 97.28-10.24 145.408 0 7.168-2.048 15.36 0 22.528 3.072 10.24 11.264 19.456 21.504 22.528 4.096 1.024 9.216 1.024 14.336 1.024h351.232c6.144 0 12.288 0 17.408-1.024 10.24-3.072 18.432-11.264 21.504-21.504 2.048-6.144 1.024-11.264 1.024-17.408-3.072-50.176-7.168-100.352-10.24-151.552H857.088c-1.024 1.024 3.072 1.024 8.192 1.024zm-14.336 0v96.256h-23.552v-96.256-66.56c-16.384 5.12-31.744 11.264-48.128 16.384v-21.504c22.528-8.192 44.032-15.36 66.56-23.552 2.048-1.024 4.096-1.024 6.144-1.024-1.024 31.744-1.024 63.488-1.024 96.256zm74.752 274.432H570.368c-8.192 0-21.504-1.024-35.84-5.12-30.72-9.216-56.32-31.744-69.632-60.416l-4.096-4.096-4.096-14.336c-5.12-19.456-4.096-35.84-3.072-44.032v-4.096c1.024-21.504 3.072-43.008 4.096-63.488 2.048-24.576 3.072-49.152 5.12-72.704-4.096-28.672-7.168-56.32-11.264-84.992l-6.144-43.008H152.576c-56.32 0-102.4 46.08-102.4 102.4V921.6c0 56.32 46.08 102.4 102.4 102.4h688.128c56.32 0 102.4-46.08 102.4-102.4V530.432c-5.12 1.024-10.24 1.024-14.336 1.024h-3.072zM320.512 929.792C214.016 929.792 128 844.8 128 738.304s86.016-192.512 192.512-192.512c50.176 0 94.208 19.456 128 50.176L394.24 650.24c-20.48-17.408-46.08-27.648-74.752-27.648-63.488 0-115.712 52.224-115.712 115.712S256 854.016 319.488 854.016c53.248 0 90.112-31.744 103.424-76.8h-102.4v-73.728h180.224c15.36 75.776-12.288 226.304-180.224 226.304z"/></svg>