<svg xmlns="http://www.w3.org/2000/svg" viewBox="0 0 1024 1024"><path d="M883.62 565.842c0-204.923-166.697-371.63-371.61-371.63-204.902 0-371.599 166.707-371.599 371.63 0 94.812 35.758 185.098 100.721 254.29l.01-.02c8.724 9.226 23.265 9.687 32.532.973l40.059-37.704c9.226-8.673 9.677-23.173 1.065-32.44l.031-.051c-47.258-50.34-73.298-116.091-73.298-185.047 0-149.135 121.324-270.49 270.469-270.49 149.125 0 270.479 121.344 270.479 270.49 0 68.956-26.02 134.707-73.308 185.047l.082.092c-8.602 9.277-8.12 23.747 1.096 32.399l40.069 37.704c9.257 8.724 23.828 8.264 32.543-.993l-.041-.02c64.952-69.181 100.7-159.457 100.7-254.228zM1024 564.06c0-50.637-7.578-100.567-22.579-148.5h.02c-.02-.041-.061-.082-.061-.123-.02-.041-.02-.072-.041-.154-3.901-11.94-16.681-18.616-28.744-14.879l-52.521 16.333c-12.145 3.758-18.924 16.63-15.165 28.764l-.061.041c11.919 38.195 18.033 78.08 18.033 118.528 0 71.444-19.343 141.496-55.921 202.639l.051.061c-6.431 10.875-2.888 24.945 7.987 31.457l47.176 28.293c10.895 6.543 25.006 3 31.58-7.895C999.711 741.794 1024 653.792 1024 564.059zM157.061 766.71c-36.577-61.133-55.91-131.195-55.91-202.639 0-40.458 6.083-80.312 18.022-118.508h.01v-.041c3.748-12.145-3.031-25.006-15.145-28.785l-52.552-16.374c-12.052-3.738-24.852 2.949-28.723 14.95l-.092-.051C7.639 463.298 0 513.341 0 564.07c0 89.713 24.32 177.725 70.257 254.546l.082-.031c6.564 10.793 20.613 14.295 31.498 7.782l47.165-28.293c10.844-6.502 14.377-20.47 8.038-31.355l.02-.01z"/></svg>