<svg xmlns="http://www.w3.org/2000/svg" viewBox="0 0 1024 1024"><path d="M706 572c2-36 6-72 10-108 2-28 6-58 10-86 4-32 8-66 12-100 2-10 4-20 4-32 0-2 2-4 4-4 36-10 72-20 106-30 4 0 4 0 6 4 12 58 22 116 34 176 10 40 16 76 24 116 0 0 0 2 2 2v-12c-2-40 0-80 2-120 2-26 2-54 4-80 2-34 4-68 4-102 0-4 2-6 6-6l84-24h4c0 10 0 18-2 28-2 22-4 44-6 68-2 30-4 60-8 92-2 28-4 54-6 82-4 30-6 62-8 94-2 20-4 42-6 62 0 2 0 4-2 4-38 12-74 20-112 30-2 2-4 0-4-2-18-74-34-146-50-220l-12-66c0-2 0-2-2-4 0 16-2 32-2 48-2 26-6 52-8 78-4 26-8 54-10 78-4 30-8 60-12 88-2 8-2 18-4 26 0 2-2 2-4 4-36 10-74 20-114 30-2 2-2 0-4-2l-24-138c-8-46-14-92-22-138-8-40-14-80-22-120 0-2 0-2 2-4 30-8 58-14 86-22 2-2 4 0 4 2l6 60c4 32 10 66 14 98 4 46 12 92 14 140 0 4 0 6 2 10 0 2-2 2 0 4v-4zm-522 76c-2-24-6-48-6-72-2-26-4-50-4-76-2-32-4-64-6-98 0-4 0-4 4-6 26-6 52-14 78-20 2-2 4-2 4 2 0 50 4 98 6 146 0 38 2 76 4 112 2 48 2 94 4 140 0 4 0 8 2 12 0 2 0 4-2 4-30 6-58 14-86 24-2 0-2-2-4-4-14-32-26-64-38-96-18-44-36-86-50-130-2 2-2 4 0 6 0 24 2 44 4 68 0 20 2 44 4 64 2 34 4 68 6 100 0 4 0 6 2 10 0 2-2 2-4 4-22 4-42 10-62 18-6 2-12 2-18 4-4 2-4 0-4-2 0-30-2-60-2-92-2-52-4-104-6-158 0-34-2-70-4-106 0-18 0-36-2-54 0-2 2-2 4-4 28-6 56-14 84-22 2-2 4 0 6 2l90 228v0c-4-2-4-4-4-4zm384-116c-2-38-2-74-4-112-2-16-4-32-8-48-10-30-28-50-60-56-16-2-34-2-50 0-28 4-54 12-80 24-28 16-46 36-52 68-4 18-4 34-4 52 0 40 2 82 2 122 2 24 2 44 2 68 2 14 4 30 8 46 8 28 28 48 56 56 16 2 30 4 44 2 32-4 62-12 88-26s42-32 52-58c4-14 6-30 6-44 2-32 0-62 0-94zm-96 114c-4 20-14 28-34 30h-10c-10-2-16-8-18-18-2-16-2-32-2-48v-76-106c0-22 20-38 42-34 8 2 16 10 18 20v24c4 56 4 112 6 168 0 12 2 26-2 40z"/></svg>