<svg xmlns="http://www.w3.org/2000/svg" viewBox="0 0 1024 1024"><path d="M361.533 289.7h-96.829l-84.9 114.493L96.829 289.7H0v389.663h102.083V443.771h.952l76.769 104.919 78.705-104.919h.993v235.581h102.042V289.7zm363.541 99.799H623.022v78.684H521.431c3.768-11.622 9.728-24.392 17.9-38.318 8.212-13.926 21.719-25.999 40.612-36.219 18.903-10.22 46.285-15.565 82.166-16.097h80.118l-23.818-87.757h-50.104c-36.721-.737-70.953 3.041-102.779 11.428-31.816 8.325-61.307 25.825-88.453 52.511-24.238 24.842-41.974 53.586-53.299 86.323-11.336 32.686-16.957 66.232-16.855 100.649.215 34.54 5.601 68.332 16.179 101.274 10.598 32.973 25.416 63.734 44.401 92.355l82.985-54.856c-11.387-18.688-20.664-38.431-27.761-59.259-7.107-20.818-10.875-42.25-11.325-64.256h111.606v123.515h102.052V389.5zM889.999 289.7H787.916v389.663h212.265l23.818-87.757H889.998V289.7z"/></svg>