<svg xmlns="http://www.w3.org/2000/svg" viewBox="0 0 1024 1024"><path d="M79.872 512V15.36C79.872 0 79.872 0 94.208 0h454.656c63.488 0 125.952 11.264 184.32 35.84 83.968 34.816 145.408 91.136 181.248 175.104 16.384 37.888 24.576 77.824 27.648 118.784 4.096 47.104 1.024 94.208-8.192 140.288-16.384 78.848-54.272 145.408-114.688 198.656-40.96 35.84-88.064 59.392-138.24 76.8-54.272 17.408-109.568 26.624-166.912 29.696-32.768 2.048-64.512 1.024-97.28 1.024-12.288 0-12.288 0-12.288 12.288v183.296c0 15.36-4.096 28.672-15.36 38.912-8.192 8.192-18.432 12.288-30.72 12.288H92.16c-12.288 0-12.288 0-12.288-12.288V512z"/></svg>