<svg xmlns="http://www.w3.org/2000/svg" viewBox="0 0 1024 1024"><path d="M892.928 854.016C974.848 762.88 1024 643.072 1024 512 1024 229.376 794.624 0 512 0S0 229.376 0 512s229.376 512 512 512c132.096 0 251.904-50.176 343.04-131.072l33.792 32.768c5.12 5.12 12.288 8.192 19.456 8.192s13.312-3.072 19.456-8.192c10.24-10.24 10.24-27.648 0-37.888l-34.816-33.792zM512 965.632C261.12 965.632 58.368 762.88 58.368 512S261.12 58.368 512 58.368 965.632 261.12 965.632 512c0 115.712-43.008 221.184-114.688 301.056L737.28 700.416c-10.24-10.24-27.648-10.24-37.888 0s-10.24 27.648 0 37.888l113.664 113.664C733.184 922.624 627.712 965.632 512 965.632z"/></svg>