<svg xmlns="http://www.w3.org/2000/svg" viewBox="0 0 1024 1024"><path d="M512 706zM238 502c2-14 6-28 8-42 4-14 2-30 2-44v-78-116c-8 0-18 2-24 4-24 8-44 14-62 24C88 286 32 350 8 438c-22 82 0 170 34 224 8 12 18 30 28 38 10 0 18-8 24-14 14-8 28-18 40-28 6-4 10-10 16-14 40-34 68-86 88-142zm274 204zm-194-58c-6-12-10-24-16-36l-6-18c-6 12-12 22-18 32-10 20-22 38-34 54-18 22-36 44-56 60-10 10-22 18-32 28v2c6 2 12 6 18 8 14 6 28 12 42 16 52 14 116 10 164-4 12-4 40-12 48-20-12-6-22-16-32-24-30-28-56-60-78-98zm696-210c-22-90-78-152-152-190-18-8-38-16-62-22-6-2-16-4-24-4 0 38 0 76-2 116v76c0 16 0 32 2 46 4 14 8 28 10 42 20 56 48 108 88 142 6 4 10 8 16 14 12 10 26 20 40 28 6 4 14 14 24 14 10-8 20-26 28-38 34-54 56-142 32-224zM780 680c-12-16-24-34-34-54-6-10-12-20-18-32l-6 18c-6 12-10 24-16 36-22 38-48 70-78 96-10 10-20 20-32 26 8 8 36 16 48 20 48 14 112 18 164 4 14-4 28-10 42-16 6-2 12-6 18-8v-2c-10-10-22-18-32-28-20-16-38-38-56-60zM676 506c4-12 6-26 8-40 4-12 2-30 2-46v-86-112h-4c-12 2-20 2-38 8-22 6-44 18-62 28-20 10-34 26-50 38-6 4-14 12-20 20s0 2 0 2c8 10 16 20 22 30 16 22 30 48 38 78 20 68 12 154-14 208-10 18-18 34-30 48-4 8-10 14-16 22s0 0 0 2h2c24-14 44-38 64-54 14-10 24-24 34-36 26-32 48-66 64-110zM512 704c-6-8-12-14-16-22-12-14-22-30-30-48-26-54-36-140-14-210 8-28 22-54 36-76l24-30v-2c-6-8-14-16-20-20-16-12-32-28-50-38s-40-22-62-28c-18-6-26-6-38-8h-4v198c0 16-2 34 2 46 2 14 4 28 8 40 16 44 38 78 64 110 10 12 20 26 34 36 20 16 40 40 64 54h2v-2z"/></svg>