<svg xmlns="http://www.w3.org/2000/svg" viewBox="0 0 1024 1024"><path d="M936 814c-6 0-12-2-18-6-16-10-20-32-10-48 32-46 48-102 48-158 0-58-16-112-48-158-10-16-6-38 10-48 14-10 36-6 46 10 40 58 60 126 60 196s-20 138-60 196c-6 10-16 16-28 16zm-98-56c-6 0-12-2-18-6-16-10-20-32-10-46 22-32 32-68 32-104 0-38-10-72-32-104-10-16-6-36 10-46 16-12 36-8 46 8 30 42 44 92 44 142s-14 100-44 142c-6 10-16 14-28 14zM680 454c-14-136-130-244-270-244-116 0-218 74-256 184C68 406 0 482 0 572c0 100 82 182 182 182h464c84 0 152-68 152-152 0-72-50-134-118-148zm-34 232H182c-62 0-114-52-114-114s52-112 114-112c30 0 58 10 80 32 14 14 34 14 48 0 14-12 14-34 0-48-24-24-52-40-84-48 32-70 104-118 184-118 112 0 202 90 202 202 0 22-2 44-10 64-6 18 4 36 22 42 4 2 8 2 10 2 16 0 28-8 34-24 4-12 8-26 10-40 30 12 52 42 52 78 0 46-36 84-84 84z"/></svg>