<svg xmlns="http://www.w3.org/2000/svg" viewBox="0 0 1024 1024"><path d="M262.093 0C108.657 0 27.638 91.382 27.638 251.709v520.612c0 160.317 79.309 249.969 234.455 251.679 153.426 0 234.455-91.361 234.455-251.679V489.595c0-20.695-15.524-36.219-36.209-36.219H312.064c-18.944 0-34.458 15.524-39.629 37.929v70.707c0 20.695 15.524 36.168 36.168 36.168 20.695 0 36.209 15.514 36.209 36.209v148.265c0 72.376-31.037 98.253-81.009 98.253-49.981 0-81.019-27.566-81.019-98.253V243.088c0-72.428 32.748-82.77 82.77-82.77 49.981 0 81.009 12.083 81.009 82.77v70.666c0 20.695 15.524 36.209 36.168 36.209h77.599c20.695 0 36.209-15.524 36.209-36.209V251.7C496.549 91.362 417.24.001 262.094.001zM942.92 8.028H622.285c-22.436 0-39.68 18.964-39.68 41.37V954.46c0 29.317 24.156 53.443 53.443 53.443h48.282c29.317 0 53.443-24.115 53.443-53.443V649.339c0-29.338 24.136-53.443 53.443-53.443h93.102c29.297 0 53.443-24.156 53.443-53.494v-34.458c0-29.286-24.136-53.443-53.443-53.443h-93.102c-30.996 0-55.163-25.866-51.702-58.614V202.832c0-29.307 24.156-53.443 53.443-53.443h149.975c29.276 0 53.443-24.136 53.443-53.443V61.468c-.01-29.307-24.177-53.443-53.453-53.443z"/></svg>