<svg xmlns="http://www.w3.org/2000/svg" viewBox="0 0 1024 1024"><path d="M888 112C818 62 742 26 644 10v464l140-194h152L760 524s40 64 64 102c24 40 48 50 84 50h24v120h-36c-76 0-124-14-158-68-22-34-94-146-94-146v212H518V0h-6C348 0 234 40 136 112-6 220 0 360 0 512s-6 292 136 400c98 74 212 112 376 112s278-40 376-112c142-108 136-248 136-400s6-292-136-400zM280 802c-80 0-144-14-198-68l82-82c26 26 74 36 116 36 50 0 74-16 74-46 0-12-4-22-10-30-8-6-18-12-34-14l-64-8c-46-6-80-22-102-46-24-24-36-60-36-104 0-94 70-164 188-164 74 0 130 18 174 62l-80 80c-32-32-76-30-98-30-44 0-62 24-62 48 0 6 2 16 10 22 6 6 18 14 36 16l62 10c46 6 80 20 102 42 26 26 38 66 38 114 2 104-90 162-198 162z"/></svg>