<svg xmlns="http://www.w3.org/2000/svg" viewBox="0 0 1024 1024"><path d="M417.792 267.264c11.264-11.264 25.6-17.408 41.984-17.408h347.136V17.408c0-12.288-10.24-20.48-22.528-17.408L239.616 117.76c-12.288 2.048-21.504 13.312-22.528 25.6v739.328c1.024 11.264 10.24 22.528 22.528 25.6l543.744 117.76c12.288 3.072 22.528-5.12 22.528-17.408V345.088H515.072v118.784h219.136v37.888c0 16.384-6.144 29.696-17.408 40.96s-25.6 17.408-41.984 17.408H515.072v244.736H400.384v-496.64c0-15.36 6.144-29.696 17.408-40.96z"/></svg>