<svg xmlns="http://www.w3.org/2000/svg" viewBox="0 0 1024 1024"><path d="M1024 359.424c-4.096-122.88-106.496-220.16-229.376-221.184H228.352c-21.504 0-43.008 2.048-63.488 8.192-107.52 30.72-174.08 133.12-163.84 252.928 8.192 96.256 97.28 192.512 193.536 198.656 46.08 3.072 65.536 21.504 78.848 62.464 25.6 74.752 55.296 148.48 84.992 225.28 16.384-12.288 18.432-26.624 22.528-37.888 24.576-64.512 50.176-128 71.68-193.536 12.288-37.888 30.72-53.248 72.704-52.224 93.184 3.072 187.392 2.048 281.6-2.048 128-6.144 221.184-112.64 217.088-240.64zM783.36 494.592a19039.179 19039.179 0 0 1-342.016 0c-25.6 0-38.912 5.12-44.032 32.768-8.192 43.008-21.504 84.992-34.816 137.216-12.288-51.2-24.576-93.184-32.768-136.192-5.12-25.6-16.384-35.84-43.008-33.792-29.696 2.048-59.392 3.072-88.064-5.12-56.32-16.384-93.184-65.536-90.112-124.928s43.008-105.472 101.376-115.712c13.312-2.048 25.6-4.096 38.912-4.096h523.264c55.296 0 102.4 18.432 129.024 71.68 40.96 83.968-19.456 177.152-117.76 178.176z"/></svg>