<svg xmlns="http://www.w3.org/2000/svg" viewBox="0 0 1024 1024"><path d="M801.874 235.264c-6.697-54.589-27.474-103.322-63.037-144.876C700.335 45.393 655.361 9.42 594.238 0h-50.401c-5.417 6.39-4.198 14.162-4.209 21.545-.102 67.052.113 134.103-.123 201.155-.154 40.94 4.792 35.226-36.116 35.625-21.412.215-21.586-.113-21.606-21.074-.041-71.895.031-143.8-.072-215.706 0-7.383 1.208-15.155-4.198-21.545h-47.759c-10.875 3.236-22.344 3-33.239 7.26-26.726 10.445-49.92 26.501-72.161 43.909-35.799 28.017-61.737 64.102-80.507 105.196-14.213 31.109-21.043 64.256-23.665 98.304v47.749c3.195 6.216 1.208 12.995 1.935 19.476 7.629 67.932 37.376 125.297 87.265 170.639 19.405 17.633 24.3 35.195 24.105 59.484-.942 121.836-.666 243.702-.297 365.548.113 39.301 13.158 72.325 48.517 94.239 14.285 8.847 30.167 8.55 45.394 12.186h172.431c3.482-2.601 7.741-1.659 11.52-1.946 27.597-2.14 47.841-16.159 63.662-37.96 14.725-20.275 18.668-43.704 18.719-67.748.297-128.911.236-257.823-.02-386.734-.02-11.971 3.656-20.316 12.902-28.508 38.298-33.976 66.806-74.813 83.343-123.72 8.243-24.402 11.684-49.551 14.162-74.957v-47.749c-3.297-6.164-1.157-12.943-1.946-19.405zM629.555 467.63c-3.226 2.14-7.363 3.205-9.277 7.096l.061 40.038c.143 75.069.328 150.149.42 225.219.061 60.518.02 121.027 0 181.545-.01 22.149-10.803 33.331-33.198 33.434-49.459.215-98.939.215-148.398 0-22.344-.102-33.26-11.366-33.27-33.434-.02-132.065-.01-264.131.01-396.186 0-3.533.266-7.045.41-10.568a52427.34 52427.34 0 0 0-.44-39.895c-55.439-32.43-93.409-78.418-109.711-141.261C267.47 223.026 330.589 103.925 437.72 69.129V267.549c0 25.139 3.625 28.692 29.225 28.703 31.365 0 62.73.061 94.116-.031 18.78-.051 22.559-3.84 22.559-22.262.02-64.952.236-129.905-.215-194.847-.082-11.008 3-11.336 11.684-7.465 82.381 36.772 131.441 99.451 138.568 189.481 6.984 88.289-29.952 157.512-104.1 206.5z"/></svg>