<svg xmlns="http://www.w3.org/2000/svg" viewBox="0 0 1024 1024"><path d="M512 0C229.376 0 0 229.376 0 512s229.376 512 512 512 512-229.376 512-512S794.624 0 512 0zm108.544 192.512c18.432-31.744 58.368-43.008 90.112-24.576s43.008 58.368 24.576 90.112c-18.432 30.72-59.392 41.984-90.112 24.576-31.744-18.432-43.008-58.368-24.576-90.112zm-440.32 385.024c-36.864 0-65.536-29.696-65.536-65.536 0-36.864 29.696-65.536 65.536-65.536 36.864 0 65.536 28.672 65.536 65.536s-29.696 65.536-65.536 65.536zm58.368 6.144c21.504-16.384 34.816-41.984 34.816-71.68 0-28.672-13.312-54.272-34.816-71.68C256 371.712 299.008 314.368 355.328 276.48l49.152 81.92c-48.128 33.792-79.872 90.112-79.872 153.6s30.72 119.808 79.872 153.6l-49.152 81.92c-56.32-37.888-99.328-95.232-116.736-163.84zm472.064 273.408c-31.744 17.408-71.68 7.168-90.112-24.576s-7.168-71.68 24.576-90.112c30.72-18.432 71.68-7.168 90.112 24.576 17.408 31.744 7.168 71.68-24.576 90.112zm1.024-144.384c-25.6-10.24-54.272-8.192-79.872 6.144s-40.96 38.912-45.056 65.536c-24.576 7.168-49.152 10.24-74.752 10.24-44.032 0-87.04-11.264-124.928-29.696l46.08-82.944c23.552 11.264 50.176 17.408 78.848 17.408 98.304 0 178.176-74.752 187.392-169.984l95.232 1.024c-4.096 70.656-35.84 135.168-82.944 182.272zm-12.288-217.088C690.176 399.36 610.304 324.608 512 324.608c-28.672 0-55.296 6.144-78.848 18.432l-46.08-82.944C423.936 240.64 466.944 230.4 512 230.4c26.624 0 51.2 4.096 74.752 10.24 4.096 26.624 19.456 51.2 45.056 65.536s54.272 16.384 79.872 6.144c47.104 47.104 78.848 110.592 82.944 182.272l-95.232 1.024z"/></svg>