<svg xmlns="http://www.w3.org/2000/svg" viewBox="0 0 1024 1024"><path d="M1014 358c-20-86-70-154-138-210C770 62 648 26 512 24c-46 0-92 4-136 14-112 26-210 78-284 164C36 268 4 344 0 430c-2 88 26 166 82 236 78 96 180 150 298 176 24 4 46 8 68 14s28 16 28 38c0 12-2 20-2 30-2 16-8 32-8 48-2 24 8 34 32 26 16-6 32-12 46-22 78-44 154-96 228-152 64-48 126-102 174-168 68-88 94-188 68-298zM332 560c0 4-4 10-10 10H180c-4 0-6-2-8-4s-4-4-4-6V336c0-6 6-10 12-10h36c4 0 10 4 10 10v178h96c6 0 10 4 10 10zm88 0c0 4-4 10-10 10h-36c-6 0-10-4-10-10V336c0-6 4-10 10-10h36c4 0 10 4 10 10zm246 0c0 4-4 10-10 10h-38-2l-2-2-104-138v132c0 4-4 10-10 10h-36c-4 0-10-4-10-10V336c0-6 4-10 10-10h46v2l104 136V336c0-6 4-10 10-10h36c4 0 10 4 10 10v224zm198-188c0 4-4 10-10 10h-98v38h98c6 0 10 4 10 10v36c0 6-4 10-10 10h-98v38h98c6 0 10 4 10 10v36c0 6-4 10-10 10H710c-2 0-4 0-6-2s-4-4-4-8V336c0-2 2-4 4-6s4-4 6-4h144c6 0 10 4 10 10z"/></svg>