<svg xmlns="http://www.w3.org/2000/svg" viewBox="0 0 1024 1024"><path d="M889.856 580.608V326.656c0-13.312-3.072-16.384-16.384-16.384H403.456c-13.312 0-31.744 6.144-39.936-3.072-7.168-8.192-2.048-25.6-2.048-38.912 0-44.032 28.672-72.704 72.704-72.704h68.608c9.216 0 13.312-2.048 13.312-12.288a3738.667 3738.667 0 0 1 0-151.552c0-11.264-4.096-13.312-13.312-13.312-41.984 1.024-83.968 0-125.952 1.024-51.2 1.024-98.304 14.336-141.312 40.96-67.584 43.008-108.544 101.376-104.448 185.344 1.024 17.408 0 34.816 0 53.248 0 9.216-3.072 12.288-12.288 12.288H45.056c-11.264 0-14.336 4.096-14.336 14.336a3064.875 3064.875 0 0 1 0 137.216c0 11.264 4.096 14.336 15.36 14.336 23.552-1.024 48.128 0 71.68 0 10.24 0 13.312 3.072 13.312 13.312-1.024 115.712-1.024 232.448-1.024 348.16 0 12.288-4.096 14.336-15.36 14.336-23.552-1.024-47.104 0-70.656 0-11.264 0-14.336 4.096-14.336 14.336 0 48.128 1.024 96.256 0 143.36 0 11.264 3.072 14.336 14.336 14.336H445.44c10.24 0 14.336-2.048 14.336-13.312-1.024-48.128-1.024-96.256 0-143.36 0-11.264-4.096-14.336-14.336-14.336-23.552 1.024-48.128 0-71.68 0-9.216 0-13.312-3.072-13.312-12.288v-353.28c0-9.216 3.072-11.264 12.288-11.264h274.432c10.24 0 12.288 4.096 12.288 13.312v351.232c0 9.216-3.072 13.312-13.312 13.312-23.552-1.024-48.128 0-71.68 0-10.24 0-13.312 3.072-12.288 13.312v145.408c0 10.24 3.072 12.288 12.288 12.288h404.48c9.216 0 11.264-3.072 11.264-12.288V866.304c0-9.216-2.048-12.288-11.264-12.288H911.36c-27.648 0-23.552 2.048-23.552-22.528 2.048-83.968 2.048-166.912 2.048-250.88zm-227.328-465.92c0 62.464 50.176 111.616 112.64 111.616s112.64-50.176 112.64-112.64C888.832 50.176 838.656 0 775.168 0s-112.64 50.176-112.64 114.688z"/></svg>