<svg xmlns="http://www.w3.org/2000/svg" viewBox="0 0 1024 1024"><path d="M1006 778c-2-2-6-4-8-6-26-12-54-24-80-36-22-12-46-12-70 0-100 46-200 94-300 140-24 10-48 12-70 0-100-46-202-94-302-140-24-12-48-12-72 0s-50 24-74 34c-8 4-20 8-20 20 0 10 12 12 20 16 148 70 296 140 446 208 24 12 48 12 70 2l450-210c4-2 8-4 10-6 10-6 10-16 0-22zM16 246c4 2 10 6 14 8 150 68 298 138 446 208 24 10 48 10 72 0 148-70 298-140 446-208 4-4 10-6 14-10 8-4 8-12 0-18-4-4-10-6-14-10C846 148 698 78 550 10c-26-12-50-12-76 0C326 78 178 148 30 218c-6 2-10 4-14 6-8 6-8 16 0 22zm990 256c-2-2-6-4-8-6-26-12-54-24-80-36-22-12-46-12-70 0-100 46-200 94-300 140-24 10-48 10-70 0-100-46-202-94-302-140-24-12-48-12-72 0s-50 24-74 34c-8 4-20 8-20 18 0 12 12 14 20 18 148 70 296 140 446 208 24 12 48 12 70 2l450-210c4-2 8-4 10-6 10-6 10-16 0-22z"/></svg>