<svg xmlns="http://www.w3.org/2000/svg" viewBox="0 0 1024 1024"><path d="M392.315 650.435c5.56-1.075 9.206-6.461 8.12-12.022a10.275 10.275 0 0 0-2.171-4.598l-11.899-11.899c-28.611-28.6-28.631-74.988-.031-103.598l.031-.031 268.093-268.093c57.201-57.313 57.108-150.149-.205-207.35s-150.149-57.108-207.35.205L213.687 277.176c-85.473 86.088-84.982 225.167 1.106 310.651a219.701 219.701 0 0 0 177.521 62.607zm262.144-309.238c-7.782.031-15.555.471-23.286 1.331-5.315.317-9.37 4.895-9.042 10.209a9.673 9.673 0 0 0 3.092 6.513l12.001 12.001c28.498 28.621 28.498 74.895 0 103.526L344.299 768.01c-60.518 53.627-66.109 146.156-12.483 206.674s146.156 66.109 206.674 12.483a147.267 147.267 0 0 0 12.339-12.319l258.959-258.55c85.791-85.862 85.729-225.004-.123-310.794a219.783 219.783 0 0 0-155.208-64.307z"/></svg>