<svg xmlns="http://www.w3.org/2000/svg" viewBox="0 0 1024 1024"><path d="M133.12 57.344C89.088 83.968 1.024 184.32 0 210.944v44.032c0 55.296 52.224 104.448 99.328 104.448 56.32 0 103.424-47.104 103.424-102.4 0 55.296 46.08 102.4 102.4 102.4s100.352-47.104 100.352-102.4c0 55.296 48.128 102.4 105.472 102.4H512c56.32 0 105.472-47.104 105.472-102.4 0 55.296 44.032 102.4 100.352 102.4s102.4-47.104 102.4-102.4c0 55.296 47.104 102.4 103.424 102.4 47.104 0 99.328-49.152 99.328-104.448v-44.032c0-26.624-88.064-126.976-132.096-153.6C751.616 52.224 655.36 51.2 512 51.2s-338.944 2.048-378.88 6.144zm272.384 276.48c-5.12 9.216-12.288 18.432-19.456 25.6-21.504 20.48-51.2 33.792-82.944 33.792-32.768 0-61.44-13.312-82.944-33.792-8.192-7.168-13.312-15.36-19.456-25.6-5.12 9.216-13.312 17.408-20.48 25.6-21.504 20.48-51.2 33.792-82.944 33.792-4.096 0-8.192-1.024-11.264-2.048-4.096 47.104-6.144 93.184-7.168 125.952v50.176c1.024 99.328-10.24 322.56 44.032 377.856C204.8 963.584 358.4 972.8 512 972.8s307.2-9.216 390.144-28.672c54.272-55.296 43.008-278.528 44.032-377.856v-50.176c-1.024-32.768-3.072-78.848-7.168-125.952-3.072 1.024-7.168 2.048-11.264 2.048-32.768 0-61.44-13.312-82.944-33.792-8.192-7.168-15.36-15.36-20.48-25.6-5.12 9.216-11.264 17.408-19.456 25.6-21.504 20.48-51.2 33.792-82.944 33.792-32.768 0-61.44-13.312-82.944-33.792-8.192-7.168-14.336-16.384-19.456-25.6-5.12 9.216-12.288 18.432-19.456 25.6-21.504 20.48-51.2 33.792-82.944 33.792h-6.144c-32.768 0-61.44-13.312-82.944-33.792-10.24-7.168-17.408-15.36-22.528-24.576zm-84.992 110.592c33.792 0 64.512 0 101.376 40.96 28.672-4.096 59.392-5.12 90.112-5.12 30.72 0 61.44 1.024 91.136 4.096 36.864-40.96 67.584-40.96 101.376-40.96 16.384 0 79.872 0 124.928 124.928l48.128 172.032c35.84 128-11.264 131.072-69.632 131.072-87.04-3.072-135.168-66.56-135.168-129.024-48.128 8.192-104.448 12.288-159.744 12.288-56.32 0-111.616-4.096-159.744-12.288 0 62.464-48.128 125.952-135.168 129.024-58.368 0-105.472-3.072-69.632-131.072l48.128-172.032c44.032-123.904 107.52-123.904 123.904-123.904zM512 542.72s-91.136 83.968-107.52 113.664l59.392-2.048v52.224c0 2.048 23.552 1.024 48.128 0 23.552 1.024 48.128 2.048 48.128 0v-52.224l59.392 2.048C603.136 626.688 512 542.72 512 542.72z"/></svg>