<svg xmlns="http://www.w3.org/2000/svg" viewBox="0 0 1024 1024"><path d="M152 726c0-42 10-74 28-98 16-20 40-36 74-44-10-28-16-48-16-60 0-22 12-46 36-70s48-36 70-36c10 0 24 4 40 10-32-92-56-162-70-210-16-54-24-92-24-114 0-32 8-58 24-76s40-28 68-28c48 0 106 98 174 296l16 50c4-10 8-22 12-34C652 116 712 20 764 20c28 0 48 8 64 26s24 42 24 70c0 20-8 58-24 114-14 48-36 116-66 200 38 10 66 28 82 54 18 30 28 74 28 134 0 120-36 216-108 292s-162 114-274 114c-44 0-86-8-128-24-40-14-74-36-108-66-34-32-58-66-76-100-16-36-26-72-26-108zm66-4c0 16 4 36 14 60 8 20 22 42 40 66 26 36 58 62 96 82 38 18 82 28 130 28 86 0 158-32 218-98 58-64 88-146 88-244 0-30-2-54-6-70s-10-26-20-36c-18-14-54-28-106-40-54-12-110-18-170-18-14 0-24 2-28 6-4 2-6 10-6 20 0 28 16 48 46 60 34 14 88 20 166 20h28c10 0 18 4 22 12 6 4 10 14 12 30-12 12-30 22-56 32-24 8-42 16-52 26-28 18-48 42-64 68s-24 52-24 76c0 14 4 30 10 50 8 22 12 36 12 44v6l-4 14c-30-2-52-16-66-40-10-22-16-50-18-82h-24c2 4 2 8 2 12 0 20-8 38-24 52-14 14-32 20-54 20-30 0-62-14-94-44-34-32-50-62-50-92 0-4 2-10 4-16 0-4 6-12 16-22 16 22 28 36 34 44 28 40 54 60 76 60 6 0 12-2 18-6 4-4 6-8 6-10 0-6-4-16-12-30-6-10-18-28-38-54-18-24-34-40-44-50-10-8-18-14-22-14-14 0-26 8-38 22-12 16-18 34-18 56zm90-192c0 8 6 24 16 46 10 18 24 40 46 68 20 26 38 48 56 62 16 14 28 20 36 20 4 0 10-2 14-8 4-4 6-10 6-16 0-8-6-26-18-58-14-34-28-64-46-92-14-24-28-40-38-50-12-10-22-14-32-14-8 0-16 4-24 14-10 12-16 20-16 28zm46-434c0 24 8 58 24 108 14 48 36 110 66 190 6-4 16-6 28-6 0 0 2 0 6 2h10c4 0 12 0 28 2l-70-202c-18-52-34-88-44-104-10-14-18-20-26-20-6 0-12 2-16 8s-6 14-6 22zm166 512c6 16 12 32 20 50 12-14 26-28 40-38-4 0-10-2-16-2-6-2-12-2-14-2-14-4-24-6-30-8zm106-204l66 12c30-84 54-150 70-200 16-54 26-86 26-96 0-12-4-20-8-26-2-4-8-6-16-6s-18 8-30 26c-12 20-28 54-44 102z"/></svg>