<svg xmlns="http://www.w3.org/2000/svg" viewBox="0 0 1024 1024"><path d="M1024 624c0 66-8 132-32 196-42 108-120 170-232 194-34 8-68 10-102 10H74v-2l108-108 298-298c2-2 2-4 4-4 6-6 10-10 18-6s10 10 10 18v162c0 2 4 2 4 2 44 0 88 0 130-2 16-2 34-6 48-12 48-16 74-52 82-100 6-26 8-52 8-80 2-90 2-182 2-274 0-6 0-10 6-14 74-76 148-150 224-224 2-2 2-6 4-8 2 0 4 0 4 2v548zm-786 80c0-90 0-180 2-268 0-28 2-56 6-84 10-52 38-88 90-104 10-4 22-8 32-8 48-2 94-2 142-4l2 2v158c0 4-2 6 0 8 2 6 6 10 10 14s10 0 16-4l6-6L944 8c2-2 4-8 8-8H366c-34 0-68 2-100 10C150 34 70 100 30 212 8 274 0 338 0 402v548c4-2 6-4 8-6 74-76 150-150 224-226 4-4 6-8 6-14z"/></svg>