<svg xmlns="http://www.w3.org/2000/svg" viewBox="0 0 1024 1024"><path d="M644 224l-92 46c-8 4-10 12-6 20l144 288c4 8 0 18-8 22l-28 14c-8 4-18 2-22-6l-2-6-140-284c-4-8-14-10-22-6l-90 44c-8 4-12 14-8 20l140 284 4 6c4 8 0 18-8 20l-28 14c-10 4-18 2-22-6l-2-6-140-280c-4-8-14-12-22-8l-90 46c-8 4-12 12-8 20l164 326c4 8 12 12 20 8l12-6 78-40 86-42 92-44 176-88c8-4 10-12 6-20L666 232c-4-8-14-12-22-8zM764 64H258C116 64-2 180-2 322v378c0 142 118 260 260 260h506c144 0 260-118 260-260V322c-2-142-118-258-260-258zm152 630c0 86-70 156-156 156H262c-86 0-156-70-156-156V328c0-86 70-156 156-156h498c84 0 156 70 156 156z"/></svg>