<svg xmlns="http://www.w3.org/2000/svg" viewBox="0 0 1024 1024"><path d="M1024 504c0-56-44-100-100-100-32 0-60 14-78 38-80-58-192-94-318-96l74-220 184 44h8c2 42 36 76 80 76s78-36 78-80-34-78-78-78c-34 0-60 18-74 46 0 0-2-2-4-2L594 84c-10-2-20 4-22 12l-86 250c-122 4-230 38-310 94-18-22-44-36-76-36C44 404 0 448 0 504c0 40 24 76 60 92-4 14-6 30-6 46 0 164 204 298 456 298s456-134 456-298c0-14-2-30-6-44 38-16 64-52 64-94zm-746 80c0-40 34-74 74-74s74 34 74 74-34 74-74 74-74-34-74-74zm400 204c-34 34-88 50-166 50s-132-16-166-50c-4-4-4-12 0-18 4-4 12-4 16 0 30 30 78 44 150 44 70 0 120-14 150-44 4-4 12-4 16 0 4 6 4 14 0 18zm-4-130c-42 0-76-32-76-74 0-40 34-74 76-74 40 0 72 34 72 74 0 42-32 74-72 74z"/></svg>