<svg xmlns="http://www.w3.org/2000/svg" viewBox="0 0 1024 1024"><path d="M523.264 688.128c20.48 0 51.2-3.072 80.896-8.192C841.728 641.024 1026.048 420.864 1024 179.2c0-28.672-19.456-49.152-45.056-50.176-25.6 0-45.056 20.48-46.08 49.152 0 20.48-2.048 41.984-5.12 61.44-32.768 189.44-176.128 328.704-366.592 351.232-155.648 18.432-282.624-37.888-380.928-159.744-59.392-73.728-87.04-159.744-89.088-253.952C90.112 147.456 70.656 128 45.056 128 18.432 129.024-1.024 149.504 0 180.224c1.024 27.648 3.072 55.296 7.168 81.92 44.032 248.832 256 427.008 516.096 425.984z"/></svg>