<svg xmlns="http://www.w3.org/2000/svg" viewBox="0 0 1024 1024"><path d="M140 208s0-2 2-2c12-10 24-16 42-14 12 2 22 6 36 10 14 6 26 12 42 16 8 4 18 6 26 6 28 0 46-20 44-46 0 0 0-2 2-2 4 6 12 10 20 12 12 2 22 0 32-4 16-6 24-18 20-36 0-6-2-12-4-18 0-6 0-8 4-8 10 0 20 0 30 2 20 4 38 14 56 24 4 2 8 4 14 8 0-6-2-10-2-16-2-14-2-26 4-38 0-6 2-10 6-10 2 0 2 4 4 8 4 12 2 26 2 40 0 4-2 8-2 12 4 0 6-2 6-4 12-6 24-14 38-18 18-8 38-12 56-10 6 2 6 2 4 8s-2 12-4 16c-2 20 6 34 24 38 18 6 36 4 52-8v4c-2 20 14 40 34 42 10 2 20 0 28-2 16-4 30-10 44-16 14-4 26-8 38-10 18-2 34-2 46 12 0 2 2 4 6 2-6-12-16-18-30-22-14-2-30 0-44 2-18 2-34 6-52 6-12 0-24 0-36-8-4-2-8-4-8-8 2-4 8-6 12-6 8-2 16 0 24 2 6 0 14 2 22 0-30-20-62-24-94-26 16-6 32-12 50-22h-10c-18 2-38 2-58-2-6-2-6-2-2-8 6-10 16-14 28-18 8-4 16-4 24-6-6-4-14-6-22-6-22-2-44 0-66 6-18 2-34 6-52 8-4 0-6-2-6-6 0-14 4-24 14-30 8-6 18-10 28-12 2-2 6-2 10-4h-6c-22 0-42 6-60 18-4 2-6 2-10 0-14-10-22-24-26-40-2-8-2-14-2-24-4 4-2 8-6 12-2-4-2-8-6-14v22c-4 18-12 34-28 44-4 2-6 2-10 0-12-8-26-14-40-16-8-2-16-2-24 0 2 0 4 2 6 2 12 2 22 6 32 12 8 10 14 20 12 34 0 4-2 6-6 4-14-2-30-4-44-8-26-4-50-8-74-6-8 2-14 2-22 6 0 2 2 0 4 0 10 2 20 4 32 8 6 4 14 8 18 16 2 4 2 6-4 6-20 4-40 4-60 2-2 0-4 0-6 2 18 8 34 14 52 22-34 0-68 4-96 26 2 2 4 0 6 0 12 0 22-4 34-4 4 0 8 2 14 4 4 2 4 4 0 8-8 6-18 10-28 10-14 2-28 0-44-2-18-4-34-6-52-6-10 0-16 0-24 4-8 2-12 8-16 16 0 2-2 2 0 4 0 2 0 0 2 0zm256 256c-8 8-16 12-22 18-6 8-12 16-12 26-2 48 18 84 54 112 4 4 8 6 14 8 22 10 48 4 64-16 18-18 20-44 8-66-6-8-12-16-18-22-8-10-16-18-22-28-12-18-14-36-8-56 4-10 8-20 14-28 8-16 14-34 14-50 0-6 0-6-6-6-10 2-16 6-24 10-8 2-14 6-20 8-18 2-28-4-34-18-2-6-4-10-4-16-2-14-4-26-6-38-2-4 0-4 2-6 12-2 22 0 32 8 6 4 10 8 16 12 16 12 36 16 56 18-2 0-2 0-2-2-24-14-42-30-60-52-4-6-10-10-16-16-16-12-32-12-46 4-2 2-4 6-6 8-12 16-18 38-20 58 0 22 8 36 26 44 6 2 10 4 18 8 6 2 10 4 16 8 22 12 26 34 12 54-8 6-14 12-20 16zm224-72c8-4 16-10 24-12 6-4 14-6 20-10 10-6 14-12 16-22 6-36-8-64-32-88 0-2-2-2-2-2-8-6-16-6-22-4-8 6-16 10-22 16-10 8-18 16-26 24-10 14-24 24-38 32-2 2-6 2-8 6 20-2 40-6 56-18 6-4 12-10 18-14 10-6 20-8 30-8 4 2 6 2 4 6-2 6-4 12-4 18-2 10-4 20-6 32-6 20-20 26-40 22-6-2-12-6-18-8-8-4-14-6-24-8-4-2-6 0-6 4 2 18 6 34 14 50 4 4 6 10 10 16 6 16 10 30 6 48-2 16-10 26-20 38-8 10-18 18-24 28-24 34-12 72 24 88 22 8 40 4 58-8 30-24 48-54 52-94 2-22-4-40-22-52-6-6-12-12-18-16-6-6-10-10-14-18-10-16-4-34 14-46zM190 650l12-18c4-10 8-20 14-28 4-12 10-24 16-34 10-18 24-24 44-18 4 0 10 4 14 6 0 0 2 2 4 0-4-12-10-20-22-24-8-4-18-4-26-4-20 0-38 6-56 16-2 2-4 4-4 0-4-32-6-64 0-96 4-30 20-54 46-70 6-2 12-6 20-10 8-6 16-10 22-16 4-4 10-8 12-14l-2-2h-4c-26-2-50 0-76 8-4 2-4 0-6-2 0-8-4-14-10-16-4-2-6-4-10-4s-4-2-4-6c0-2 0-2 2-4 4-22 16-38 34-50 12-8 26-14 40-18 2-2 4-2 2-4-14-14-28-24-46-30-12-2-24-2-34 4-4 0-6 2-6 6 0 10 4 18 12 24 6 6 6 6 0 12-12 8-20 20-26 32-20 32-32 66-32 102 0 4 2 6 4 8 6 4 12 6 18 8 2 0 4 0 2 2-2 12 4 20 10 28 2 2 4 4 2 6-8 52-4 104 4 156 2 10 2 10-6 14-16 8-24 22-20 40 2 2 2 4 4 6 20 8 38 8 52-10zm678-38c-4-2-6-2-4-6 10-54 14-108 4-160 0-4 0-4 2-6 8-8 12-18 10-28 0-2 0-4 4-4s10-2 16-6c4-2 6-6 6-10-2-42-16-78-40-110-6-8-14-14-20-22s-6-8 2-14c4-4 8-8 10-12 2-14 0-16-14-18-22-6-56 10-72 32 2 0 4 2 6 2 16 6 30 12 44 22 16 14 26 30 28 50 0 4 0 6-4 6-12 0-20 6-22 20-2 4-2 4-6 2-26-8-52-10-76-8-2 0-4 0-6 2 2 2 4 6 6 8 8 8 16 12 24 18 12 6 20 10 30 18 20 12 32 28 38 50 10 38 8 74 4 110 0 2-2 4-4 2-18-14-42-18-68-16-10 0-18 4-26 10-6 4-8 10-10 18 6-2 10-4 14-4 18-8 32-4 44 10 4 4 6 8 8 12 6 10 10 22 16 32 6 12 10 24 16 36 14 20 36 26 58 16 2-2 4-2 4-6 4-12 2-22-6-32-6-8-10-12-16-14zM646 788c-10 2-14 6-18 14-4 10-4 18-6 26-4 20-12 38-26 54-16 20-34 38-56 54-2 4-6 6-10 8-10 6-22 6-34 2-6-4-14-8-20-14-22-16-40-38-58-60-8-12-14-26-16-42 0-8-2-18-6-28-2-6-8-12-18-12-8-2-14 2-20 10-4 6-6 16-8 24-2 14 0 28 6 42 4 6 10 12 18 12 0-2 0-2-2-4-6-10-10-24-8-38 0-4 2-8 4-12 4-2 6-2 8 2 2 2 2 6 2 10 2 20 12 36 22 50 8 14 18 26 28 38 2 4 4 6 2 10-2 16 0 30 6 44 2 4 6 8 10 12 0-4-2-6-2-10-2-8-4-16-2-24 0-4 4-8 10-8 12 0 24 6 32 14 8 6 6 6 2 12-6 6-12 16-16 24s-6 16-2 28c2-6 4-10 8-14l8-8c6-4 12-8 16-12 10-6 10-6 22 0 12 8 24 16 30 30h2c2-12-2-22-8-32-4-6-8-14-12-20-2-2-4-4-2-6 8-6 16-14 30-16 16-2 18 0 18 16 0 6-2 12-2 20 0 2-2 2-2 6 4-4 6-8 10-12 8-14 8-30 6-46-2-4 0-6 2-10 12-14 24-28 32-44 8-14 14-28 16-42 0-4 2-6 4-10 0-2 2-4 4-4s4 2 4 4c8 12 6 32-2 42-2 2-2 4-4 6s-2 2-2 4h4c6-2 10-6 14-10 10-22 12-44 0-66-2-10-8-14-18-14zm200-84c-6-4-14-8-22-14-6-2-10-6-14-14-2-2-4-4-2-8 4-2 6-4 10-2 4 0 8 2 12 2 2 2 4 2 8 0-6-2-10-6-14-10-4-2-8-4-14-2-4 0-4-2-4-4 2-8 2-18 2-26-2-18-10-34-24-44-18-12-38-10-52 2 12 4 12 4 24 16 4 4 8 8 16 6 4 0 6 2 6 6-2 16-4 34-8 52-10 46-34 88-62 128-2 2-4 2-4 0-8-8-14-16-22-22-8-10-16-16-26-22-10-4-20-4-30 0-6 4-12 6-20 6-2 0-2 0-2 2 2 16 14 24 28 20 6 0 12-4 16-4 18-8 28-2 34 18 0 0 2 2 2 4 2 12 2 24 2 36 2 12 2 28 8 40 0 4 2 6 6 10v-6c-2-24 4-46 14-66 10-18 24-32 40-46 6-4 6-4 10 2 6 6 8 12 12 16 2 4 6 8 12 10-8-20-10-42-8-62 0-14 4-28 12-40 2-4 4-4 8 0 4 2 6 6 6 10v22c0 6 2 12 6 16 0-4 2-8 2-12s0-8 2-10c2-10 10-12 18-10 10 2 16 8 22 16 4 10 2 18-6 24-2 2-6 4-8 6 6 0 10-2 14-2 16-8 20-26 8-38-6 0-12-4-18-6zm-466 70l18 6c4 0 10-2 14-4 4-4 6-12 8-16 2-2 0-4-2-4-6 0-12-2-16-4-14-8-26-6-38 2-10 6-18 14-26 22l-16 16c-2 2-4 2-6 0-14-20-26-40-36-62-18-36-30-76-32-118 0-4 0-6 6-6 6 2 10 0 14-4 8-8 14-16 26-18-18-14-42-12-58 2-10 8-14 22-16 34-2 10-2 22 0 32 0 2 2 4-2 4-14-4-22 6-30 12h8c4-2 8-4 12-4s8 2 10 4c2 4 0 6-2 8-4 4-6 8-10 12-8 4-16 8-22 12-8 4-14 8-20 14-6 8-8 18-2 28 4 8 14 12 24 12-2-2-4-4-8-6-8-6-10-12-4-22 2-6 8-12 14-16 14-8 24-4 28 12 0 4 0 8 2 12 0 0 0 2 2 2 2-4 2-8 4-14v-22c2-6 2-10 6-12 4-4 6-4 10 2 2 4 4 8 6 14 6 18 6 38 4 58l-6 30c6-4 10-8 14-14 4-4 6-12 10-16 2-2 4-2 6 0 24 20 42 44 52 74 4 14 6 30 4 44 2 0 2-2 2-2 6-12 8-24 8-36 4-16 2-32 6-48 2-22 12-28 34-20zm196-72c6-10 8-20 8-32 0-8-2-10-10-12h-28c-14 2-18-2-24-16 0-6-2-10-6-12-4-4-6-4-10 0-2 4-4 10-6 14-4 10-10 14-20 14h-16c-6 0-14-2-20 2-4 0-4 2-6 6 0 14 4 28 12 40 6 6 10 14 16 22 8 10 10 20 10 32 0 0 0 2 2 2 4-2 4-8 6-12 2-6 2-12 4-16s6-4 10-2c2 0 6 2 4 8s0 14 2 22c4 12 12 24 14 36 2-4 2-10 2-14-2-8-4-18-6-26 0-6 0-12 2-20 4-6 8-8 12-8 6 2 8 6 10 10 0 6 2 10 2 16 2 2 2 6 6 6-4-16 2-26 12-38 8-8 12-16 18-22zM474 462c-6 2-8 4-6 8 0 16 6 30 16 42 8 10 16 18 24 28 2 2 4 2 6 0 8-8 18-16 26-26 10-14 16-28 16-44 0-4 0-6-6-8-12-2-24-4-38-4s-26 2-38 4zm10-216c-4 6-8 14-10 22-4 10-2 18 4 26 16 18 36 20 56 10 2 0 4-2 8-4 12-8 16-20 10-34-2-6-6-10-8-14-10-12-12-24-10-38 0-4 0-8-2-12-4 8-8 16-10 24-2 10-2 20-2 28 0 6 0 12-2 16-2 2-4 4-8 4-2 0-2-2-4-6-4-10-4-22-4-32 0-8 0-16-2-24-2-4-4-8-8-10 2 8 2 16 0 24s-6 14-8 20zm40 112c-2 2-2 6-2 8-2 10 2 20 4 28 4 8 6 16 6 24 0 2 0 4-4 6-8 4-18 6-28 4-8-4-10-6-8-14 2-10 6-18 8-28 2-8 4-16 0-26-4 14-14 28-20 40s-8 26-8 40c0 4 0 6 4 8 24 10 50 10 72 0 4-2 6-4 6-8 0-12-2-24-6-36-8-16-20-30-24-46zM140 468c0-6-2-10-10-8s-10 6-12 12c-4 14-2 26 4 38 0-10 4-18 10-26 4-6 6-10 8-16zm766 2c-2-6-6-10-14-12-4 0-6 0-8 6 0 8 2 12 6 18 4 8 12 16 12 26 6-12 8-24 4-38z"/></svg>