<svg xmlns="http://www.w3.org/2000/svg" viewBox="0 0 1024 1024"><path d="M888 320c-34 0-62 30-62 64v248c0 34 28 62 62 62s62-28 62-62V384c0-34-28-64-62-64zm-752 0c-34 0-62 30-62 64v248c0 34 28 62 62 62s62-28 62-62V384c0-34-28-64-62-64zm100 2v452c0 28 22 50 48 50h56v136c0 36 28 64 62 64s62-28 62-64V824h98v136c0 36 28 64 62 64s62-28 62-64V824h56c26 0 48-22 48-50V322zM644 88l50-74c4-4 2-10-2-12-4-4-8-2-12 2l-52 78c-36-14-74-22-116-22s-80 8-116 22L344 4c-4-4-8-6-12-2-4 2-6 8-2 12l50 74c-80 38-138 110-146 194h556c-8-84-66-156-146-194zM396 206c-18 0-32-14-32-30 0-18 14-32 32-32 16 0 30 14 30 32 0 16-14 30-30 30zm236 0c-16 0-30-14-30-30 0-18 14-32 30-32 18 0 32 14 32 32 0 16-14 30-32 30z"/></svg>