<svg xmlns="http://www.w3.org/2000/svg" viewBox="0 0 1024 1024"><path d="M657.408 691.2c-4.096 3.072-7.168 6.144-11.264 8.192C607.232 728.064 560.128 742.4 512 742.4c-126.976 0-231.424-103.424-231.424-231.424 0-109.568 77.824-204.8 184.32-226.304 6.144-1.024 12.288-2.048 20.48-3.072l4.096-1.024V0h-14.336C208.896 20.48 0 244.736 0 512c0 282.624 229.376 512 512 512 101.376 0 199.68-29.696 283.648-86.016 21.504-14.336 41.984-29.696 60.416-47.104l4.096-3.072-198.656-199.68-4.096 3.072zM512 983.04c-125.952 0-243.712-49.152-332.8-138.24S40.96 637.952 40.96 512c0-119.808 45.056-234.496 126.976-321.536 73.728-78.848 173.056-131.072 280.576-145.408v201.728c-57.344 13.312-109.568 46.08-146.432 92.16-39.936 48.128-62.464 110.592-62.464 173.056 0 150.528 121.856 272.384 272.384 272.384 51.2 0 101.376-14.336 144.384-41.984L798.72 884.736c-8.192 6.144-17.408 13.312-26.624 19.456-76.8 51.2-166.912 78.848-260.096 78.848zM363.52 512c0 81.92 66.56 148.48 148.48 148.48S660.48 593.92 660.48 512 593.92 363.52 512 363.52 363.52 430.08 363.52 512zM512 405.504c58.368 0 106.496 48.128 106.496 106.496 0 59.392-48.128 106.496-106.496 106.496S405.504 571.392 405.504 512c0-58.368 48.128-106.496 106.496-106.496zM882.688 158.72C791.552 62.464 668.672 7.168 537.6 0h-5.12v281.6h4.096c117.76 13.312 206.848 111.616 206.848 230.4 0 52.224-17.408 101.376-49.152 142.336l-3.072 3.072 198.656 198.656 3.072-4.096c83.968-94.208 130.048-215.04 130.048-340.992C1024 379.904 973.824 253.952 882.688 158.72zM573.44 45.056c98.304 13.312 188.416 55.296 260.096 123.904-48.128 46.08-96.256 92.16-144.384 137.216C656.384 276.48 616.448 256 573.44 246.784V45.056zm171.008 608.256c21.504-34.816 34.816-73.728 37.888-114.688 24.576 0 50.176 1.024 71.68 1.024l65.536 1.024c20.48 0 40.96 1.024 62.464 1.024-6.144 92.16-38.912 180.224-94.208 253.952l-143.36-142.336zM855.04 498.688c-20.48 0-46.08-1.024-71.68-1.024-3.072-59.392-25.6-116.736-64.512-161.792a9066.927 9066.927 0 0 0 143.36-137.216C936.96 281.6 978.944 389.12 980.992 500.736c-20.48-1.024-41.984-1.024-62.464-1.024l-32.768-1.024h-30.72z"/></svg>