<svg xmlns="http://www.w3.org/2000/svg" viewBox="0 0 1024 1024"><path d="M276.48 0c-5.12 26.624-11.264 52.224-16.384 78.848-13.312 64.512-25.6 130.048-38.912 194.56-13.312 58.368-25.6 117.76-36.864 177.152-1.024 5.12-3.072 14.336 5.12 13.312 28.672-2.048 57.344 8.192 84.992-7.168 53.248-29.696 94.208-71.68 121.856-123.904 56.32-105.472 91.136-220.16 133.12-331.776C445.44 0 360.448 0 276.48 0zm560.128 903.168c-10.24-6.144-19.456 0-25.6 10.24-7.168 11.264-16.384 20.48-27.648 27.648-37.888 23.552-78.848 6.144-88.064-36.864-3.072-15.36-5.12-29.696-5.12-45.056V506.88c0-17.408 6.144-21.504 22.528-20.48 31.744 1.024 64.512-1.024 96.256 1.024 20.48 1.024 17.408-12.288 17.408-24.576 1.024-13.312 0-21.504-18.432-21.504-31.744 1.024-64.512-1.024-96.256 0-15.36 0-22.528-3.072-21.504-20.48 2.048-26.624 1.024-52.224 1.024-78.848v-74.752c0-6.144 0-12.288-7.168-14.336-8.192-3.072-12.288 2.048-15.36 9.216-2.048 4.096-4.096 9.216-6.144 13.312-19.456 50.176-46.08 95.232-84.992 133.12-19.456 19.456-40.96 36.864-66.56 49.152-8.192 4.096-18.432 10.24-16.384 20.48s13.312 8.192 22.528 8.192h41.984c27.648 0 27.648 0 27.648 28.672v207.872c4.096 59.392-8.192 139.264 7.168 218.112 8.192 46.08 49.152 81.92 95.232 83.968 60.416 2.048 116.736-35.84 144.384-100.352 3.072-6.144 13.312-15.36 3.072-21.504z"/></svg>