<svg xmlns="http://www.w3.org/2000/svg" viewBox="0 0 1024 1024"><path d="M1017.856 4.096c-51.2 0-99.328 9.216-144.384 26.624 45.056-17.408 93.184-26.624 144.384-26.624H0V911.36c0 55.296 46.08 100.352 102.4 100.352s102.4-45.056 102.4-100.352V362.496v3.072-94.208-8.192c4.096-52.224 48.128-93.184 102.4-93.184 56.32 0 102.4 45.056 102.4 100.352v393.216c0 55.296 46.08 100.352 102.4 100.352s102.4-45.056 102.4-100.352V513.024c5.12-51.2 48.128-91.136 101.376-91.136 56.32 0 102.4 45.056 102.4 100.352v51.2c0 55.296 46.08 100.352 102.4 100.352s102.4-45.056 102.4-100.352V4.096h-5.12z"/></svg>