<svg xmlns="http://www.w3.org/2000/svg" viewBox="0 0 1024 1024"><path d="M608.256 973.824c0-27.648-38.912-50.176-87.04-50.176-23.552 0-45.056 5.12-61.44 15.36-16.384 9.216-25.6 21.504-25.6 34.816 0 27.648 38.912 50.176 87.04 50.176 23.552 0 45.056-5.12 61.44-15.36 16.384-9.216 25.6-21.504 25.6-34.816zM260.096 373.76c-1.024-1.024-2.048-2.048-3.072-2.048s-1.024 0-2.048-1.024H235.52c-6.144 0-10.24 4.096-10.24 10.24V911.36c0 5.12 5.12 10.24 10.24 10.24h17.408c6.144 0 10.24-4.096 10.24-10.24V380.928c0-3.072-1.024-5.12-3.072-7.168zm89.088-295.936h1.024v82.944c0 45.056 0 91.136 1.024 136.192 2.048 27.648 16.384 55.296 38.912 74.752s51.2 28.672 78.848 26.624h38.912c23.552 0 49.152 1.024 72.704-2.048 54.272-10.24 94.208-64.512 88.064-121.856V76.8h1.024c21.504-2.048 40.96 6.144 58.368 20.48 20.48 18.432 33.792 47.104 35.84 73.728a3019.307 3019.307 0 0 1 0 136.192v57.344c2.048-1.024 3.072-1.024 5.12-1.024h17.408c8.192 0 14.336 6.144 14.336 13.312v9.216h1.024v-14.336h2.048c12.288 1.024 25.6 4.096 37.888 8.192V171.008c-3.072-25.6-7.168-52.224-18.432-73.728-30.72-62.464-105.472-102.4-181.248-96.256-20.48-3.072-41.984 11.264-48.128 30.72 0 82.944 1.024 169.984 0 258.048-1.024 17.408-10.24 33.792-23.552 45.056-14.336 12.288-32.768 17.408-51.2 15.36-26.624 1.024-54.272-1.024-71.68-22.528-18.432-19.456-17.408-45.056-17.408-69.632v-21.504-58.368V26.624c-10.24-19.456-31.744-30.72-55.296-27.648h-8.192c-81.92-2.048-158.72 53.248-178.176 128-4.096 17.408-6.144 34.816-7.168 55.296v200.704c12.288-4.096 23.552-7.168 35.84-8.192h2.048v4.096c0-7.168 6.144-13.312 13.312-13.312h17.408c3.072 0 5.12 1.024 8.192 2.048v-61.44-135.168c5.12-45.056 40.96-94.208 91.136-93.184-1.024-1.024 0-1.024 0 0zm590.848 385.024c-30.72-43.008-71.68-72.704-115.712-82.944h-1.024c-3.072-1.024-5.12-1.024-8.192-2.048s-6.144-1.024-9.216-1.024v540.672c51.2-6.144 98.304-36.864 134.144-86.016 35.84-50.176 55.296-115.712 55.296-184.32s-19.456-134.144-55.296-184.32zm-736.256-80.896c-1.024 0-2.048 0-3.072 1.024-2.048 1.024-4.096 1.024-7.168 2.048h-1.024c-2.048 1.024-5.12 1.024-7.168 2.048-38.912 13.312-73.728 39.936-101.376 78.848-35.84 50.176-55.296 115.712-55.296 184.32s19.456 134.144 55.296 184.32c34.816 49.152 82.944 79.872 134.144 86.016V378.88c-3.072 0-6.144 1.024-8.192 1.024-3.072 1.024-4.096 1.024-6.144 2.048zm583.68-14.336H768h-1.024-1.024c-4.096 1.024-7.168 5.12-7.168 9.216v530.432c0 5.12 5.12 10.24 11.264 10.24h17.408c6.144 0 11.264-4.096 11.264-10.24V377.856c0-6.144-5.12-10.24-11.264-10.24zm17.408 552.96h-2.048v-17.408h-1.024v4.096c0 7.168-6.144 13.312-14.336 13.312h-2.048l-2.048 2.048c-10.24 7.168-19.456 14.336-29.696 21.504-9.216 6.144-19.456 12.288-28.672 17.408-7.168 3.072-13.312 4.096-13.312 4.096H610.304c1.024 3.072 1.024 6.144 1.024 9.216 0 6.144-1.024 11.264-4.096 16.384h110.592c2.048 0 11.264-3.072 17.408-5.12 13.312-6.144 22.528-13.312 37.888-22.528 16.384-10.24 47.104-34.816 47.104-34.816 4.096-2.048 5.12-6.144 5.12-10.24-7.168 1.024-13.312 2.048-20.48 2.048zm-409.6-252.928c-2.048-2.048-6.144-3.072-10.24-3.072h-23.552v71.68h23.552c4.096 0 8.192-2.048 12.288-5.12 3.072-3.072 6.144-7.168 8.192-12.288s2.048-11.264 2.048-18.432l-3.072-20.48c-2.048-6.144-5.12-10.24-9.216-12.288zm-15.36-52.224c3.072 0 5.12-2.048 8.192-4.096 3.072-3.072 5.12-6.144 6.144-11.264s2.048-10.24 2.048-16.384c0-4.096-1.024-9.216-2.048-14.336s-3.072-8.192-6.144-10.24-6.144-3.072-9.216-3.072h-18.432v60.416h5.12c7.168-1.024 12.288-1.024 14.336-1.024zm349.184-141.312H296.96v343.04h431.104v-343.04zM443.392 738.304c-3.072 10.24-7.168 19.456-12.288 26.624-6.144 8.192-12.288 14.336-19.456 18.432-7.168 3.072-16.384 5.12-26.624 5.12H322.56V502.784h55.296c11.264 0 20.48 1.024 26.624 2.048 6.144 2.048 11.264 5.12 16.384 10.24s10.24 13.312 12.288 22.528c3.072 9.216 4.096 19.456 4.096 31.744 0 14.336-2.048 26.624-6.144 36.864-4.096 11.264-9.216 18.432-15.36 23.552v1.024c9.216 4.096 17.408 11.264 23.552 22.528s9.216 26.624 9.216 46.08c-1.024 15.36-2.048 27.648-5.12 38.912zm133.12 52.224H467.968V500.736h43.008v230.4h65.536v59.392zm123.904-230.4H634.88v46.08h60.416v57.344H634.88v68.608h65.536v59.392H591.872V500.736h108.544v59.392z"/></svg>