<svg xmlns="http://www.w3.org/2000/svg" viewBox="0 0 1024 1024"><path d="M334.264 89.764c59.238 59.249 118.753 118.764 178.729 178.739 59.361-59.986 118.477-119.726 177.265-179.128A3502754.565 3502754.565 0 0 0 1024 423.127C853.821 593.295 683.305 763.822 512.502 934.615 341.75 764.498 170.67 594.063 0 424.018c111.503-111.503 222.74-222.74 334.264-334.254zM690.34 244.152c-58.819 59.433-117.934 119.173-177.94 179.804-60.099-60.119-119.798-119.818-179.579-179.61a1590934.56 1590934.56 0 0 0-175.677 177.562c119.327 119.337 238.264 238.254 357.038 357.038 118.18-118.18 236.954-236.964 355.471-355.471-59.597-59.597-119.337-119.337-179.313-179.323z"/></svg>