<svg xmlns="http://www.w3.org/2000/svg" viewBox="0 0 1024 1024"><path d="M0 664h380l178-310H178zm756-196c-8-12-18-20-34-26-12-6-28-8-46-8-6 0-14 0-20 2s-12 4-20 6c-6 4-10 8-16 12-4 4-8 8-12 14V354h-50v310h46v-32h2c4 8 8 14 14 20 6 4 12 8 18 10 8 4 16 6 24 6 8 2 14 2 24 2 16 0 30-4 44-10 12-6 22-16 30-26 8-12 14-24 18-38s6-28 6-44-2-32-6-46c-6-14-14-26-22-38zm-26 112c-2 10-8 18-12 26-6 8-12 14-20 18-8 6-18 8-28 8s-20-2-26-6c-10-4-16-10-22-16-4-8-10-16-12-26-2-8-4-20-4-32 0-22 6-42 16-56s28-22 48-22c10 0 20 2 28 8 8 4 14 10 20 16 4 8 10 16 12 26 4 10 4 20 4 30-2 8-2 18-4 26zm226 38c-10 8-22 12-38 12-10 0-20-2-28-6-6-4-14-10-18-18-4-6-8-16-10-24-2-10-2-18-2-28 0-18 2-30 6-42 4-10 8-18 14-24s14-10 22-12c6-2 14-4 20-4 14 0 26 4 34 10 10 8 16 18 18 32h50c-2-14-6-26-10-36-6-10-14-18-22-26-10-6-20-10-32-14s-26-6-38-6c-18 0-36 4-50 10s-26 14-34 24c-10 12-16 24-22 40-4 14-8 30-8 46 0 18 4 32 8 48 6 14 12 26 22 36 8 10 20 18 34 24s30 10 48 10c30 0 52-8 70-24s28-38 34-68h-50c-2 18-8 30-18 40z"/></svg>