<svg xmlns="http://www.w3.org/2000/svg" viewBox="0 0 1024 1024"><path d="M923.648 224.256L555.008 11.264c-26.624-15.36-59.392-15.36-87.04 0L99.328 224.256c-26.624 15.36-43.008 44.032-43.008 74.752v424.96c0 30.72 16.384 59.392 43.008 74.752l368.64 212.992c13.312 8.192 28.672 11.264 43.008 11.264 15.36 0 29.696-4.096 43.008-11.264l368.64-212.992c26.624-15.36 43.008-44.032 43.008-74.752v-424.96c1.024-30.72-15.36-59.392-41.984-74.752zM512 512v325.632L230.4 674.816V349.184L512 186.368l281.6 162.816L512 512z"/></svg>