<svg xmlns="http://www.w3.org/2000/svg" viewBox="0 0 1024 1024"><path d="M964 592c-30-72-72-124-102-136v-14c0-26-8-52-20-72v-6c0-12-4-24-8-34C826 146 706 0 512 0S198 146 190 330c-6 10-8 22-8 34v6c-12 20-20 46-20 72v14c-30 12-72 64-102 136-38 90-44 176-14 192 22 10 56-14 86-62 12 52 44 96 86 134-44 16-74 44-74 76 0 50 80 92 180 92 90 0 164-34 178-78h20c14 44 90 78 178 78 100 0 182-42 182-92 0-32-30-60-76-76 44-38 74-82 86-134 32 48 64 72 86 62 30-16 24-102-14-192zM420 330c-54-6-66-106-40-154 10-16 26-30 46-30 36 0 58 46 58 90s-20 98-64 94zm192 0c-6 2-18 4-26 0-52-14-62-110-34-154 8-14 22-28 40-30 4-2 14-2 20 0 60 24 58 162 0 184zm-14-118c-16-8-30 4-34 16-2 10-6 26 8 28 6-6 4-28 16-26s4 28 22 24c6-16 0-38-12-42zm-146-10c-28 4-28 72 2 74s32-78-2-74z"/></svg>