<svg xmlns="http://www.w3.org/2000/svg" viewBox="0 0 1024 1024"><path d="M252.928 672.768c0 1.024 5.12 15.36 8.192 22.528 16.384 39.936 40.96 75.776 71.68 106.496s66.56 55.296 106.496 71.68c40.96 17.408 84.992 26.624 130.048 26.624s89.088-9.216 130.048-26.624c39.936-16.384 75.776-40.96 106.496-71.68s55.296-66.56 71.68-106.496c17.408-40.96 26.624-84.992 26.624-130.048s-9.216-89.088-26.624-130.048c-16.384-39.936-40.96-75.776-71.68-106.496s-66.56-55.296-106.496-71.68C658.432 239.616 614.4 230.4 569.344 230.4c-46.08 0-91.136 9.216-132.096 26.624-32.768 13.312-88.064 49.152-119.808 82.944V62.464h463.872c16.384 0 16.384-23.552 16.384-31.744s0-31.744-17.408-31.744L280.576 0c-13.312 0-22.528 11.264-22.528 21.504V409.6c0 12.288 15.36 21.504 29.696 24.576 28.672 6.144 34.816-3.072 41.984-12.288l1.024-1.024c10.24-15.36 44.032-49.152 44.032-49.152 51.2-51.2 120.832-79.872 194.56-79.872s142.336 28.672 193.536 79.872c52.224 52.224 79.872 120.832 79.872 193.536S814.08 706.56 762.88 758.784c-51.2 51.2-121.856 79.872-194.56 79.872-49.152 0-97.28-13.312-138.24-37.888V564.224c0-31.744 13.312-65.536 36.864-91.136 26.624-29.696 62.464-46.08 101.376-46.08 37.888 0 73.728 14.336 100.352 40.96 26.624 25.6 40.96 60.416 40.96 97.28 0 78.848-62.464 140.288-141.312 140.288-15.36 0-43.008-7.168-44.032-7.168-16.384-5.12-22.528 17.408-24.576 24.576-8.192 27.648 4.096 33.792 7.168 34.816 25.6 8.192 41.984 9.216 64.512 9.216 111.616 0 202.752-91.136 202.752-202.752 0-110.592-91.136-201.728-202.752-201.728-54.272 0-106.496 20.48-144.384 59.392-36.864 35.84-58.368 83.968-58.368 132.096v194.56c-21.504-23.552-41.984-59.392-55.296-95.232-5.12-14.336-17.408-11.264-33.792-6.144-9.216 3.072-31.744 9.216-26.624 25.6zm238.592-55.296c0 7.168 6.144 12.288 10.24 16.384v1.024c6.144 6.144 12.288 9.216 18.432 9.216 5.12 0 7.168-2.048 8.192-3.072l37.888-37.888 35.84 34.816c3.072 4.096 7.168 5.12 11.264 6.144 6.144 0 12.288-3.072 18.432-10.24 15.36-15.36 7.168-23.552 4.096-27.648l-35.84-35.84 36.864-37.888c8.192-9.216 1.024-18.432-6.144-25.6-10.24-10.24-20.48-13.312-26.624-7.168l-36.864 36.864-37.888-37.888c-2.048-2.048-4.096-3.072-7.168-3.072-5.12 0-11.264 3.072-17.408 10.24-11.264 11.264-14.336 19.456-8.192 25.6l37.888 37.888-36.864 37.888c-5.12 3.072-6.144 7.168-6.144 10.24zm81.92-507.904c-60.416 0-123.904 12.288-171.008 32.768-5.12 2.048-8.192 6.144-8.192 11.264-1.024 5.12 1.024 12.288 4.096 21.504 3.072 7.168 10.24 27.648 25.6 21.504 48.128-18.432 101.376-28.672 149.504-28.672 55.296 0 107.52 10.24 157.696 31.744 39.936 16.384 76.8 40.96 117.76 76.8 3.072 3.072 6.144 4.096 9.216 4.096 8.192 0 15.36-8.192 22.528-15.36 11.264-12.288 18.432-22.528 7.168-32.768-38.912-36.864-81.92-64.512-134.144-87.04-57.344-23.552-117.76-35.84-180.224-35.84zM896 850.944c-7.168-7.168-13.312-11.264-18.432-13.312s-10.24 0-14.336 3.072l-3.072 4.096c-36.864 36.864-80.896 66.56-129.024 87.04-50.176 21.504-103.424 31.744-157.696 31.744s-107.52-10.24-157.696-31.744c-48.128-20.48-91.136-49.152-129.024-87.04-38.912-38.912-67.584-81.92-87.04-129.024-18.432-45.056-24.576-79.872-26.624-91.136v-2.048c-2.048-13.312-14.336-14.336-31.744-11.264-7.168 1.024-29.696 4.096-27.648 20.48 6.144 36.864 16.384 72.704 30.72 107.52 23.552 55.296 57.344 105.472 99.328 147.456 43.008 43.008 92.16 76.8 147.456 99.328 57.344 24.576 118.784 36.864 181.248 36.864s123.904-12.288 181.248-36.864c55.296-23.552 105.472-57.344 147.456-99.328l4.096-4.096c6.144-4.096 10.24-13.312-9.216-31.744z"/></svg>