<svg xmlns="http://www.w3.org/2000/svg" viewBox="0 0 1024 1024"><path d="M1012 478c-2-20-4-42-8-62H522v200h280c-12 64-50 122-104 158-34 22-72 38-112 44-40 8-82 8-122 0-42-8-80-26-114-50-50-34-90-86-112-142-2-4-4-10-6-14s0 0 2 0c-22-64-22-136-2-200 16-44 42-86 76-120 40-42 94-72 152-86 50-10 102-8 150 6 42 14 80 36 110 66 32-32 64-62 94-94 18-16 34-34 50-50-48-46-104-80-164-102-110-42-234-42-344-4C230 70 124 164 64 282c-20 40-34 84-44 128-22 112-6 230 44 332 34 66 82 124 140 170 54 44 118 76 186 94 86 24 176 24 262 4 78-18 150-56 210-110 62-56 106-132 130-212 18-68 26-138 20-210z"/></svg>