<svg xmlns="http://www.w3.org/2000/svg" viewBox="0 0 1024 1024"><path d="M1000.448 154.624c0-63.488-43.008-106.496-106.496-106.496H779.264c-17.408 0-17.408 0-18.432-18.432 0-22.528-21.504-36.864-40.96-26.624-12.288 6.144-16.384 18.432-15.36 30.72 1.024 10.24-2.048 14.336-13.312 14.336H336.896c-16.384 0-16.384 0-17.408-16.384-1.024-17.408-10.24-28.672-23.552-30.72-19.456-2.048-32.768 9.216-32.768 29.696 0 17.408 0 17.408-17.408 17.408H126.976C67.584 49.152 23.552 93.184 23.552 151.552v768c0 59.392 44.032 103.424 103.424 103.424h384c126.976 0 254.976-1.024 381.952 1.024 53.248 1.024 106.496-39.936 106.496-106.496 0-253.952 1.024-508.928 1.024-762.88zm-56.32 760.832c0 34.816-17.408 53.248-53.248 53.248H133.12c-34.816 0-53.248-17.408-53.248-53.248V156.672c0-33.792 17.408-52.224 51.2-53.248h121.856c8.192 0 10.24 2.048 10.24 10.24-1.024 19.456 0 39.936 0 59.392 0 18.432 10.24 30.72 27.648 30.72 16.384 0 28.672-11.264 28.672-29.696v-60.416c0-8.192 3.072-10.24 10.24-10.24h365.568c8.192 0 10.24 2.048 10.24 10.24-1.024 19.456 0 39.936 0 59.392 0 18.432 11.264 29.696 27.648 30.72 16.384 0 27.648-11.264 28.672-28.672v-61.44c0-8.192 3.072-10.24 10.24-10.24h120.832c34.816 0 52.224 18.432 52.224 53.248v379.904c-1.024 125.952-1.024 251.904-1.024 378.88zM538.624 379.904c40.96 0 77.824 9.216 109.568 32.768 5.12 4.096 12.288 8.192 6.144 16.384s-11.264 3.072-17.408-1.024c-92.16-63.488-217.088-21.504-245.76 82.944-24.576 89.088 38.912 182.272 131.072 192.512 43.008 5.12 80.896-5.12 115.712-30.72 6.144-4.096 11.264-6.144 16.384 1.024 4.096 6.144 1.024 11.264-4.096 14.336-60.416 41.984-125.952 47.104-190.464 12.288s-96.256-90.112-92.16-164.864c6.144-88.064 91.136-159.744 171.008-155.648z"/></svg>