<svg xmlns="http://www.w3.org/2000/svg" viewBox="0 0 1024 1024"><path d="M976 726c-6-12-10-24-16-36-8-18-16-36-24-52v-2c-72-154-148-310-226-464l-4-6-24-48c-10-18-22-38-38-56-34-40-80-62-130-62-52 0-98 22-132 62-16 18-26 38-36 56-10 16-18 32-26 48l-4 6C238 326 162 482 90 636v2c-8 16-16 34-24 52-4 12-10 24-14 36-14 38-18 74-14 112 12 76 62 140 134 170 26 10 56 16 84 16 10 0 18 0 28-2 34-4 68-16 102-34 42-24 82-58 128-106 44 48 86 82 126 106 34 18 70 30 104 34 8 2 18 2 26 2 30 0 58-6 84-16 72-30 122-94 134-170 4-38 0-74-12-112zm-462 54c-56-70-92-136-104-190-6-24-6-44-4-64 2-16 8-30 16-42 20-28 54-44 92-44 36 0 70 16 90 44 8 12 14 26 16 42 4 20 2 40-4 64-12 54-48 120-102 190zm408 48c-6 54-42 98-92 120-24 10-52 12-80 10-26-4-50-12-78-28-36-20-74-52-116-98 68-84 110-160 124-228 8-32 10-60 4-88-4-26-12-48-26-70-32-46-86-72-144-72-60 0-114 26-146 72-14 22-22 44-26 70-4 28-4 56 4 88 16 68 58 144 124 228-42 46-80 78-116 98-26 16-52 24-78 28-28 2-54 0-80-10-48-22-84-66-92-120-4-26-2-52 8-80 4-10 8-20 14-32 8-16 16-34 24-50v-2c70-154 146-308 224-462l4-6c8-16 16-32 24-46 10-18 18-32 30-46 22-26 50-38 82-38s60 12 80 38c12 14 20 28 30 44l24 48 4 6c78 154 154 308 224 462 8 18 16 34 24 52 6 12 10 22 14 32 10 28 12 54 8 80z"/></svg>