<svg xmlns="http://www.w3.org/2000/svg" viewBox="0 0 1024 1024"><path d="M262.144 406.528c-7.168 0-15.36 0-22.528-4.096L89.088 338.944c-30.72-11.264-41.984-45.056-30.72-75.776s45.056-41.984 75.776-30.72l151.552 64.512c30.72 11.264 41.984 45.056 30.72 75.776-8.192 18.432-30.72 33.792-54.272 33.792zm650.24 279.552c-7.168 0-15.36 0-22.528-4.096l-143.36-64.512c-30.72-11.264-41.984-45.056-30.72-75.776s45.056-41.984 75.776-30.72l143.36 64.512c30.72 11.264 41.984 45.056 30.72 75.776-11.264 23.552-30.72 34.816-53.248 34.816zm-588.8 279.552c-7.168 0-15.36 0-22.528-4.096-30.72-11.264-41.984-45.056-30.72-75.776l87.04-199.68c11.264-30.72 45.056-41.984 75.776-30.72s41.984 45.056 30.72 75.776L375.808 931.84c-11.264 18.432-33.792 33.792-52.224 33.792zm302.08-702.464c-7.168 0-15.36 0-22.528-4.096-30.72-11.264-41.984-45.056-30.72-75.776l37.888-91.136c11.264-30.72 45.056-41.984 75.776-30.72s41.984 45.056 30.72 75.776l-37.888 91.136c-12.288 19.456-30.72 34.816-53.248 34.816zM661.504 1024c-22.528 0-45.056-15.36-53.248-33.792l-78.848-200.704c-11.264-30.72 4.096-60.416 30.72-75.776 30.72-11.264 60.416 4.096 75.776 30.72l78.848 200.704c11.264 30.72-4.096 60.416-30.72 75.776-7.168 3.072-15.36 3.072-22.528 3.072zm71.68-559.104c-22.528 0-45.056-15.36-53.248-33.792-11.264-30.72 4.096-60.416 30.72-75.776L911.36 276.48c30.72-11.264 60.416 4.096 75.776 30.72 11.264 30.72-4.096 60.416-30.72 75.776L755.712 460.8c-7.168 4.096-15.36 4.096-22.528 4.096zM377.856 313.344c-22.528 0-45.056-15.36-53.248-33.792L245.76 79.872c-11.264-30.72 4.096-60.416 30.72-75.776 30.72-11.264 60.416 4.096 75.776 30.72l78.848 200.704c11.264 30.72-4.096 60.416-30.72 75.776-7.168 2.048-15.36 2.048-22.528 2.048zM91.136 721.92c-22.528 0-45.056-15.36-53.248-33.792-11.264-30.72 4.096-60.416 30.72-75.776l132.096-53.248c30.72-11.264 64.512 4.096 75.776 30.72 11.264 30.72-4.096 60.416-30.72 75.776l-132.096 53.248c-8.192 3.072-15.36 3.072-22.528 3.072z"/></svg>