<svg xmlns="http://www.w3.org/2000/svg" viewBox="0 0 1024 1024"><path d="M580.608 247.808l-3.072-2.048L136.192 5.12C130.048 2.048 121.856 0 113.664 0 87.04 0 64.512 20.48 64.512 46.08V527.36c1.024 25.6 22.528 46.08 50.176 46.08 7.168 0 13.312-1.024 19.456-4.096l9.216-5.12 438.272-239.616c13.312-8.192 21.504-22.528 21.504-38.912-1.024-14.336-9.216-28.672-22.528-37.888zM773.12 750.592l-2.048-1.024-369.664-202.752c-6.144-3.072-12.288-4.096-19.456-4.096-22.528 0-40.96 17.408-41.984 38.912v403.456c1.024 21.504 19.456 38.912 41.984 38.912 6.144 0 11.264-1.024 16.384-3.072l8.192-4.096 363.52-198.656 3.072-2.048c11.264-7.168 18.432-19.456 18.432-32.768s-7.168-25.6-18.432-32.768zm175.104-313.344l-2.048-1.024-233.472-128-3.072-2.048c-4.096-2.048-8.192-3.072-12.288-3.072-14.336 0-26.624 11.264-26.624 24.576V588.8c0 13.312 12.288 24.576 26.624 24.576 4.096 0 7.168-1.024 10.24-2.048l5.12-3.072 235.52-129.024c7.168-4.096 11.264-12.288 11.264-21.504 0-8.192-4.096-16.384-11.264-20.48z"/></svg>