<svg xmlns="http://www.w3.org/2000/svg" viewBox="0 0 1024 1024"><path d="M1024 934.912H633.856l77.824-86.016c3.072-3.072 3.072-13.312 3.072-28.672V284.672l-256 650.24-277.504-606.208c-7.168-15.36-13.312-35.84-18.432-52.224v450.56c0 18.432-1.024 21.504 12.288 38.912l117.76 168.96H0l118.784-168.96c13.312-17.408 11.264-20.48 11.264-38.912V261.12c0-20.48 3.072-22.528-6.144-33.792L32.768 89.088h276.48L547.84 618.496 755.712 89.088H1024l-71.68 89.088c-10.24 10.24-10.24 19.456-10.24 35.84V819.2c0 15.36 0 24.576 4.096 28.672l77.824 87.04z"/></svg>