<svg xmlns="http://www.w3.org/2000/svg" viewBox="0 0 1024 1024"><path d="M512 0C230 0 0 230 0 512s230 512 512 512 512-230 512-512S794 0 512 0zM394 152c56 0 100 44 100 100 0 58-44 102-100 102-58 0-102-44-102-102 0-56 44-100 102-100zM136 512c0-56 46-102 102-102s100 46 100 102-44 102-100 102-102-46-102-102zm258 360c-58 0-102-44-102-100 0-58 44-102 102-102 56 0 100 44 100 102 0 56-44 100-100 100zm242-308H464V460h172zm198 142c-36 54-86 96-144 124l-40-88c88-40 142-128 142-228 0-52-14-100-40-142-24-40-60-72-102-92l42-86c58 28 106 72 142 128s54 122 54 192c0 68-18 136-54 192z"/></svg>