<svg xmlns="http://www.w3.org/2000/svg" viewBox="0 0 1024 1024"><path d="M512 353.28c-88.064 0-158.72 71.68-158.72 158.72S424.96 670.72 512 670.72 670.72 599.04 670.72 512 600.064 353.28 512 353.28zm0 284.672c-69.632 0-125.952-56.32-125.952-125.952S442.368 386.048 512 386.048 637.952 442.368 637.952 512 581.632 637.952 512 637.952zm254.976-175.104c-19.456-7.168-34.816-21.504-43.008-38.912-7.168-18.432-7.168-38.912 2.048-58.368 13.312-26.624 14.336-48.128 5.12-63.488-12.288-19.456-38.912-21.504-73.728-5.12-10.24 5.12-21.504 7.168-31.744 7.168-29.696 0-55.296-18.432-65.536-48.128-14.336-40.96-34.816-49.152-48.128-49.152-14.336 0-33.792 8.192-49.152 49.152-10.24 28.672-35.84 48.128-65.536 48.128-11.264 0-21.504-2.048-31.744-7.168-34.816-16.384-61.44-13.312-73.728 5.12-9.216 15.36-8.192 35.84 5.12 63.488 9.216 19.456 10.24 39.936 2.048 58.368-7.168 18.432-22.528 32.768-43.008 38.912-40.96 14.336-49.152 34.816-49.152 49.152s8.192 33.792 49.152 49.152c19.456 7.168 34.816 21.504 41.984 38.912 7.168 18.432 7.168 38.912-2.048 58.368-13.312 26.624-14.336 48.128-5.12 63.488 12.288 19.456 38.912 21.504 73.728 5.12 10.24-5.12 21.504-7.168 31.744-7.168 29.696 0 55.296 18.432 65.536 48.128 14.336 40.96 34.816 49.152 48.128 49.152s33.792-8.192 49.152-49.152c10.24-28.672 35.84-48.128 65.536-48.128 11.264 0 21.504 2.048 31.744 7.168 34.816 16.384 61.44 13.312 73.728-5.12 9.216-15.36 8.192-35.84-5.12-63.488-9.216-19.456-10.24-39.936-2.048-58.368 7.168-18.432 22.528-32.768 43.008-38.912 40.96-14.336 49.152-34.816 49.152-49.152s-7.168-33.792-48.128-49.152zm-11.264 65.536c-28.672 10.24-51.2 30.72-62.464 58.368s-10.24 57.344 3.072 84.992c9.216 20.48 8.192 29.696 7.168 30.72 0 0-2.048 1.024-4.096 1.024-4.096 0-12.288-1.024-26.624-8.192-15.36-7.168-30.72-10.24-46.08-10.24-44.032 0-81.92 27.648-97.28 70.656-7.168 20.48-15.36 26.624-16.384 26.624-2.048 0-9.216-6.144-16.384-26.624-15.36-43.008-53.248-70.656-97.28-70.656-16.384 0-31.744 3.072-46.08 10.24s-22.528 8.192-26.624 8.192c-3.072 0-4.096-1.024-4.096-1.024-1.024-1.024-3.072-10.24 7.168-30.72 13.312-27.648 14.336-58.368 3.072-84.992-11.264-27.648-33.792-48.128-62.464-58.368-21.504-7.168-26.624-15.36-26.624-16.384s5.12-9.216 26.624-16.384c28.672-10.24 51.2-30.72 62.464-58.368s10.24-57.344-3.072-84.992c-9.216-20.48-8.192-29.696-7.168-30.72 0 0 2.048-1.024 4.096-1.024 4.096 0 12.288 1.024 26.624 8.192 15.36 7.168 30.72 10.24 46.08 10.24 44.032 0 81.92-27.648 97.28-70.656 7.168-21.504 15.36-26.624 16.384-26.624s9.216 5.12 16.384 26.624c15.36 43.008 53.248 70.656 97.28 70.656 16.384 0 31.744-4.096 46.08-10.24 14.336-7.168 22.528-8.192 26.624-8.192 3.072 0 4.096 1.024 4.096 1.024 1.024 1.024 2.048 10.24-7.168 30.72-13.312 27.648-14.336 58.368-3.072 84.992 11.264 27.648 33.792 48.128 62.464 58.368 21.504 7.168 26.624 15.36 26.624 16.384s-6.144 9.216-26.624 16.384zm102.4 76.8L1024 512l-165.888-93.184L955.392 256l-190.464 3.072L768 68.608l-162.816 97.28L512 0l-93.184 165.888L256 68.608l3.072 189.44L68.608 256l97.28 162.816L0 512l165.888 93.184L68.608 768l190.464-3.072L256 955.392l162.816-97.28L512 1024l93.184-165.888L768 955.392l-3.072-190.464L955.392 768l-97.28-162.816zm-123.904 291.84l-142.336-83.968L512 956.416l-80.896-144.384-141.312 84.992 2.048-164.864-164.864 2.048 83.968-141.312L67.584 512l144.384-80.896L128 288.768l164.864 2.048-2.048-164.864 142.336 83.968L512 67.584l80.896 144.384L735.232 128l-2.048 164.864 164.864-2.048-84.992 142.336L956.416 512l-144.384 80.896L896 734.208l-164.864-2.048 3.072 164.864z"/></svg>