<svg xmlns="http://www.w3.org/2000/svg" viewBox="0 0 1024 1024"><path d="M513.731 878.029c-41.81.01-72.468 30.7-72.468 72.53 0 41.206 31.754 73.421 72.387 73.431 40.346.01 73.462-32.87 73.452-72.96-.01-41.564-31.611-73.011-73.37-73.001zm-266.691 0c-41.759-.02-73.134 30.966-73.196 72.284-.061 40.786 32.287 73.595 72.653 73.687 40.509.092 73.062-32.471 73.124-73.134.061-41.595-31.048-72.817-72.581-72.837zm536.381 0c-41.892 0-72.581 30.679-72.591 72.581-.01 41.257 31.857 73.462 72.612 73.38 40.397-.082 73.124-32.922 73.165-73.411.051-41.083-31.703-72.55-73.185-72.55zM564.869 237.701c-22.057-20.767-48.63-28.283-78.141-18.248-29.235 9.943-46.94 30.833-51.692 61.286-4.147 26.604-1.014 53.565-1.751 80.353-.225 8.12 2.703 11.131 10.977 10.977 22.17-.42 44.349-.143 66.529-.143 21.627 0 43.254.031 64.891-.01 11.346-.031 11.93-.635 11.95-12.257.041-22.723.051-45.445-.01-68.168-.061-21.094-7.772-39.68-22.753-53.791zm408.822-17.602C927.324 147.456 862.27 96.39 785.357 59.925 681.278 10.589 571.321-6.83 456.817 2.345c-75.254 6.031-147.384 24.044-215.695 56.371-70.154 33.198-131.328 78.07-177.132 141.568-58.184 80.66-79.165 169.277-52.449 266.609C29.922 533.811 68.23 588.544 119.43 634.471c9.738 8.735 14.029 18.309 13.455 30.894-.522 11.387-3.615 22.118-7.731 32.614-10.015 25.569-23.286 49.541-36.526 73.503-9.933 17.971-20.234 35.738-30.29 53.647-1.126 2.007-3.308 4.25-1.167 6.687 1.72 1.956 4.147.737 6.216.317 6.984-1.423 14.008-2.693 20.879-4.495 59.085-15.503 117.514-33.403 175.206-53.32 44.042-15.196 88.279-17.357 133.581-10.578 39.578 5.919 79.309 9.687 125.307 10.394 12.339-.737 30.659-1.556 48.927-2.959 75.274-5.796 147.395-23.982 215.695-56.3 70.154-33.198 130.959-78.336 177.224-141.507 39.404-53.801 62.228-113.797 63.652-180.726 1.321-62.474-16.609-119.972-50.166-172.544zM671.58 563.886c-.041 16.691-11.848 28.385-28.457 28.426-34.509.092-69.007.031-103.516.031-30.392 0-60.805.502-91.187-.154-24.064-.522-48.128-1.331-72.202-1.516-16.271-.133-27.126-11.602-27.156-27.74-.102-54.221-.143-108.442-.123-162.662 0-15.217 8.376-25.569 23.368-27.914 6.38-.993 8.172-3.912 8.141-9.759-.123-22.456.266-44.913-.01-67.359-.778-63.171 39.793-118.139 101.898-130.857 39.977-8.182 79.165-1.341 111.729 27.064 30.812 26.88 47.36 60.14 46.551 101.612-.451 22.723.143 45.455-.02 68.178-.051 6.738 1.516 10.301 9.288 11.244 13.691 1.669 21.76 11.684 21.77 25.467.051 55.296.061 110.612-.072 165.939z"/></svg>