<svg xmlns="http://www.w3.org/2000/svg" viewBox="0 0 1024 1024"><path d="M8 864c18-2 20-18 24-32 4-18 8-36 8-56 0-16 4-32 2-48-2-22-4-44-6-68v-70-54c0-2 2-6 4-8 0-2 4-6 4-8 0-14 2-24-4-36-4-6-2-16-2-24 2-12 0-22 6-36 4-8 4-18-2-28-2-2-4-6-4-10V248c0-4 4-6 4-10 2-6 2-14 2-20 0-2-6-2-10-2-2 0-4 0-4-2L2 186c-6-4-2-12 0-18 0-6 6-6 12-6 14 2 30-4 44-4 16-2 34-2 50-2s32-2 48-2c12 0 26-2 38-2 6 0 10 2 12 8 6 6 14 12 24 14 6 0 12 4 16 8 16 16 22 34 22 56 0 12 2 24 4 36 2 10 0 18-4 26-6 8-10 16-16 26-10 22-22 40-40 58-4 6-4 8 2 12 8 2 14 6 22 8 6 2 8 6 6 12 0 4-2 6-4 12-4 6-2 12 6 14h4c6 8 14 16 12 30-6 16-6 34 0 52 0 4 2 8 4 10 6 4 6 10 6 18 2 24 2 50 4 74 0 12-2 24-8 34-2 6-2 12-2 18 6 28 0 52-14 72-12 18-16 36-18 56-2 6-4 8-6 10-18 8-32 18-48 28l-6 6c-6 8-14 12-22 12-10 2-18 6-28 8-2 0-4-2-6-2-6-6-12-8-18 0s-16 6-24 6c-14 0-26-2-40-2H12c-2 0-4-2-6-4 2-2 2-2 2-4zm100-60c12 0 20-4 30-10 10-10 22-14 30-28l6-6c2-4 6-8 6-12 2-26 8-50 14-74 4-14 2-28 0-44 0-4-4-8-4-14s0-12 2-18c4-10 4-18-2-26-2-4-2-8-4-12-2-14 8-26 4-40 0-4 0-10-2-16 0-6-4-12-4-16 2-12-4-16-10-22-12-10-24-20-34-28-4-2-6-6-10-8v14c0 20 2 40-4 60-2 6 0 16 2 24 2 14-2 28-8 40-2 2-2 8 0 12 0 4 2 8 2 10v96c0 4-2 6-4 10-2 6-4 10-4 16 0 14 0 28 2 42 0 16 0 32-10 46 2 2 2 2 2 4zm94-556v-2c-4-2-6-2-10-2-6-2-14-4-18-10 0-2-4-4-8-4s-8 2-14 2c-4 2-6 2-6-4-6 0-8 4-8 8 0 2-2 6-2 8-2 2-4 6-4 10v110h8c10 4 14-2 18-10 2-2 2-6 4-10 4-8 12-14 22-14 6-2 8-4 8-10 0-14-2-30 4-42v-6c-4-8-8-20 6-24zm186 558h46c2 0 4-2 6-4 8-8 16-12 28-8l30 6c12 2 26 0 38-8 4-4 10-4 16-6 12 0 24-2 34-2h148c6 0 6 2 6 8v54c0 10 2 18 6 26 2 2 2 4 4 8h-66c-4 0-8-2-12-4l-2-2c-10 2-18-2-28-6-2 0-4 0-6-2-4-6-12-4-18-4h-42c-6 0-8-2-12-6-6-4-14-4-22-4-40 0-82 0-122-2-6 0-10-2-14-4-16-6-32-8-46 2-10 8-20 16-28 22-2 2-4 2-6 2h-48c-2 0-4-2-6-4 2-8 8-16 16-18 2-2 6-4 8-6 16-8 22-18 20-36 0-4 2-6 2-10 4-4 4-6 0-10-2-4-2-6-2-10v-30c0-4 0-10 4-14 2-2 0-10 2-14 0-4 2-6 4-10 4-4 2-14-4-20-6-4-6-10-6-16v-60c0-4 2-6 2-10 2-2 2-4 2-8-2-16 0-30 2-48 2-8 2-16 4-24 0-10 0-22 2-32 0-4 2-6 2-8 6-8 6-16 0-24-2-2-2-6-2-10v-76c0-4-2-6-4-10 0-2-2-6-2-8v-24c0-10 2-18 10-24 0-2 2-4 2-6v-36-4c-8-6-4-12 0-18 10-18 2-36-6-52-2-2-8-4-12-4-4-2-6-2-10-6-6-10-16-18-24-28 0 0 0-2 2-2 4-8 4-8 12-2 2 0 6 2 8 2h34c2 0 8 2 10 4 6 6 10 10 16 8 2 0 4 0 6 2 8 8 16 16 22 24 2 2 4 4 4 6v48c0 2-2 6-2 8-6 6-6 10 0 16s8 10 8 18c-2 6 2 14-6 18v124c0 2 0 6 2 8 12 6 12 18 12 28 0 36-2 70-4 106v4c-10 16-6 36-2 54 2 10 2 22 2 32 0 0-2 2-4 2-8 6-8 16-4 24 2 4 2 10 0 12-4 6-4 12-4 16 0 8 2 16-4 22-2 0-2 4-2 6v22c0 6 0 12-4 16s-4 8 0 12 4 10 6 14h-2zm402-498c-4-2-4-6-4-12 2-4 2-10 0-16s0-12 4-16c2-4 4-8 4-12v-88c0-14 0-12 12-12h178c4 0 10-2 14 4 0 2 4 2 6 4-6 14-14 28-20 40-4 6-6 10-6 18 2 10-2 18-10 26-4 4-8 8-6 18 2 6-2 12-8 18-4 4-4 10-6 16-2 20-6 38-14 56-4 10-2 22-2 34s0 24-2 34c0 10-4 16-8 24-4 12-6 24-14 36-2 4-2 10 0 16 0 6-2 10-6 14-10 8-14 16-12 28v6c2 34-2 66-16 98-2 4-2 8-2 14 2 22-6 42-14 60-6 10-10 22-14 32 0 4-2 8-4 12 0 2 0 6 2 6 2 2 6 0 8 0s6-2 8-2c10 0 18 0 28-2 2 0 6-4 6-6 0-14 12-20 24-24l48-24c6-2 12-10 18-16 8 8 18 4 26 6 6 0 10 2 14 6 4 6 4 10 0 14-4 8-4 16 0 24 2 6 4 10 4 16v40c0 8-8 16-16 16h-68c-4 0-8-4-12-6-4 0-10-2-16-4h-10c-2 0-6 0-10 2-10 10-18 14-30 12-14 0-24 0-36 2-8 0-16 4-24 8-14 6-16-2-16-14 0-8 2-18 2-26 0-2 0-4 2-6 6-4 6-12 4-20 0-2 2-6 4-8 8-6 10-12 8-22 0-4 2-8 2-10 2-4 4-10 4-14 2-6 0-10 2-14 8-22 8-42-2-64-6-14-8-30-6-48 0-16 2-34 6-50 2-14 8-28 14-40 6-16 12-36 20-52 2-4 2-8-2-12-2-2-2-10 0-12 4-6 6-12 6-20 0-4 4-10 6-14 8-16 16-30 14-50v-6c10-24 20-50 38-72 2-2 2-4 2-6 0-8 0-16 6-22 2-2-2-10-8-10h-22c-2 0-6 0-6-2-4-6-10-8-18-8-22 4-24 4-32 22-6 16-8 34-12 52 0 4-2 8-4 14s-4 8-10 8-12 4-16 6zm-60 308c4 8 8 6 12 2s8-10 10-16c4-12 4-12 18-10 0 10 2 20 2 30 0 2-2 2-2 4-10 10-14 22-14 34 0 22 0 44 2 66 0 6-2 8-6 10-4 0-6 2-8 4-8 6-16 6-24 6h-40c-6 0-10 0-14-6-4-4-18 0-22 4-10 10-14 10-24 4-4-2-10-4-16-4-10-2-18-2-28 0-6 0-10-2-12-8 12-12 8-24 8-38 0-4-2-10 4-14 2-2 2-8 2-10 0-4-2-6-4-8-4-8-8-14-4-22 2-2 0-6 0-8-8-16-2-32 0-50 4-14 6-30 10-46 4-12 12-22 20-34 2-6 4-12 8-16 6-12 12-24 18-34 2-6 4-10 6-14 6-20 12-38 16-56 2-8 6-12 12-18 4-2 6-6 10-10 6-8 14-14 18-24 2-2 4-6 4-8 0-8-2-16-2-24 0-6 4-10 6-12 4-8 10-14 16-22 4-4 6-10 10-14 10-8 12-16 12-26-2-10 0-20 0-28-10-2-20-2-28-2h-22c-16-2-28 4-40 12s-16 16-18 28c0 4-2 6-6 8-2 2-6 4-10 6-4 4-8 10-6 16 0 10-2 20 0 28 0 14-4 26-14 36 0 0-2 0-2-2l-12-48c0-6 4-14 4-20 2-12 2-22-8-30-2-2-2-4-2-6 0-16-2-30 0-44 0-6 4-14 6-20h172v26c0 4 2 8 2 12 2 4 2 6 2 10v104c-8 10-8 22-6 34 0 4-2 6-2 8-6 14-14 26-20 40-6 10-10 18-12 30-2 6-2 14-2 20s0 8-6 12c-6 2-10 4-14 8-12 8-12 22-12 34v6c-8 12-16 20-22 30-8 20-18 42-26 62 0 4-2 8-2 12 0 12-4 20-8 32-8 22-18 46-26 66-2 6 2 12 8 10 6 0 10-2 14-4 10-6 22-10 34-12 10 0 18-6 22-14 6-10 12-18 18-26s14-14 22-16c2 0 6-4 6-6 4-6 4-12 6-18l6-6zM412 168c4-8 6-8 12-8h102c6 0 8 4 10 8s0 8-4 10c-12 6-24 12-26 26-2 4 0 10 2 16 4 4 6 10 0 14-6 6-6 12-6 18v42c2 30 2 60 2 88 0 6 0 12-2 16 0 10 2 22 6 32 0 4 2 8 2 14 0 2-2 4-2 6-2 6-8 10-6 16 0 22 4 42 4 62 2 10 4 20-6 28-4 2-6 10-4 14 2 14 2 28 8 42 8 16 4 34 2 52 0 2-2 6-4 8-4 4-6 8-4 16 0 4 2 10 4 14 2 6 6 10 10 12 6 6 14 10 22 14s10 12 10 20h-58c-8 0-18 0-26 2-6 2-12 4-18 8-8 6-8 6-16-4 8-6 16-14 24-22 2-2 4-6 4-10 2-22 4-46 6-68 0-4 2-6 2-10 2-6 4-12 2-16-8-12-6-24 2-38v-8-96-144c0-2-2-6 0-6 8-6 2-10 0-18-4-10-2-22-4-32 0-20-2-40-2-62 0-8-2-18-2-28 0-6-4-10-10-12-6-4-12-4-18-10-6-2-12-2-18-6z"/></svg>