<svg xmlns="http://www.w3.org/2000/svg" viewBox="0 0 1024 1024"><path d="M1024 356.352c0-2.048-1.024-5.12-1.024-7.168v-3.072c-1.024-5.12-3.072-10.24-6.144-15.36 0 0 0-1.024-1.024-1.024 0-1.024-1.024-1.024-1.024-1.024-3.072-4.096-7.168-9.216-12.288-12.288L539.648 9.216c-2.048-1.024-3.072-2.048-5.12-2.048-2.048-1.024-3.072-2.048-5.12-2.048-11.264-4.096-22.528-4.096-33.792 0-2.048 1.024-3.072 1.024-5.12 2.048s-3.072 1.024-5.12 2.048l-462.848 307.2c-5.12 3.072-8.192 7.168-12.288 12.288 0 1.024-1.024 1.024-1.024 1.024s0 1.024-1.024 1.024c-3.072 5.12-5.12 10.24-6.144 15.36v3.072c0 2.048-1.024 5.12-1.024 7.168v312.32c0 2.048 1.024 5.12 1.024 7.168v3.072c1.024 5.12 3.072 10.24 6.144 15.36 0 0 0 1.024 1.024 1.024 0 1.024 1.024 1.024 1.024 1.024 3.072 4.096 7.168 9.216 12.288 12.288l462.848 307.2c2.048 1.024 3.072 2.048 5.12 2.048 2.048 1.024 3.072 2.048 5.12 2.048 5.12 2.048 11.264 3.072 16.384 3.072s11.264-1.024 16.384-3.072c2.048-1.024 3.072-1.024 5.12-2.048s3.072-1.024 5.12-2.048l463.872-307.2c1.024-1.024 1.024-2.048 2.048-2.048 2.048-1.024 3.072-3.072 5.12-4.096 1.024-1.024 3.072-3.072 4.096-5.12 1.024-1.024 2.048-2.048 2.048-3.072 0 0 0-1.024 1.024-1.024 3.072-5.12 5.12-10.24 6.144-15.36v-3.072c0-2.048 1.024-5.12 1.024-7.168V356.352zM512 609.28L366.592 512 512 414.72 657.408 512 512 609.28zm48.128-279.552V138.24l327.68 217.088-144.384 97.28-183.296-122.88zm-96.256 0l-183.296 122.88-144.384-97.28 327.68-217.088v191.488zM193.536 512L97.28 576.512V446.464L193.536 512zm87.04 58.368l183.296 122.88v191.488l-327.68-217.088 144.384-97.28zm279.552 122.88l183.296-122.88 144.384 97.28-327.68 217.088V693.248zM830.464 512l96.256-64.512v130.048L830.464 512z"/></svg>