<svg xmlns="http://www.w3.org/2000/svg" viewBox="0 0 1024 1024"><path d="M1024 719.872C899.072 502.784 774.144 287.744 648.192 69.632c-46.08 79.872-91.136 156.672-136.192 235.52-45.056-78.848-90.112-155.648-136.192-235.52C249.856 287.744 125.952 502.784 0 720.896h272.384c-45.056 78.848-90.112 155.648-135.168 233.472h749.568c-45.056-78.848-89.088-155.648-135.168-234.496H1024zm-750.592 0C353.28 581.632 432.128 444.416 512 305.152c79.872 138.24 158.72 274.432 238.592 413.696-159.744 1.024-317.44 1.024-477.184 1.024z"/></svg>