<svg xmlns="http://www.w3.org/2000/svg" viewBox="0 0 1024 1024"><path d="M103.424 614.4V420.864c0-10.24 0-10.24-9.216-15.36-12.288-7.168-25.6-13.312-37.888-20.48-4.096-1.024-5.12-3.072-5.12-7.168v-102.4c0-6.144 0-6.144 6.144-3.072 11.264 6.144 23.552 11.264 34.816 17.408 30.72 15.36 61.44 30.72 92.16 47.104a17568.131 17568.131 0 0 1 195.584 99.328c17.408 8.192 33.792 17.408 51.2 26.624 6.144 3.072 6.144 3.072 10.24-2.048 40.96-45.056 81.92-91.136 123.904-136.192 36.864-40.96 74.752-81.92 111.616-122.88l3.072-3.072c4.096-4.096 4.096-4.096 9.216-1.024 15.36 8.192 31.744 15.36 47.104 23.552 39.936 20.48 79.872 39.936 119.808 60.416 36.864 18.432 74.752 37.888 111.616 56.32 4.096 2.048 6.144 5.12 6.144 10.24v99.328c0 5.12 0 6.144-6.144 3.072-11.264-6.144-22.528-11.264-34.816-17.408l-6.144-3.072c-4.096-1.024-5.12-1.024-5.12 3.072v381.952c1.024 5.12-2.048 7.168-6.144 9.216l-86.016 43.008-236.544 119.808c-24.576 12.288-49.152 24.576-72.704 36.864-5.12 3.072-9.216 3.072-15.36 0-66.56-33.792-134.144-67.584-200.704-101.376-64.512-32.768-128-64.512-192.512-97.28-2.048-1.024-3.072-2.048-5.12-2.048-2.048-1.024-3.072-3.072-3.072-5.12v-6.144V614.4zm645.12-5.12c1.024 2.048 1.024 5.12 1.024 7.168v167.936c0 8.192 1.024 9.216 8.192 5.12 27.648-13.312 54.272-27.648 81.92-40.96 1.024 0 1.024-1.024 2.048-1.024 4.096-2.048 6.144-4.096 6.144-9.216v-6.144-189.44-147.456c0-6.144-2.048-9.216-7.168-12.288-41.984-21.504-83.968-43.008-125.952-63.488-1.024 0-2.048-1.024-3.072-1.024-4.096-1.024-5.12-1.024-7.168 0l-3.072 3.072c-36.864 39.936-73.728 79.872-109.568 119.808-41.984 46.08-84.992 93.184-126.976 139.264-5.12 5.12-5.12 5.12-11.264 2.048-31.744-16.384-63.488-31.744-95.232-48.128-48.128-24.576-97.28-49.152-145.408-73.728-10.24-5.12-10.24-5.12-10.24 6.144v283.648c0 3.072 1.024 5.12 4.096 6.144 1.024 1.024 3.072 1.024 4.096 2.048 84.992 43.008 171.008 84.992 256 128 12.288 6.144 25.6 12.288 37.888 19.456 5.12 3.072 9.216 3.072 14.336 0l36.864-18.432 86.016-43.008c5.12-2.048 7.168-5.12 6.144-10.24v-6.144-164.864c0-5.12 2.048-8.192 6.144-10.24 28.672-14.336 58.368-28.672 87.04-43.008 3.072 0 5.12-2.048 7.168-1.024zM228.352 133.12V79.872c0-4.096 1.024-8.192 4.096-11.264C251.904 47.104 271.36 25.6 291.84 3.072c4.096-4.096 4.096-4.096 9.216-2.048 32.768 16.384 64.512 32.768 97.28 49.152 4.096 2.048 5.12 4.096 5.12 8.192v94.208c0 4.096-2.048 7.168-4.096 10.24-20.48 22.528-40.96 46.08-61.44 68.608-2.048 2.048-4.096 5.12-6.144 7.168-4.096 4.096-4.096 4.096-9.216 2.048-13.312-6.144-25.6-13.312-38.912-19.456-16.384-8.192-31.744-16.384-48.128-23.552-5.12-2.048-6.144-5.12-6.144-10.24-1.024-18.432-1.024-36.864-1.024-54.272z"/></svg>