<svg xmlns="http://www.w3.org/2000/svg" viewBox="0 0 1024 1024"><path d="M128 720c-22 0-52-4-80-28-30-26-48-68-48-114V164h144v414c0 72 32 110 50 124-12 8-38 18-66 18zm452-12h-14V352c0-112 90-202 200-202 94 0 178 68 196 158l2 4h52v144h-48v50c0 30 24 56 54 58v142c-106-4-194-92-194-200V350c0-32-26-60-60-60-30 0-56 24-58 54v60h80v142h-80v20c0 48-16 90-46 114-26 20-52 28-84 28zM322 870c-30 0-62-4-94-14V728c20 6 48 14 74 14h12c44-4 74-26 78-58l2-20-14 14s-28 26-72 26c-14 0-26-2-40-4-70-20-86-78-86-124V312h144v224c0 18 12 30 30 30 16 0 30-14 30-30V314h142v352c0 102-60 178-150 196-18 8-36 8-56 8z"/></svg>