<svg xmlns="http://www.w3.org/2000/svg" viewBox="0 0 1024 1024"><path d="M506 404c46-6 80-14 102-24 36-14 54-40 54-70 0-40-14-68-42-82-28-16-70-24-124-24-60 0-102 16-128 44-18 22-30 52-36 90H88c4-86 28-154 70-208C226 44 340 0 504 0c108 0 202 22 286 64 82 42 124 122 124 238v446c0 30 0 68 2 112 2 32 6 56 14 68 10 12 22 22 38 30v36H692c-8-20-14-38-16-56-4-18-6-36-8-58-34 38-76 70-122 96-54 32-116 48-184 48-88 0-162-24-220-74S56 828 56 736c0-120 46-206 138-260 52-28 126-50 224-62zm156 118c-16 10-34 18-50 24s-38 14-68 18l-58 10c-54 10-92 22-116 36-40 22-60 58-60 106 0 44 12 76 36 96 24 18 54 28 90 28 54 0 106-16 152-48 48-32 72-90 74-176z"/></svg>