<svg xmlns="http://www.w3.org/2000/svg" viewBox="0 0 1024 1024"><path d="M432 270c-84 0-162 26-228 68-8 6-14 10-22 10H82c-22 0-40 18-40 38h-2v600c0 20 18 36 40 36h128c22 0 40-16 40-36V644c0-98 82-176 184-176 100 0 182 78 182 176v342c0 20 18 38 40 38h128c20 0 40-18 40-38V644c-2-206-174-374-390-374zm544 2C858 108 658 0 432 0 332 0 238 20 152 58c-14 6-20 22-14 38 8 14 24 20 38 14 78-36 164-54 256-54 206 0 390 98 500 250 8 12 26 14 38 6 14-10 16-28 6-40zM432 126c-78 0-154 16-224 46-14 8-20 22-14 36 8 16 24 22 38 16 62-28 130-42 202-42 156 0 306 72 396 194 4 8 14 12 22 12 6 0 12-2 16-6 12-10 14-26 6-38-102-136-268-218-442-218z"/></svg>