<svg xmlns="http://www.w3.org/2000/svg" viewBox="0 0 1024 1024"><path d="M512 90c234 0 422 188 422 422S746 934 512 934 90 746 90 512 278 90 512 90m0-90C230 0 0 230 0 512s230 512 512 512 512-230 512-512S794 0 512 0zm422 284V98c0-2-2-4-2-6-2 0-4-2-6-2H738c12 66 136 180 196 194zM92 740v188c0 2 0 4 2 4 0 2 2 2 4 2h188c-10-66-134-178-194-194zm646 192h188c2 0 4 0 6-2 0 0 2-2 2-4V738c-68 10-180 134-196 194zM286 90H98c-2 0-4 0-4 2-2 2-2 2-2 4v188c66-10 178-134 194-194zm-48 200h158s-8 36-6 54c8 68 52 260 52 260l74-300 76 294s44-258 44-276c0-16-16-34-16-34h164s-34 32-46 76c-16 56-66 342-66 360 0 30 20 52 20 52H538s4-16 4-42-24-152-24-152-30 130-30 154c0 22 10 40 10 40H338s30-22 30-42c-4-60-86-364-92-388-10-40-38-56-38-56z"/></svg>