<svg xmlns="http://www.w3.org/2000/svg" viewBox="0 0 1024 1024"><path d="M898 238c-126-94-246-90-246-90l-12 14c150 44 218 110 218 110-92-48-182-74-264-82-64-8-124-6-178 2-4 0-8 0-14 2-32 2-106 14-200 54-34 16-52 26-52 26s72-70 230-114l-10-10s-120-4-246 90c0 0-126 228-126 508 0 0 74 126 268 132 0 0 34-40 58-72-112-34-152-102-152-102s8 6 24 14l2 2c4 2 6 4 8 6 22 12 44 20 66 28 36 16 78 28 128 38 66 12 144 18 228 2 40-8 82-20 126-38 32-12 66-28 102-52 0 0-44 70-158 102 26 34 58 72 58 72 194-6 266-132 266-132 2-282-124-510-124-510zM348 664c-48 0-88-44-88-96 0-54 40-96 88-96 50 0 90 42 90 96 0 52-40 96-90 96zm320 0c-48 0-88-44-88-96 0-54 40-96 88-96 50 0 90 42 90 96 0 52-40 96-90 96z"/></svg>