<svg xmlns="http://www.w3.org/2000/svg" viewBox="0 0 1024 1024"><path d="M512 0C229.233 0 0 229.233 0 512s229.233 512 512 512 512-229.233 512-512S794.767 0 512 0zm245.76 655.36c-52.183 0-97.71-27.965-122.788-69.642-.031.051-.061.113-.092.164-.031-.051-.061-.113-.092-.164C609.71 627.395 564.183 655.36 512 655.36s-97.71-27.965-122.788-69.642c-.031.051-.061.113-.092.164-.031-.051-.061-.113-.092-.164-25.078 41.677-70.605 69.642-122.788 69.642-79.176 0-143.36-64.184-143.36-143.36s64.184-143.36 143.36-143.36c52.183 0 97.71 27.965 122.788 69.642.031-.051.061-.113.092-.164.031.051.061.113.092.164C414.29 396.605 459.817 368.64 512 368.64s97.71 27.965 122.788 69.642c.031-.051.061-.113.092-.164.031.051.061.113.092.164 25.078-41.677 70.605-69.642 122.788-69.642 79.176 0 143.36 64.184 143.36 143.36s-64.184 143.36-143.36 143.36z"/></svg>