<svg xmlns="http://www.w3.org/2000/svg" viewBox="0 0 1024 1024"><path d="M840.306.66c-213.137 0-251.89 303.559-132.403 303.559S1053.444.66 840.306.66zm-352 264.807c64.587 3.229 132.403-242.201 12.917-229.284-119.486 16.147-77.504 226.055-12.917 229.284zM194.435 420.476c45.211-19.376 6.459-216.367-71.046-161.468-77.504 51.67 25.835 180.844 71.046 161.468zm129.174-103.339c51.67-9.688 54.899-232.513-41.982-193.761-93.651 41.982-12.917 203.449 41.982 193.761zm280.954 497.32c9.688 74.275-54.899 109.798-116.257 61.358-196.991-151.78 326.165-226.055 290.642-429.504-25.835-171.156-548.99-119.486-610.348 148.55-38.752 180.844 164.697 429.504 381.064 429.504 106.569 0 229.284-96.881 251.89-216.367 16.147-93.651-203.449-54.899-196.991 6.459z"/></svg>