<svg xmlns="http://www.w3.org/2000/svg" viewBox="0 0 1024 1024"><path d="M757.76 731.136l-66.56-66.56c-57.344-57.344-244.736-258.048-244.736-446.464 0-29.696 4.096-58.368 12.288-86.016H157.696c-60.416 0-108.544 48.128-108.544 108.544v675.84c0 60.416 48.128 108.544 108.544 108.544h675.84c60.416 0 108.544-48.128 108.544-108.544V528.384c-32.768 43.008-71.68 88.064-117.76 135.168l-66.56 67.584zM335.872 929.792c-106.496 0-192.512-84.992-192.512-191.488s86.016-192.512 192.512-192.512c50.176 0 94.208 19.456 128 50.176L409.6 650.24c-20.48-17.408-46.08-27.648-74.752-27.648-63.488 0-115.712 52.224-115.712 115.712s52.224 115.712 115.712 115.712c53.248 0 90.112-31.744 103.424-76.8h-102.4v-73.728h180.224c15.36 75.776-12.288 226.304-180.224 226.304zm638.976-712.704C974.848 97.28 877.568 0 756.736 0S539.648 97.28 539.648 217.088s113.664 277.504 217.088 379.904C880.64 472.064 974.848 337.92 974.848 217.088zM665.6 206.848c0-50.176 40.96-91.136 91.136-91.136s91.136 40.96 91.136 91.136c0 50.176-40.96 91.136-91.136 91.136s-91.136-40.96-91.136-91.136z"/></svg>