<svg xmlns="http://www.w3.org/2000/svg" viewBox="0 0 1024 1024"><path d="M352 100zm190-40c-68 0-132 14-190 40 4 2 6 4 10 8l30 30 2 2 344 344c-106 62-188 146-248 256L144 394l-4-4c-10-12-22-22-32-32-2-2-4-4-6-8 52-114 134-198 252-248l-2-2c-30-30-60-58-88-88-12-10-22-14-36-6-18 8-34 18-50 28-56 38-102 84-140 138-12 18-24 36-34 58-6 12-6 20 6 30l90 90c-26 58-38 124-38 190 0 266 216 482 480 482 266 0 482-216 482-482 0-264-216-480-482-480zm50 718c40-92 104-154 192-196 16 82 32 160 48 246-84-18-160-34-240-50z"/></svg>