<svg xmlns="http://www.w3.org/2000/svg" viewBox="0 0 1024 1024"><path d="M920.576 414.72c-41.984-29.696-93.184-45.056-144.384-44.032H757.76c-43.008 3.072-83.968 17.408-119.808 41.984V140.288h-99.328v700.416h99.328v-25.6c110.592 77.824 263.168 51.2 340.992-59.392s51.2-263.168-58.368-340.992zm-6.144 218.112v4.096c-1.024 6.144-2.048 11.264-4.096 17.408s-4.096 12.288-7.168 17.408v2.048c-19.456 39.936-55.296 67.584-98.304 76.8l-13.312 2.048H749.568c-12.288-2.048-24.576-6.144-35.84-11.264h-3.072c-11.264-5.12-21.504-12.288-31.744-21.504-9.216-8.192-17.408-18.432-24.576-29.696-3.072-5.12-6.144-11.264-9.216-17.408-16.384-36.864-15.36-78.848 2.048-115.712 21.504-44.032 63.488-74.752 112.64-79.872h14.336c74.752 1.024 136.192 60.416 138.24 136.192 3.072 7.168 3.072 13.312 2.048 19.456zM304.128 486.4c30.72 14.336 55.296 39.936 68.608 70.656H481.28c-31.744-131.072-163.84-211.968-294.912-180.224C55.296 409.6-24.576 541.696 7.168 672.768s163.84 211.968 294.912 180.224c89.088-21.504 158.72-91.136 180.224-180.224H371.712C338.944 742.4 254.976 773.12 185.344 740.352S84.992 623.616 117.76 553.984c32.768-70.656 116.736-100.352 186.368-67.584z"/></svg>