<svg xmlns="http://www.w3.org/2000/svg" viewBox="0 0 1024 1024"><path d="M996.352 784.384c-1.024-1.024-1.024-2.048-2.048-3.072v-1.024c-3.072-5.12-5.12-10.24-8.192-15.36-1.024-1.024-1.024-2.048-2.048-3.072s-1.024-2.048-2.048-3.072-1.024-2.048-2.048-3.072-1.024-2.048-2.048-3.072-1.024-2.048-2.048-2.048l-2.048-2.048-2.048-2.048-2.048-2.048c-1.024-1.024-2.048-1.024-2.048-2.048-2.048-1.024-3.072-2.048-5.12-2.048-15.36-5.12-35.84 10.24-50.176 18.432s-36.864 17.408-39.936 33.792c-4.096 15.36 11.264 37.888 20.48 54.272 4.096 8.192 19.456 19.456 25.6 25.6 26.624 17.408 49.152 36.864 47.104 70.656v4.096c0 2.048 0 4.096-1.024 5.12 37.888-43.008 41.984-71.68 45.056-109.568 1.024-10.24-1.024-24.576-2.048-32.768-4.096-10.24-6.144-18.432-11.264-25.6zM583.68 86.016c-1.024-1.024-1.024-2.048-2.048-3.072V81.92c-1.024-1.024-2.048-2.048-2.048-3.072-1.024-1.024-2.048-2.048-3.072-2.048-1.024-1.024-2.048-1.024-3.072-2.048-9.216-3.072-17.408-3.072-25.6 2.048l-51.2 29.696c-12.288 7.168-16.384 22.528-9.216 34.816l302.08 520.192 95.232-55.296L583.68 86.016zm311.296 536.576c-1.024 0-2.048 1.024-2.048 1.024-31.744 18.432-61.44 35.84-93.184 54.272l53.248 91.136 2.048 4.096 95.232-55.296-55.296-95.232zM451.584 308.224l-96.256-53.248-256 451.584 96.256 54.272 2.048-4.096zm39.936-70.656c7.168-12.288 3.072-27.648-9.216-34.816l-51.2-28.672c-9.216-5.12-19.456-4.096-26.624 1.024-1.024 1.024-2.048 1.024-3.072 2.048s-2.048 2.048-2.048 3.072v1.024c-1.024 1.024-1.024 2.048-2.048 3.072l-28.672 51.2 96.256 53.248 26.624-51.2zM34.816 927.744l150.528-150.528c-31.744-18.432-63.488-35.84-96.256-54.272l-54.272 204.8zm171.008-459.776l2.048-3.072H2.048L0 574.464h145.408zm443.392 0l-2.048-2.048-258.048-1.024-2.048 3.072-59.392 107.52h384l-62.464-107.52zm185.344-2.048l65.536 110.592H1024V465.92z"/></svg>