<svg xmlns="http://www.w3.org/2000/svg" viewBox="0 0 1024 1024"><path d="M0 56.32c0-5.12 2.048-10.24 9.216-10.24 55.296-3.072 137.216-4.096 222.208-4.096 238.592 0 342.016 131.072 342.016 299.008 0 219.136-158.72 313.344-353.28 313.344-32.768 0-44.032-2.048-67.584-2.048v331.776c0 7.168-3.072 9.216-9.216 9.216H10.24c-7.168 0-9.216-3.072-9.216-9.216L0 56.32zm153.6 457.728c20.48 2.048 35.84 2.048 69.632 2.048 100.352 0 195.584-35.84 195.584-172.032 0-109.568-67.584-164.864-182.272-164.864-34.816 0-67.584 2.048-81.92 3.072L153.6 514.048zm513.024-60.416c-5.12 0-7.168-3.072-7.168-9.216V325.632c0-7.168 2.048-9.216 7.168-9.216h79.872v-44.032c0-53.248 9.216-98.304 28.672-137.216C809.984 63.488 871.424 30.72 956.416 30.72c25.6 0 44.032 2.048 58.368 7.168 7.168 3.072 9.216 5.12 9.216 12.288V163.84c0 7.168-3.072 9.216-9.216 9.216-11.264-3.072-27.648-4.096-37.888-4.096-49.152 0-74.752 35.84-74.752 104.448v44.032h112.64c7.168 0 9.216 2.048 9.216 7.168v118.784c0 7.168-2.048 9.216-9.216 9.216h-112.64v531.456c0 5.12-2.048 9.216-9.216 9.216H756.736c-7.168 0-9.216-4.096-9.216-9.216V452.608l-80.896 1.024z"/></svg>