<svg xmlns="http://www.w3.org/2000/svg" viewBox="0 0 1024 1024"><path d="M548 876l88-64v-8c0-40 32-74 72-74s74 34 74 74-34 72-74 72c-14 0-28-4-38-12l-122 88v72h-72V808l-124-90c-12 6-24 10-36 10-40 0-74-34-74-74s34-72 74-72 72 32 72 72c0 4 0 8-2 12l90 66V516l-124-90c-12 6-24 10-36 10-40 0-74-34-74-74s34-72 74-72 72 32 72 72c0 4 0 10-2 14l90 64V238l-126-92c-10 6-22 10-34 10-40 0-74-32-74-72s34-74 74-74 72 34 72 74c0 4 0 8-2 12l90 66V0h72v306l88-64v-10c0-40 32-74 72-74s74 34 74 74-34 72-74 72c-14 0-26-4-38-10l-122 88v202l88-64v-8c0-42 32-74 72-74s74 32 74 74c0 40-34 72-74 72-14 0-26-4-38-12l-122 90v214z"/></svg>