<svg xmlns="http://www.w3.org/2000/svg" viewBox="0 0 1024 1024"><path d="M344.064 467.968c-15.36-7.168-32.768-1.024-40.96 13.312l-60.416 120.832c-7.168 15.36-1.024 32.768 13.312 40.96 4.096 2.048 9.216 3.072 13.312 3.072 11.264 0 21.504-6.144 26.624-16.384l60.416-120.832c9.216-15.36 3.072-33.792-12.288-40.96zm422.912-120.832c-15.36-7.168-32.768-1.024-40.96 13.312L606.208 602.112c-7.168 15.36-1.024 32.768 13.312 40.96 4.096 2.048 9.216 3.072 13.312 3.072 11.264 0 21.504-6.144 26.624-16.384l120.832-241.664c8.192-15.36 2.048-33.792-13.312-40.96zm-120.832 0c-15.36-7.168-32.768-1.024-40.96 13.312L545.792 481.28c-7.168 15.36-1.024 32.768 13.312 40.96 4.096 2.048 9.216 3.072 13.312 3.072 11.264 0 21.504-6.144 26.624-16.384l60.416-120.832c8.192-15.36 2.048-33.792-13.312-40.96zm-120.832 0c-15.36-7.168-32.768-1.024-40.96 13.312L363.52 602.112c-7.168 15.36-1.024 32.768 13.312 40.96 4.096 2.048 9.216 3.072 13.312 3.072 11.264 0 21.504-6.144 26.624-16.384L537.6 388.096c9.216-15.36 3.072-33.792-12.288-40.96zm415.744-105.472L531.456 5.12c-11.264-7.168-26.624-7.168-37.888 0L82.944 241.664c-11.264 7.168-19.456 19.456-19.456 32.768v474.112c0 13.312 7.168 25.6 19.456 32.768l410.624 236.544c6.144 3.072 12.288 5.12 18.432 5.12s13.312-2.048 19.456-5.12L942.08 781.312c11.264-7.168 19.456-19.456 19.456-32.768V275.456c-1.024-14.336-8.192-26.624-20.48-33.792zm-48.128 472.064c0 11.264-6.144 22.528-16.384 27.648l-348.16 201.728c-5.12 3.072-10.24 4.096-16.384 4.096-5.12 0-11.264-1.024-16.384-4.096L146.432 741.376c-10.24-6.144-16.384-16.384-16.384-27.648V310.272c0-11.264 6.144-22.528 16.384-27.648L495.616 80.896c10.24-6.144 22.528-6.144 31.744 0l349.184 201.728c10.24 6.144 16.384 16.384 16.384 27.648v403.456z"/></svg>