<svg xmlns="http://www.w3.org/2000/svg" viewBox="0 0 1024 1024"><path d="M378 312c-66 0-120 50-120 112s54 112 120 112 120-50 120-112-54-112-120-112zm284-2c-66 0-120 50-120 112 0 64 54 114 120 114 68 0 122-50 122-114 0-62-54-112-122-112zm316 178c-4 2-6 6-16 8V100c0-56-36-100-86-100H158c-50 0-96 44-96 100v396c0-2-6-6-10-8-32-22-50 8-32 36 38 44 106 100 214 144-114 382 274 444 268 246V722c12 2 20 4 28 6v186c-6 198 382 136 270-246 106-44 174-100 210-144 20-28-2-58-32-36zm-66 38c-134 74-254 62-318 60-48-4-64 18-66 48-10-8-22-18-34-28-2-2-2-4-4-6-12-10-26-16-54-14-62 2-190 14-314-58V144c0-70 16-92 80-92h636c60 0 74 28 74 92z"/></svg>