<svg xmlns="http://www.w3.org/2000/svg" viewBox="0 0 1024 1024"><path d="M989.184 335.872c0-222.208-145.408-287.744-145.408-287.744C771.072 15.36 645.12 1.024 514.048 0h-3.072C379.904 1.024 253.952 15.36 180.224 49.152c0 0-145.408 65.536-145.408 287.744 0 51.2-1.024 111.616 1.024 176.128 5.12 217.088 38.912 431.104 240.64 484.352 92.16 24.576 172.032 29.696 236.544 26.624 115.712-6.144 181.248-40.96 181.248-40.96l-4.096-83.968s-82.944 26.624-176.128 22.528c-92.16-3.072-189.44-10.24-204.8-122.88-1.024-10.24-2.048-20.48-2.048-31.744 0 0 91.136 22.528 205.824 27.648 70.656 3.072 136.192-4.096 202.752-12.288 128-15.36 239.616-94.208 253.952-166.912 21.504-115.712 19.456-279.552 19.456-279.552zm-171.008 286.72H711.68v-261.12c0-55.296-23.552-82.944-69.632-82.944-51.2 0-76.8 32.768-76.8 98.304v143.36H458.752v-143.36c0-65.536-25.6-98.304-76.8-98.304-46.08 0-69.632 27.648-69.632 82.944v261.12H205.824V353.28c0-55.296 14.336-98.304 41.984-131.072 28.672-32.768 66.56-49.152 113.664-49.152 54.272 0 96.256 20.48 122.88 62.464l26.624 44.032L537.6 235.52c27.648-41.984 68.608-62.464 122.88-62.464 47.104 0 84.992 16.384 113.664 49.152 27.648 32.768 41.984 75.776 41.984 131.072v269.312z"/></svg>