<svg xmlns="http://www.w3.org/2000/svg" viewBox="0 0 1024 1024"><path d="M918 324c-18-72-48-136-98-188C748 66 646 30 512 30c-132 0-234 36-306 106-50 52-80 116-98 186C48 332 0 386 0 450v132c0 72 58 130 130 130V560l86 50c6 2 12 4 18 4h170c10 0 20-4 30-12 0-2 0-2 2-2l52-64s10-12 24-12c8 0 16 2 24 10l52 66c2 0 2 2 2 2 10 8 20 12 30 12h170c6 0 12-2 18-4l86-50v114L652 956H506c-10 0-18 8-18 18s8 18 18 18h162l248-284c62-10 108-64 108-128V450c0-62-46-116-106-126zM498 522l2-2c0 2-2 2-2 2zm26 0c2 0 2 0 0 0zm266-238H234c-6 0-12 0-18 4l-70 40c16-64 44-122 88-166 64-62 154-94 278-94s216 32 280 94c44 44 70 102 88 166l-72-42c-6-2-12-2-18-2z"/></svg>