<svg xmlns="http://www.w3.org/2000/svg" viewBox="0 0 1024 1024"><path d="M0 742h186v56H0zm0-74h186v56H0zm0-74h186v56H0zm0-74h186v56H0zm0-74h186v56H0zm208 296h188v56H208zm0-74h188v56H208zm0-74h188v56H208zm210 148h188v56H418zm0-74h188v56H418zm0-74h188v56H418zm0-74h188v56H418zm0-74h188v56H418zm0-72h188v56H418zm0-74h188v56H418zm210 442h186v56H628zm0-74h186v56H628zm0-74h186v56H628zm0-74h186v56H628zm0-74h186v56H628zm210 296h186v56H838zm0-74h186v56H838zm0-74h186v56H838zm0-74h186v56H838zm0-74h186v56H838zm0-72h186v56H838zm0-74h186v56H838zm0-74h186v56H838z"/></svg>