<svg xmlns="http://www.w3.org/2000/svg" viewBox="0 0 1024 1024"><path d="M210.8 963.8H271v60.2h-60.2v-60.2zM271.1 0v120.5h-60.2V241h-60.2v120.5H90.4V482H30.1v120.5h361.4V723h-60.2v120.5h-60.2V964h60.2v-60.2h60.2v-60.2h60.2v-60.2H512v-60.2h60.2V663h60.2v-60.2h60.2v-60.2h60.2v-60.2H813v-60.2h60.2V362h60.2v-60.2H752.9v-60.2h60.2v-60.2h60.2v-60.2h60.2v-61h60.2V0H271.1zm421.6 481.9h-60.2v-60.2h60.2v60.2zm60.2-301.2h-60.2v60.2h-60.2v60.2h-60.2v60.2H512v60.2h60.2v60.2H512v-60.2h-60.2v60.2h-60.2v-60.2h-60.2v60.2h-60.2v-60.2H211v-60.2h60.2V240.9h60.2V120.5H753v60.2zM271.1 361.4h60.2v60.2h-60.2v-60.2zm120.4 0h60.2v60.2h-60.2v-60.2z"/></svg>