<svg xmlns="http://www.w3.org/2000/svg" viewBox="0 0 1024 1024"><path d="M481.28 0c0 4.096-1.024 9.216-1.024 13.312v352.256c0 4.096 0 9.216 1.024 17.408 13.312-13.312 22.528-24.576 33.792-33.792 121.856-106.496 320.512-80.896 403.456 76.8 28.672 54.272 43.008 112.64 48.128 173.056 6.144 70.656 2.048 141.312-17.408 209.92-17.408 59.392-45.056 112.64-93.184 153.6-106.496 91.136-269.312 79.872-363.52-25.6-9.216-10.24-13.312-9.216-22.528 0-20.48 21.504-40.96 41.984-61.44 62.464-6.144 6.144-13.312 9.216-21.504 9.216h-225.28c-13.312 0-16.384-4.096-16.384-16.384V222.208c0-21.504 0-21.504-20.48-21.504-17.408 0-34.816-1.024-51.2 0-13.312 1.024-17.408-3.072-17.408-16.384 1.024-61.44 0-122.88 0-184.32h424.96zm-1.024 654.336V757.76c0 16.384 4.096 30.72 11.264 45.056 12.288 24.576 31.744 34.816 58.368 34.816s44.032-13.312 54.272-35.84c8.192-18.432 11.264-36.864 11.264-57.344v-179.2c0-16.384-2.048-32.768-8.192-49.152-10.24-28.672-30.72-43.008-59.392-43.008s-50.176 14.336-60.416 43.008c-4.096 11.264-7.168 23.552-7.168 36.864v101.376z"/></svg>