<svg xmlns="http://www.w3.org/2000/svg" viewBox="0 0 1024 1024"><path d="M1024 512c0 282.778-229.222 512-512 512S0 794.778 0 512 229.222 0 512 0s512 229.222 512 512zM292.014 750.93c10.445 0 18.975-10.138 18.975-22.528v-410.04c0-12.39-8.53-22.528-18.944-22.528-10.445 0-18.975 10.138-18.975 22.528v410.03c0 12.39 8.53 22.528 18.944 22.538zm447.55 7.598c10.414 0 18.944-10.168 18.944-22.528V325.908c0-12.39-8.53-22.528-18.944-22.528-10.445 0-18.944 10.138-18.944 22.528V736c-.01 12.39 8.489 22.528 18.944 22.528zm-341.33-189.645c10.414 0 18.944-10.65 18.944-23.706V365.055c0-13.025-8.53-23.706-18.944-23.706-10.445 0-18.975 10.67-18.975 23.706v180.142c0 13.056 8.53 23.706 18.944 23.706l.031-.02zm227.532 0c10.445 0 18.964-10.65 18.964-23.706V365.055c0-13.025-8.53-23.706-18.944-23.706-10.445 0-18.964 10.67-18.964 23.706v180.142c0 13.056 8.53 23.706 18.944 23.706v-.02zM512 644.731c10.414 0 18.944-10.291 18.944-22.886V402.177c0-12.595-8.53-22.886-18.944-22.886s-18.944 10.291-18.944 22.886v219.699c0 12.595 8.53 22.886 18.944 22.886v-.031z"/></svg>