<svg xmlns="http://www.w3.org/2000/svg" viewBox="0 0 1024 1024"><path d="M900 134s0 2 2 2c-2 0-2 0-2-2M328 496c2 2 2 4 4 4l-4-4M178 182c2 0 2-2 4-2 0 2 2 2 2 2h-6m-94-40v-4 4M28 386c0 2-2 2-2 2l2-2c0-2 2-4 2-6-2 0-2 2-2 6m440-62c2 0 4-2 6-4 2 0 2 0 2-2l-6 6s-2 0-4 2c2 0 2-2 2-2m18-16v-4c0-2 2-4 2-6l2-4h2c-2 2-2 4-2 6v2c0 2-2 4-4 6m6-22v4-2-2m2 4c2 0 2 0 0 0 2 0 0 0 0 0v0m480 340c0 2 0 2 0 0-2 2-2 4-4 6 2-2 2-4 4-6 30-58 66-170 38-268v-4c-2-2-2-4-2-6v-2l-2-2c0 2-8 26-18 62 6-54 2-112-18-164-10-26-20-46-32-62-14-24-30-42-42-50l2 2-2-2c0 2 2 6 4 16-26-40-64-60-70-62h-2l6 36c-40-32-90-58-146-74 94 62 128 114 150 162-24-26-68-52-96-56 42 32 114 128 108 272-20-50-46-70-46-70v2l-2-2c8 52 8 90 8 118v34c-4 24-8 40-12 58-6-24-12-36-12-36v0s-2 46-32 110c-2 6-6 14-10 20 0 0 0 2-2 2 0 2 0 2-2 4l-2 4s0 2-2 2c0 2 0 2-2 4-12 14-20 22-28 24-2 2-4 2-6 2s-2-2-4-2c2-6 2-12 0-16 0 0-8 2-14 10-4 4-6 8-10 10l6-8c-4 2-8 6-12 10-14 14-26 32-34 26 8-2 12-10 14-18-6 4-20 16-52 20-14 2-68 12-142-24 10-2 26-6 38 2-12-14-42-10-62-18-20-6-44-32-58-44 50 12 102 6 138-12 2-2 4-2 6-4 4-2 6-4 10-6 20-14 50-36 68-38 2 0 4 0 6 2 18 4 30-14 16-32-14-16-50-38-96-28-38 10-68 40-120 18-4 0-6-2-10-4-2-2 10 2 8 0-10-4-28-12-34-14 0-2 8 0 8 0-10-6-18-10-24-16 0 0-2 0-2-2l-2-2-4-4-2-2c-16-20-12-40-8-50 2-10 10-18 14-22h2c8 2 12 4 12 4l-6-6c2 0 2 0 2-2 6 2 18 8 24 10 10 4 14 10 14 10s2-2 0-6c-2-2-4-8-14-12 6 2 10 4 16 6 2-8 4-16 2-30-2-10 0-12-4-16-2-2 2-4 4-2 0-2-2-4-2-6-2-4-2-6-6-10 0-2 0-2-2-2l-4-6c-2-2-4-4-4-6 4 8 10 14 12 18 2 2 2 2 4 2 4-6 20-16 38-26 4-2 6-4 8-6-10 6-22 14-30 20s-14 12-16 16c16-18 76-48 90-62 2-2 4-2 4-4 8-6 12-12 14-20 4-8 8-28-4-34-8-2-16-4-30-4h-52c-30 0-46-28-52-40 10-34 30-64 58-88 2 0-8 2-6 0s16-10 18-10c2-2-14-6-28-4-14 4-16 4-24 10h-2c4-4 14-8 12-8-16 4-34 14-50 26v-6c-8 4-24 18-30 28v-6c-4 4-10 10-14 16-14-2-28-6-40-6h-26-4c-16 0-30 4-44 8-12-10-28-26-40-44h-2v2c-8-14-16-38-16-54v0s-12 8-20 34c-2 2-2 4-2 6v4c0-4 0-6 2-8v-2 6c-2 2-2 4-2 6v-2-2l-2 4v-6c0 2-2 4-4 6l2-2c0-2 2-4 2-4v-2c0 2-6 8-6 14-2 4-2 6-4 10v-2c-4 8-8 20-10 32-4 14-6 30-6 52-2 20 0 34 0 38l2-2-2 2v-2c-12 18-20 32-24 40-16 28-30 74-42 144s0 0 2-2c0 0 0 2-2 2 0 0 2-2 4-8v-4c4-10 10-26 20-42-12 38-22 96-16 182s0 0 0 2v-4 2s2-6 2-12v-4c2-10 4-22 8-36 2 58 18 128 62 206 34 60 126 198 356 248h-4 4c-10-2-18-6-26-10l-2-2c-8-4-12-8-14-10 2 0 6 2 14 4 28 8 88 24 136 22h-2-2c-4 0-8-2-10-4-8-4-10-8-10-8h6c32 0 182 2 266-64 20-16 34-34 38-48h-2l-8 4c4-2 6-4 8-4v-4h2s0 2-2 2v2l30-18c16-12 36-26 54-44 2-4 6-6 8-10v-2h2c2-2 2-4 4-6h2c2-2 4-6 6-8 8-10 16-20 20-30l2-2c12-20 20-42 20-68 0 6-2 12-4 18l-2 2 4-4c-2-28-4-44-10-58"/></svg>