<svg xmlns="http://www.w3.org/2000/svg" viewBox="0 0 1024 1024"><path d="M928 214c-214-244-540-92-540-92-18 8-30 14-40 22s-18 16-22 24c-14 30-24 60-32 88-38 50-66 110-76 176-38 54-62 118-66 184C60 592 0 562 0 562c52 30 102 54 152 70 0 32 4 64 12 96 20 70 62 126 116 170-32-36-56-78-70-124-12-42-14-84-10-126 10 4 22 6 34 10 46 140 168 244 318 268 54 24 110 30 162 14 26-10 48-22 68-38l18-18c102-54 178-150 204-266v8s80-234-76-412zm-640 66c-8 38-12 68-14 88-16 14-30 30-44 48 12-50 30-96 58-136zm-14 188c2 50 12 100 30 152 2 8 4 16 8 22-26-2-52-4-76-8-6-26-12-52-14-78 14-32 30-62 52-88zm-72 158c4-16 8-34 14-50 2 18 4 38 10 56l-24-6zm42 34c28 6 54 12 80 14 46 108 118 190 196 236-128-32-232-126-276-250zm566 208c-2-6-22 4-22 4-14 8-28 16-42 20-126 40-272-52-358-212 220 10 370-74 370-74s36 0 30-50c-8-50-44-12-44-12-122 80-254 104-374 102-10-22-18-44-26-66-18-54-26-106-28-158 42-40 98-72 160-90 56-16 114-20 168-12 0 0 10 6 8-20-4-26-22-30-22-30-62-12-130-10-196 8-42 14-80 32-116 56 4-30 12-60 20-86 0 0 10-28 54-50 60-24 244-84 362-34 202 86 242 290 248 396-10 132-84 244-192 308z"/></svg>