<svg xmlns="http://www.w3.org/2000/svg" viewBox="0 0 1024 1024"><path d="M331.96 233.8c0-32.737-23.378-79.493-107.53-79.493H88.832L46.756 331.971h140.278c112.21 0 144.927-51.415 144.927-98.171zm360.049 0c0-32.737-23.378-79.493-107.53-79.493H448.86l-37.396 177.674h140.278c107.53-.01 140.268-51.425 140.268-98.181zM285.204 495.626c0-32.737-23.378-79.503-107.53-79.503H42.076L0 593.848h140.268c112.22 0 144.937-46.756 144.937-98.222zm360.049 0c0-32.737-23.378-79.503-107.53-79.503H402.104l-37.396 177.715h140.278c107.52.01 140.268-46.746 140.268-98.212zM1024 388.096c0-32.737-23.378-79.503-107.561-79.503H780.841l-37.386 177.674h140.268c107.54 0 140.278-46.756 140.278-98.171zm-56.115 275.886c0-32.737-23.378-79.493-107.54-79.493H724.757L687.33 762.163h140.268c112.22 0 140.288-46.766 140.288-98.181zM589.128 771.523c0-32.737-23.368-79.503-107.53-79.503H346l-37.417 177.684h140.278c112.241 0 140.268-51.425 140.268-98.181z"/></svg>