<svg xmlns="http://www.w3.org/2000/svg" viewBox="0 0 1024 1024"><path d="M645.12 320.512c13.312-13.312 13.312-35.84 0-49.152s-35.84-13.312-49.152 0L271.36 595.968c-46.08 46.08-120.832 46.08-166.912 0s-46.08-120.832 0-166.912l261.12-261.12c13.312-13.312 13.312-35.84 0-49.152s-35.84-13.312-49.152 0L55.296 378.88c-72.704 72.704-72.704 192.512 0 265.216s192.512 72.704 265.216 0L645.12 320.512zM162.816 536.576c13.312 13.312 35.84 13.312 49.152 0l324.608-324.608c46.08-46.08 120.832-46.08 166.912 0 13.312 13.312 35.84 13.312 49.152 0s13.312-35.84 0-49.152c-72.704-72.704-192.512-72.704-265.216 0L162.816 487.424c-13.312 13.312-13.312 35.84 0 49.152zm698.368-49.152c-13.312-13.312-35.84-13.312-49.152 0L487.424 812.032c-46.08 46.08-120.832 46.08-166.912 0-13.312-13.312-35.84-13.312-49.152 0s-13.312 35.84 0 49.152c72.704 72.704 192.512 72.704 265.216 0l324.608-324.608c13.312-13.312 13.312-35.84 0-49.152zM703.488 378.88L378.88 703.488c-13.312 13.312-13.312 35.84 0 49.152s35.84 13.312 49.152 0L752.64 428.032c46.08-46.08 120.832-46.08 166.912 0s46.08 120.832 0 166.912l-260.096 261.12c-13.312 13.312-13.312 35.84 0 49.152s35.84 13.312 49.152 0L968.704 645.12c72.704-72.704 72.704-192.512 0-265.216-72.704-73.728-191.488-73.728-265.216-1.024z"/></svg>