<svg xmlns="http://www.w3.org/2000/svg" viewBox="0 0 1024 1024"><path d="M51.2 819.2h308.224c26.624 0 48.128 21.504 48.128 48.128v108.544c0 26.624-21.504 48.128-48.128 48.128H51.2c-26.624 0-48.128-21.504-48.128-48.128V867.328c0-26.624 21.504-48.128 48.128-48.128zm608.256 0H967.68c26.624 0 48.128 21.504 48.128 48.128v108.544c0 26.624-21.504 48.128-48.128 48.128H659.456c-26.624 0-48.128-21.504-48.128-48.128V867.328c0-26.624 21.504-48.128 48.128-48.128zM51.2 409.6h916.48c26.624 0 48.128 21.504 48.128 48.128v108.544c0 26.624-21.504 48.128-48.128 48.128H51.2c-26.624 0-48.128-21.504-48.128-48.128V457.728c0-26.624 21.504-48.128 48.128-48.128zM51.2 0h512c26.624 0 48.128 21.504 48.128 48.128v108.544c0 26.624-21.504 48.128-48.128 48.128h-512c-26.624 0-48.128-21.504-48.128-48.128V48.128C3.072 21.504 24.576 0 51.2 0zm809.984 0H967.68c26.624 0 48.128 21.504 48.128 48.128v108.544c0 26.624-21.504 48.128-48.128 48.128H861.184c-26.624 0-48.128-21.504-48.128-48.128V48.128C813.056 21.504 834.56 0 861.184 0z"/></svg>