<svg xmlns="http://www.w3.org/2000/svg" viewBox="0 0 1024 1024"><path d="M0 574.464c0-242.688 195.584-393.216 411.648-442.368 44.032 5.12 54.272 62.464 25.6 80.896C343.04 246.784 216.064 332.8 216.064 455.68c0 109.568 80.896 145.408 143.36 161.792 44.032 13.312 77.824 54.272 77.824 114.688 0 88.064-80.896 161.792-180.224 161.792C151.552 891.904 0 800.768 0 574.464zm570.368 0c0-242.688 195.584-393.216 411.648-442.368 44.032 5.12 54.272 62.464 25.6 80.896C913.408 246.784 786.432 332.8 786.432 455.68c0 109.568 80.896 145.408 143.36 161.792 44.032 13.312 77.824 54.272 77.824 114.688 0 88.064-80.896 161.792-180.224 161.792-105.472-2.048-257.024-93.184-257.024-319.488z"/></svg>