<svg xmlns="http://www.w3.org/2000/svg" viewBox="0 0 1024 1024"><path d="M512 0C229.233 0 0 229.233 0 512s229.233 512 512 512 512-229.233 512-512C1023.621 229.386 794.614.379 512 0zm350.003 188.457a748.51 748.51 0 0 1-111.606 36.588A433.709 433.709 0 0 0 638.566 51.774a477.312 477.312 0 0 1 223.437 136.684zm-332.749 98.488c67.041-.85 133.847-8.1 199.506-21.627a803.605 803.605 0 0 1 36.362 230.113H529.254V286.945zm0-34.509V36.126c77.322 9.892 144.968 84.91 188.006 196.291a1024.286 1024.286 0 0 1-188.006 20.019zM494.746 36.127v216.31a1022.568 1022.568 0 0 1-188.006-19.794C349.768 120.812 417.424 46.019 494.746 36.127zm0 250.818v207.104H258.878a803.724 803.724 0 0 1 36.362-230.113 1054.18 1054.18 0 0 0 199.506 23.009zM224.133 494.049H35.441a474.677 474.677 0 0 1 102.861-278.897 770.466 770.466 0 0 0 123.802 43.725 825.822 825.822 0 0 0-37.97 235.868v-.696zm0 34.519a825.356 825.356 0 0 0 37.97 236.554 769.187 769.187 0 0 0-123.802 41.882A474.677 474.677 0 0 1 35.44 528.107l188.692.461zm34.744 0h235.868v207.104c-67.041.85-133.847 8.1-199.506 21.627a804.046 804.046 0 0 1-36.362-228.045v-.686zm235.869 242.996v216.31c-77.322-9.892-144.968-84.91-188.006-196.291a1023.417 1023.417 0 0 1 188.006-20.019zm34.508 216.309v-216.31c63.14.778 126.075 7.404 188.006 19.794-43.028 111.831-110.684 186.624-188.006 196.516zm0-250.818V529.951h235.868a803.724 803.724 0 0 1-36.362 230.113 1054.18 1054.18 0 0 0-199.506-23.009zm270.613-207.104h188.692a474.677 474.677 0 0 1-102.861 278.897 769.402 769.402 0 0 0-123.802-43.725 825.822 825.822 0 0 0 37.97-235.868v.696zm0-34.519a825.585 825.585 0 0 0-37.97-237.015 769.187 769.187 0 0 0 123.802-41.882A474.677 474.677 0 0 1 988.56 495.432H799.868zM385.434 51.773a433.78 433.78 0 0 0-112.067 172.81 748.51 748.51 0 0 1-111.606-36.588A477.403 477.403 0 0 1 385.433 51.772zM161.772 834.161a747.36 747.36 0 0 1 111.606-36.588 433.742 433.742 0 0 0 112.067 174.653 477.318 477.318 0 0 1-223.672-136.684v-1.382zm476.794 138.066a433.787 433.787 0 0 0 112.067-173.046 747.36 747.36 0 0 1 111.606 36.588 477.289 477.289 0 0 1-223.672 136.458z"/></svg>