<svg xmlns="http://www.w3.org/2000/svg" viewBox="0 0 1024 1024"><path d="M512 0C229.376 0 0 229.376 0 512s229.376 512 512 512 512-229.376 512-512S794.624 0 512 0zM208.896 755.712c-65.536-80.896-95.232-182.272-83.968-285.696s61.44-195.584 142.336-261.12c58.368-47.104 128-75.776 202.752-83.968l5.12 50.176c-64.512 7.168-125.952 31.744-177.152 72.704-70.656 56.32-114.688 137.216-123.904 227.328s16.384 178.176 72.704 248.832l-37.888 31.744zm606.208 0l-38.912-31.744c40.96-51.2 66.56-111.616 72.704-176.128 10.24-96.256-21.504-186.368-78.848-254.976l-63.488 62.464c4.096 4.096 7.168 9.216 10.24 13.312 78.848 112.64 51.2 269.312-61.44 348.16-36.864 25.6-76.8 39.936-118.784 44.032v88.064c66.56-5.12 132.096-29.696 187.392-73.728l31.744 38.912C686.08 871.424 599.04 900.096 512 900.096s-173.056-28.672-244.736-86.016l31.744-38.912C354.304 819.2 419.84 843.776 486.4 848.896v-88.064c-69.632-7.168-136.192-43.008-179.2-105.472-60.416-86.016-60.416-201.728 0-287.744l40.96 28.672c-48.128 68.608-48.128 160.768 0 229.376 63.488 90.112 188.416 112.64 278.528 49.152S739.328 486.4 675.84 396.288c-63.488-90.112-188.416-112.64-278.528-49.152L368.64 307.2c94.208-65.536 218.112-57.344 302.08 12.288l62.464-62.464c-50.176-44.032-114.688-73.728-186.368-80.896l5.12-50.176C765.952 148.48 921.6 339.968 899.072 552.96c-8.192 74.752-37.888 144.384-83.968 202.752zm-245.76-262.144c-5.12-15.36-15.36-27.648-29.696-34.816s-30.72-8.192-46.08-4.096c-15.36 5.12-27.648 15.36-34.816 29.696-15.36 29.696-3.072 65.536 25.6 80.896l-22.528 45.056c-26.624-13.312-46.08-35.84-54.272-64.512-9.216-27.648-6.144-58.368 7.168-83.968 13.312-26.624 35.84-46.08 64.512-54.272 27.648-9.216 58.368-6.144 83.968 7.168 26.624 13.312 46.08 35.84 54.272 64.512 9.216 27.648 6.144 58.368-7.168 83.968-10.24 20.48-27.648 36.864-48.128 48.128l-22.528-45.056c11.264-6.144 20.48-14.336 25.6-25.6 7.168-16.384 8.192-31.744 4.096-47.104z"/></svg>