<svg xmlns="http://www.w3.org/2000/svg" viewBox="0 0 1024 1024"><path d="M894 304c72 0 128-58 128-128S966 48 894 48c-70 0-126 58-126 128s56 128 126 128zm0 80c-70 0-126 58-126 128s56 128 126 128c72 0 128-58 128-128s-56-128-128-128zm0 336c-70 0-126 58-126 128s56 128 126 128c72 0 128-58 128-128s-56-128-128-128zM508 48c-70 0-128 58-128 128s58 128 128 128 128-58 128-128S578 48 508 48zm0 336c-70 0-128 58-128 128s58 128 128 128 128-58 128-128-58-128-128-128zM126 48C56 48-2 106-2 176s58 128 128 128 128-58 128-128S196 48 126 48z"/></svg>