<svg xmlns="http://www.w3.org/2000/svg" viewBox="0 0 1024 1024"><path d="M846 558c98 0 178 78 178 178v90H666v-90c0-100 80-178 180-178zM682 362c0-90 72-164 164-164 90 0 164 74 164 164 0 92-74 164-164 164-92 0-164-72-164-164zM476 586c88 0 160 72 160 160v80H318v-80c0-88 70-160 158-160zM330 408c0-82 66-148 146-148 82 0 148 66 148 148 0 80-66 146-148 146s-146-66-146-146zM142 610c80 0 144 64 144 144v72H0v-72c0-80 64-144 142-144zM10 450c0-74 60-132 132-132 74 0 132 58 132 132 0 72-58 132-132 132-72 0-132-60-132-132z"/></svg>