<svg xmlns="http://www.w3.org/2000/svg" viewBox="0 0 1024 1024"><path d="M515.072 0v645.12c0 29.696-3.072 56.32-9.216 79.872-41.984 91.136-142.336 101.376-203.776 63.488 0-1.024-1.024-1.024-1.024-2.048s-1.024-2.048-1.024-3.072c-40.96-92.16 10.24-221.184 165.888-198.656v-179.2c-2.048 0-5.12-1.024-7.168-1.024h-5.12c-9.216-1.024-17.408-2.048-26.624-2.048v141.312C271.36 521.216 220.16 650.24 261.12 742.4c8.192 19.456 23.552 34.816 41.984 47.104 18.432 34.816 57.344 57.344 99.328 62.464H450.56c1.024 0 2.048 0 2.048-1.024 1.024 0 1.024 0 2.048-1.024 1.024 0 2.048 0 2.048-1.024 1.024 0 1.024 0 2.048-1.024 1.024 0 1.024 0 2.048-1.024 1.024 0 2.048 0 2.048-1.024 1.024 0 1.024 0 2.048-1.024 1.024 0 2.048-1.024 2.048-1.024 1.024 0 1.024 0 2.048-1.024 1.024 0 2.048-1.024 3.072-1.024s1.024 0 2.048-1.024c1.024 0 2.048-1.024 3.072-1.024s1.024-1.024 2.048-1.024 2.048-1.024 3.072-1.024 1.024-1.024 2.048-1.024 2.048-1.024 3.072-1.024l1.024-1.024c1.024-1.024 2.048-1.024 3.072-2.048l1.024-1.024c1.024-1.024 2.048-1.024 3.072-2.048l1.024-1.024c1.024-1.024 2.048-1.024 3.072-2.048l1.024-1.024c1.024-1.024 2.048-1.024 3.072-2.048l1.024-1.024c1.024-1.024 2.048-1.024 3.072-2.048l1.024-1.024c1.024-1.024 2.048-2.048 3.072-2.048l1.024-1.024 3.072-3.072 1.024-1.024 3.072-3.072 1.024-1.024 3.072-3.072 1.024-1.024 3.072-3.072s0-1.024 1.024-1.024l3.072-3.072s0-1.024 1.024-1.024c1.024-1.024 2.048-2.048 3.072-4.096 0 0 0-1.024 1.024-1.024 1.024-1.024 2.048-3.072 3.072-4.096l1.024-1.024c1.024-1.024 2.048-3.072 2.048-4.096v-1.024c1.024-1.024 2.048-3.072 2.048-4.096v-1.024c1.024-2.048 2.048-3.072 2.048-5.12 1.024-2.048 2.048-4.096 3.072-5.12 6.144-23.552 9.216-50.176 9.216-79.872V39.936h130.048c-2.048-13.312-4.096-27.648-4.096-41.984H515.072zM424.96 401.408V363.52c-324.608-51.2-461.824 356.352-250.88 540.672-144.384-188.416-23.552-516.096 250.88-502.784zm525.312-113.664c-5.12 0-10.24-1.024-15.36-1.024h-5.12c-6.144-1.024-13.312-2.048-19.456-3.072V245.76c-63.488-4.096-109.568-23.552-143.36-50.176-24.576-33.792-36.864-70.656-43.008-100.352v-2.048-2.048-2.048-2.048c-4.096-22.528-4.096-38.912-4.096-43.008v-2.048h-35.84c7.168 41.984 27.648 107.52 83.968 153.6 20.48 28.672 49.152 54.272 90.112 71.68 2.048 1.024 5.12 2.048 8.192 3.072s6.144 2.048 8.192 3.072c4.096 1.024 7.168 2.048 11.264 3.072h1.024c4.096 1.024 8.192 2.048 11.264 3.072h1.024c2.048 0 4.096 1.024 5.12 1.024h1.024c2.048 0 4.096 1.024 6.144 1.024v130.048c-17.408 1.024-149.504-8.192-231.424-81.92V655.36c2.048 147.456-79.872 291.84-233.472 320.512-43.008 8.192-81.92 9.216-146.432-5.12-50.176-15.36-92.16-37.888-124.928-66.56 24.576 31.744 55.296 58.368 95.232 79.872h1.024c5.12 3.072 10.24 5.12 15.36 7.168 0 2.048 0 2.048 1.024 2.048 1.024 1.024 2.048 1.024 4.096 2.048 1.024 0 2.048 1.024 3.072 1.024s2.048 1.024 3.072 1.024c1.024 1.024 3.072 1.024 4.096 2.048 1.024 0 2.048 1.024 3.072 1.024 2.048 1.024 5.12 2.048 7.168 3.072 1.024 0 1.024 1.024 2.048 1.024 2.048 1.024 4.096 1.024 5.12 2.048 1.024 0 2.048 1.024 3.072 1.024 2.048 1.024 4.096 1.024 5.12 2.048 1.024 0 2.048 1.024 2.048 1.024 3.072 1.024 5.12 2.048 8.192 2.048 64.512 14.336 103.424 13.312 146.432 5.12 153.6-28.672 235.52-173.056 233.472-320.512V371.712c81.92 73.728 215.04 82.944 231.424 81.92 1.024-165.888 1.024 34.816 1.024-165.888z"/></svg>