<svg xmlns="http://www.w3.org/2000/svg" viewBox="0 0 1024 1024"><path d="M734 190h-2c-44-28-88-42-132-68-6-2-10-6-16-10-30-20-72-70-108-112-2 22-6 38-10 52-10 30-22 48-38 60 0 2-2 2-4 4-50 40-82 52-126 74-2 2-8 6-14 10-26 16-72 48-116 98-54 64-104 156-104 284 0 82 22 156 60 220 40 68 98 124 168 162v2c2 0 4 0 4 2 2 0 2 0 4 2 0 0 2 0 4 2 0 0 2 0 4 2h2c0 2 2 2 4 4 62 30 132 46 202 46 238 0 444-172 444-434S766 210 734 190zm6 742c-4 4-50 36-102 40-54 6-126 8-170-30-6-8-4-18 0-22 6-4 10-6 16-6s4 0 8 2c18 16 48 28 112 28 62 0 108-18 126-32 10-8 14-2 14 2 2 4 4 10-4 18zm-172-90c10-10 28-26 46-34 16-6 26-4 40-4 16 0 34 0 46 8s18 26 22 36 0 16-8 20c-6 4-8 2-14-12-8-12-14-26-48-26s-46 12-62 26-22 20-28 12-4-16 6-26zm262 8c-36-4-108-114-152-116-58-2-182 120-280 120-58 0-76-10-96-22-30-22-44-52-44-96 2-76 74-148 164-150 116 0 196 114 254 114 48-2 144-98 190-98 50 0 62 52 62 82s-8 86-32 120-40 48-66 46z"/></svg>