<svg xmlns="http://www.w3.org/2000/svg" viewBox="0 0 1024 1024"><path d="M1016 428H718l212-212c-16-24-36-46-56-66s-42-40-66-56L596 306V8c-26-6-54-8-84-8-28 0-58 2-84 8v298L216 94c-24 16-46 36-66 56s-40 42-56 66l212 210H8s-8 56-8 84c0 30 2 58 8 86h298L94 808c32 48 74 88 122 122l210-212v300c28 4 56 8 84 8h2c28 0 58-4 84-8V718l212 212c24-16 46-36 66-56s40-42 56-66L718 596h298c6-26 8-56 8-84 0-30-2-58-8-84m-376 84c0 38-8 74-20 108-34 12-70 20-108 20s-74-8-108-20c-12-34-20-70-20-108s8-74 20-108c34-12 70-20 108-20s74 8 108 20c12 34 20 70 20 108z"/></svg>