<svg xmlns="http://www.w3.org/2000/svg" viewBox="0 0 1024 1024"><path d="M494.592 221.184c77.824 1.024 151.552 33.792 205.824 90.112-2.048-23.552 15.36-44.032 39.936-46.08h8.192c25.6 1.024 46.08 21.504 46.08 48.128V721.92c-2.048 14.336 7.168 27.648 21.504 30.72 8.192 1.024 16.384-1.024 22.528-7.168 64.512-67.584 142.336-347.136-39.936-508.928-146.432-128-358.4-145.408-522.24-40.96C128 305.152 73.728 502.784 144.384 672.768c87.04 204.8 337.92 265.216 487.424 204.8 75.776-30.72 110.592 72.704 31.744 106.496-118.784 51.2-447.488 46.08-602.112-224.256C-41.984 577.536-35.84 257.024 239.616 91.136 451.584-35.84 723.968-1.024 897.024 176.128c175.104 185.344 164.864 532.48-6.144 667.648-52.224 39.936-126.976 30.72-166.912-22.528-14.336-19.456-23.552-41.984-24.576-65.536l-1.024-28.672c-54.272 55.296-126.976 86.016-203.776 86.016C332.8 811.008 203.776 678.912 203.776 517.12S332.8 224.256 494.592 221.184zm194.56 285.696c-1.024-102.4-83.968-184.32-186.368-183.296H493.568c-116.736 0-182.272 93.184-182.272 198.656 0 118.784 78.848 193.536 181.248 193.536 105.472 2.048 192.512-80.896 195.584-185.344 1.024 0 1.024-23.552 1.024-23.552z"/></svg>