<svg xmlns="http://www.w3.org/2000/svg" viewBox="0 0 1024 1024"><path d="M666.624 262.144c17.408 3.072 33.792 9.216 49.152 16.384 55.296 27.648 76.8 80.896 54.272 139.264-12.288 33.792-32.768 63.488-54.272 91.136-31.744 39.936-64.512 79.872-97.28 119.808-8.192 9.216-15.36 19.456-21.504 30.72-13.312 22.528-6.144 33.792 19.456 33.792 35.84-1.024 70.656-6.144 106.496-12.288 93.184-17.408 182.272-49.152 270.336-84.992 4.096-2.048 7.168-3.072 11.264-4.096 5.12-3.072 10.24-6.144 19.456-7.168-4.096 6.144-9.216 8.192-13.312 10.24-120.832 67.584-245.76 126.976-381.952 157.696-24.576 5.12-49.152 7.168-74.752 4.096-38.912-5.12-57.344-31.744-46.08-69.632 9.216-32.768 30.72-58.368 52.224-82.944 40.96-48.128 83.968-93.184 120.832-143.36 10.24-14.336 19.456-28.672 28.672-43.008 7.168-12.288 12.288-25.6 12.288-39.936-1.024-3.072-1.024-5.12-2.048-8.192-5.12-15.36-16.384-24.576-29.696-32.768-31.744-17.408-67.584-26.624-102.4-36.864-7.168-2.048-12.288 3.072-17.408 6.144s0 5.12 2.048 7.168c8.192 7.168 16.384 13.312 25.6 21.504-30.72 6.144-59.392 11.264-88.064 17.408-81.92 17.408-160.768 40.96-239.616 68.608-7.168 3.072-11.264 5.12-6.144 13.312 13.312 19.456 8.192 34.816-10.24 49.152-11.264 8.192-20.48 19.456-31.744 30.72 70.656 18.432 134.144 7.168 192.512-30.72 6.144-4.096 4.096-6.144 0-10.24-3.072-3.072-6.144-5.12-9.216-8.192 19.456-4.096 41.984 19.456 41.984 44.032 0 5.12-3.072 6.144-7.168 6.144s-6.144 0-7.168-5.12c-4.096-17.408-4.096-17.408-18.432-8.192-64.512 39.936-132.096 50.176-204.8 29.696-9.216-2.048-14.336-4.096-13.312 9.216 1.024 16.384 5.12 33.792-1.024 47.104s-25.6 14.336-38.912 22.528c-17.408 11.264-33.792 22.528-47.104 39.936-9.216 12.288-13.312 24.576-10.24 39.936 3.072 3.072 5.12 7.168 5.12 11.264 25.6 19.456 55.296 23.552 84.992 24.576 71.68 3.072 141.312-11.264 209.92-27.648 2.048-1.024 4.096-1.024 7.168-1.024 1.024 0 1.024 1.024 4.096 1.024-38.912 19.456-76.8 36.864-116.736 48.128-52.224 15.36-105.472 24.576-159.744 23.552-23.552 0-46.08-5.12-68.608-13.312-50.176-20.48-72.704-62.464-61.44-115.712 6.144-36.864 23.552-66.56 43.008-95.232C128 425.984 240.64 348.16 374.784 299.008c53.248-19.456 107.52-33.792 162.816-40.96 0-1.024 64.512-7.168 129.024 4.096z"/></svg>