<svg xmlns="http://www.w3.org/2000/svg" viewBox="0 0 1024 1024"><path d="M512 518c144 0 260-116 260-258C772 116 656 0 512 0S252 116 252 260c0 142 116 258 260 258zm0-386c70 0 128 56 128 128 0 70-58 126-128 126s-128-56-128-126c0-72 58-128 128-128zm298 418c-14-30-54-54-108-12-74 58-190 58-190 58s-116 0-190-58c-54-42-94-18-108 12-26 52 2 76 68 118 56 36 132 48 180 54l-40 42c-58 56-114 112-154 152-22 22-22 60 0 84l8 6c24 24 60 24 84 0l152-152c58 58 114 114 154 152 22 24 60 24 84 0l6-6c24-24 24-62 0-84L562 722c50-6 126-18 180-54 66-42 94-66 68-118z"/></svg>