<svg xmlns="http://www.w3.org/2000/svg" viewBox="0 0 1024 1024"><path d="M935.936 231.424H593.92L771.072 54.272c5.12-5.12 5.12-14.336 0-20.48L741.376 4.096c-5.12-5.12-14.336-5.12-20.48 0L508.928 216.064 296.96 4.096c-5.12-5.12-14.336-5.12-20.48 0l-29.696 29.696c-5.12 5.12-5.12 14.336 0 20.48l177.152 177.152H88.064c-38.912 0-70.656 31.744-70.656 70.656v543.744c0 38.912 31.744 70.656 70.656 70.656H179.2c0 1.024 1.024 2.048 2.048 2.048l83.968 99.328c3.072 3.072 6.144 5.12 10.24 5.12s7.168-2.048 10.24-4.096l94.208-99.328c1.024-1.024 2.048-2.048 2.048-3.072H634.88c0 1.024 1.024 2.048 2.048 2.048l83.968 99.328c3.072 3.072 6.144 5.12 10.24 5.12s7.168-2.048 10.24-4.096l94.208-99.328c1.024-1.024 2.048-2.048 2.048-3.072h96.256c38.912 0 70.656-31.744 70.656-70.656V302.08c2.048-38.912-29.696-70.656-68.608-70.656zm-552.96 161.792S191.488 412.672 187.392 604.16v28.672c0 38.912-37.888 69.632-76.8 69.632s-56.32-31.744-56.32-70.656V338.944c0-38.912 31.744-70.656 70.656-70.656h258.048c38.912 0 70.656 5.12 70.656 51.2 1.024 38.912-11.264 70.656-70.656 73.728z"/></svg>