<svg xmlns="http://www.w3.org/2000/svg" viewBox="0 0 1024 1024"><path d="M1012 592c-6-14-14-26-22-38-28-32-60-58-92-80-4-2-6-6-10-4 22-2 40-6 60-16 14-8 20-20 18-38 0-14-6-26-12-40-16-24-38-42-60-58-12-8-24-14-38-22-4-2-6-4-2-8 4-6 6-10 8-16 18-34 38-68 54-104 4-10 10-20 12-32v-14c0-2 0-2-2-4-2 0-4 2-4 2-2 4-4 10-8 14-14 22-28 48-44 70-14 24-28 48-44 72-2 4-4 4-8 2-26-10-50-18-74-26-32-10-66-18-98-22-4 0-8-2-10-6-2-6-6-12-10-18-34-60-74-118-124-166-22-20-48-38-82-42h-8c-10 2-18 4-26 10-16 10-26 24-32 42-16 32-24 66-28 102 0 12-2 24-2 36-4 0-4-4-6-6-10-12-22-24-36-32-10-8-22-8-36-2-18 8-30 24-40 42-10 26-16 52-16 80v36c0 4-2 6-6 6h-18c-24 2-50 2-74 4-22 0-44 2-64 6-6 0-12 2-18 6-2 0-6 2-4 4 0 2 4 2 6 2 32 2 62 2 96 2 24 2 46 2 70 2 2 0 4 0 6 2 10 0 10 0 10 10 8 58 22 114 44 168 2 4 0 8-2 10-6 12-12 22-20 34-28 48-50 98-64 152-8 30-14 58-10 88s22 48 48 56c18 4 38 4 56 0 32-6 64-16 94-30 10-4 16-8 26-12-2 6-4 10-6 16-4 10-8 20-8 32-4 22 2 36 24 46 6 2 14 4 20 6 16 2 34 0 48-2 32-8 58-22 86-38 4-4 6-4 10 2 16 26 32 52 50 78 12 20 26 40 40 56 6 6 12 10 20 10 2-4 0-6-2-8-6-8-10-16-14-22-6-14-14-24-20-36-16-32-34-62-50-92-4-8-4-8 4-14 20-16 40-32 60-52 22-20 44-42 64-68 4-6 8-6 14-6 26 0 52 0 80-2s52-4 78-8c38-6 74-14 108-32 22-12 42-28 44-56-2-4-2-8 0-12v-2c-2-6-2-14-4-20zM402 248c4-28 10-56 22-82 6-12 10-22 20-30 12-16 30-18 46-12 10 2 18 8 26 14 30 24 54 58 74 92-68 0-132 14-190 50-2-12 0-22 2-32zm-160 62c2-22 4-44 12-64 4-10 10-20 18-26 16-14 44-10 52 10 2 0 2 2 2 4 0 24 2 48 6 74 0 4-2 2-4 2h-40v2h-40c-4 2-6 2-6-2zm56 434c-12 2-22 2-32 0-26-4-40-20-42-46 0-18 4-34 8-50 8-26 18-52 34-78 34 58 76 106 134 140 0 2-2 2-2 2-32 14-66 26-100 32zm210 86c-22 12-44 20-68 22h-8c-32-4-40-28-30-54 0-2 2-4 4-4 10-6 20-14 30-20 10-8 20-14 30-20 4 6 8 12 12 20 10 16 20 34 32 52 0 0 4 2-2 4zm114-88c-26 24-52 48-80 68-4 4-6 4-8-2-10-20-20-42-32-62 0-2-2-4-2-8 42 2 80-8 116-28-36 10-74 14-112 12 0-4 2-4 4-6 80-68 152-144 216-228 4-6 4-8-2-10-8-4-16-10-24-14-2 0-4-2-6 2-24 34-54 62-84 90-58 50-120 94-184 138-4 2-6 2-10 0-44-26-74-62-98-104-30-48-46-102-58-160-8-26-12-54-14-82-2-6 0-8 6-8 24 4 50 4 72 6 6 0 6 2 4 6-20 34-30 68-30 106v4c10-34 22-68 44-100 4 22 8 42 12 60 20 84 46 164 78 242 2 6 4 6 8 4 8-6 16-10 24-14 2-2 4-4 2-6-18-38-26-76-34-116-16-74-24-148-28-222 0-6 0-8 6-12 36-22 76-32 118-34 64-4 128 8 188 26 30 10 58 20 84 32 2 2 4 2 2 6-14 22-26 42-42 64-18-36-46-64-80-82 12 12 26 26 36 42 10 14 20 30 28 48-8-2-18-6-26-8-24-10-48-16-72-24-68-18-136-32-204-40-14-2-14-2-14 12v20c0 4 0 4 4 4 48 4 94 20 140 36 64 22 126 50 186 80 2 2 2 4 2 8 0 46-14 88-36 130-26 48-60 88-100 124zm242-94c-12 10-26 16-40 20-32 8-66 12-100 12 34-58 56-120 56-188 2 0 4 2 6 2 30 24 58 46 82 78 6 8 10 16 14 26 4 20 0 36-18 50zm6-202c-8 4-16 4-24 0-18-12-40-20-60-30-2 0-4-2-2-6 12-22 26-46 38-70 2-2 2-4 6-2 18 14 38 26 52 46 6 10 12 20 12 32 0 14-8 26-22 30z"/></svg>