<svg xmlns="http://www.w3.org/2000/svg" viewBox="0 0 1024 1024"><path d="M897.055 162.693c-80.456-69.796-193.044-110.09-323.912-110.09C231.997 52.613 0 314.122 0 314.122l65.362 103.066s36.198 3.011 17.039-57.692c16.538-31.037 48.896-72.817 112.097-121.006v686.541c-27.249 7.629-63.273 21.985-38.728 46.367h187.843c24.791-24.617-14.264-39.455-38.052-46.367V763.055s128.758 50.217 267.581 50.217c121.938 0 232.919-36.055 315.464-101.161 82.534-64.727 135.752-161.372 135.404-271.831.246-108.472-46.5-208.046-126.966-277.565l.01-.02zM797.491 657.92c-57.068 55.972-140.083 91.351-235.807 91.279-106.834.072-196.741-20.48-256.123-49.521V184.626c65.147-45.998 170.803-74.322 256.123-74.158 103.67.092 185.047 39.004 240.108 98.028 54.927 59.392 84.92 138.301 85.197 230.001-.348 89.364-32.42 162.98-89.498 219.402v.02z"/></svg>