<svg xmlns="http://www.w3.org/2000/svg" viewBox="0 0 1024 1024"><path d="M656 326c82 12 134-76 146-142 10-66-44-144-102-158-58-12-130 80-136 142-8 74 10 148 92 158zM184 540c112-24 96-158 94-186-6-46-60-124-130-118-90 8-104 138-104 138-12 60 30 190 140 166zm206-224c62 0 112-70 112-158S452 0 390 0c-60 0-110 70-110 158s50 158 110 158zm-88 456c-2 8-10 32-4 54 12 46 54 48 54 48h58V732h-62c-28 8-42 30-46 40zm680-334c0-32-26-128-124-128-100 0-112 92-112 156 0 60 6 146 128 142 120-2 108-138 108-170zM858 718s-128-98-202-204c-100-158-244-94-292-14S242 630 232 644c-10 12-154 90-122 230 32 142 144 138 144 138s82 8 176-12c96-22 178 4 178 4s224 76 284-68-34-218-34-218zM476 932H332c-62-14-88-56-90-64-4-6-22-40-12-98 26-88 104-94 104-94h76v-96l66 2zm270-2H580c-66-16-68-62-68-62V684l68-2v166c4 18 26 22 26 22h68V684h72z"/></svg>